<?xml version="1.0" encoding="UTF-8"?>
<svg xmlns="http://www.w3.org/2000/svg" xmlns:xlink="http://www.w3.org/1999/xlink" width="96pt" height="96pt" viewBox="0 0 96 96" version="1.1">
<g id="surface1">
<path style=" stroke:none;fill-rule:evenodd;fill:rgb(54.901961%,54.901961%,54.901961%);fill-opacity:1;" d="M 48 16 C 50.21875 16 52 17.78125 52 20.03125 L 52 24.40625 C 61.125 26.25 68 34.3125 68 44 L 67.96875 43.375 L 68 43.59375 C 68 56.03125 73.9375 67.6875 74.28125 68.3125 C 75.21875 70.34375 74.21875 72 72 72 L 56 72 C 56 76.40625 52.40625 80 48 80 C 43.59375 80 40 76.40625 40 72 L 24 72 C 21.78125 72 20.78125 70.34375 21.6875 68.34375 C 21.6875 68.34375 28 56.40625 28 43.59375 L 28 43.375 C 28.28125 33.96875 35.0625 26.21875 44 24.40625 L 44 20.03125 C 44 17.96875 45.53125 16.25 47.53125 16.03125 Z M 48 16 "/>
</g>
</svg>
