<?xml version="1.0" encoding="UTF-8"?>
<svg xmlns="http://www.w3.org/2000/svg" xmlns:xlink="http://www.w3.org/1999/xlink" width="90pt" height="90pt" viewBox="0 0 90 90" version="1.1">
<g id="surface1">
<path style=" stroke:none;fill-rule:evenodd;fill:rgb(100%,51.372549%,5.882353%);fill-opacity:1;" d="M 37.5 3.75 L 3.75 37.5 L 11.25 45 L 30 26.34375 L 30 71.25 L 41.25 71.25 L 41.25 45 L 45 45 L 45 26.34375 L 59.980469 41.25 L 67.5 41.25 L 71.25 37.5 Z M 37.5 3.75 "/>
<path style=" stroke:none;fill-rule:evenodd;fill:rgb(30.196078%,30.196078%,30.196078%);fill-opacity:1;" d="M 48.75 48.867188 L 48.75 56.367188 L 63.75 56.367188 L 63.75 48.867188 L 67.5 48.867188 L 67.5 56.367188 L 82.5 56.367188 L 82.5 48.867188 L 86.25 48.867188 L 86.25 86.367188 L 45 86.367188 L 45 48.867188 Z M 48.75 48.867188 "/>
<path style=" stroke:none;fill-rule:evenodd;fill:rgb(30.196078%,30.196078%,30.196078%);fill-opacity:1;" d="M 52.5 45 L 60 45 L 60 52.5 L 52.5 52.5 Z M 52.5 45 "/>
<path style=" stroke:none;fill-rule:evenodd;fill:rgb(30.196078%,30.196078%,30.196078%);fill-opacity:1;" d="M 71.25 45 L 78.75 45 L 78.75 52.5 L 71.25 52.5 Z M 71.25 45 "/>
<path style=" stroke:none;fill-rule:evenodd;fill:rgb(100%,100%,100%);fill-opacity:1;" d="M 48.75 71.25 L 52.5 71.25 L 52.5 75 L 48.75 75 Z M 48.75 71.25 "/>
<path style=" stroke:none;fill-rule:evenodd;fill:rgb(100%,100%,100%);fill-opacity:1;" d="M 48.75 78.75 L 52.5 78.75 L 52.5 82.5 L 48.75 82.5 Z M 48.75 78.75 "/>
<path style=" stroke:none;fill-rule:evenodd;fill:rgb(100%,100%,100%);fill-opacity:1;" d="M 48.75 63.75 L 52.5 63.75 L 52.5 67.5 L 48.75 67.5 Z M 48.75 63.75 "/>
<path style=" stroke:none;fill-rule:evenodd;fill:rgb(100%,100%,100%);fill-opacity:1;" d="M 56.25 71.25 L 60 71.25 L 60 75 L 56.25 75 Z M 56.25 71.25 "/>
<path style=" stroke:none;fill-rule:evenodd;fill:rgb(100%,100%,100%);fill-opacity:1;" d="M 56.25 78.75 L 60 78.75 L 60 82.5 L 56.25 82.5 Z M 56.25 78.75 "/>
<path style=" stroke:none;fill-rule:evenodd;fill:rgb(100%,100%,100%);fill-opacity:1;" d="M 56.25 63.75 L 60 63.75 L 60 67.5 L 56.25 67.5 Z M 56.25 63.75 "/>
<path style=" stroke:none;fill-rule:evenodd;fill:rgb(100%,100%,100%);fill-opacity:1;" d="M 63.75 71.25 L 67.5 71.25 L 67.5 75 L 63.75 75 Z M 63.75 71.25 "/>
<path style=" stroke:none;fill-rule:evenodd;fill:rgb(100%,100%,100%);fill-opacity:1;" d="M 63.75 78.75 L 67.5 78.75 L 67.5 82.5 L 63.75 82.5 Z M 63.75 78.75 "/>
<path style=" stroke:none;fill-rule:evenodd;fill:rgb(100%,100%,100%);fill-opacity:1;" d="M 63.75 63.75 L 67.5 63.75 L 67.5 67.5 L 63.75 67.5 Z M 63.75 63.75 "/>
<path style=" stroke:none;fill-rule:evenodd;fill:rgb(100%,100%,100%);fill-opacity:1;" d="M 71.25 71.25 L 75 71.25 L 75 75 L 71.25 75 Z M 71.25 71.25 "/>
<path style=" stroke:none;fill-rule:evenodd;fill:rgb(100%,100%,100%);fill-opacity:1;" d="M 71.25 78.75 L 75 78.75 L 75 82.5 L 71.25 82.5 Z M 71.25 78.75 "/>
<path style=" stroke:none;fill-rule:evenodd;fill:rgb(100%,100%,100%);fill-opacity:1;" d="M 71.25 63.75 L 75 63.75 L 75 67.5 L 71.25 67.5 Z M 71.25 63.75 "/>
<path style=" stroke:none;fill-rule:evenodd;fill:rgb(100%,100%,100%);fill-opacity:1;" d="M 78.75 71.25 L 82.5 71.25 L 82.5 75 L 78.75 75 Z M 78.75 71.25 "/>
<path style=" stroke:none;fill-rule:evenodd;fill:rgb(100%,100%,100%);fill-opacity:1;" d="M 78.75 78.75 L 82.5 78.75 L 82.5 82.5 L 78.75 82.5 Z M 78.75 78.75 "/>
<path style=" stroke:none;fill-rule:evenodd;fill:rgb(100%,100%,100%);fill-opacity:1;" d="M 78.75 63.75 L 82.5 63.75 L 82.5 67.5 L 78.75 67.5 Z M 78.75 63.75 "/>
</g>
</svg>
