<?xml version="1.0" encoding="UTF-8"?>
<svg xmlns="http://www.w3.org/2000/svg" xmlns:xlink="http://www.w3.org/1999/xlink" width="96pt" height="96pt" viewBox="0 0 96 96" version="1.1">
<g id="surface1">
<path style=" stroke:none;fill-rule:evenodd;fill:rgb(0%,67.058824%,35.686275%);fill-opacity:1;" d="M 40 4 L 4 40 L 12 48 L 32 28.09375 L 32 76 L 44 76 L 44 48 L 48 48 L 48 28.09375 L 63.96875 44 L 72 44 L 76 40 Z M 40 4 "/>
<path style=" stroke:none;fill-rule:evenodd;fill:rgb(30.196078%,30.196078%,30.196078%);fill-opacity:1;" d="M 52 52.125 L 52 60.125 L 68 60.125 L 68 52.125 L 72 52.125 L 72 60.125 L 88 60.125 L 88 52.125 L 92 52.125 L 92 92.125 L 48 92.125 L 48 52.125 Z M 52 52.125 "/>
<path style=" stroke:none;fill-rule:evenodd;fill:rgb(30.196078%,30.196078%,30.196078%);fill-opacity:1;" d="M 56 48 L 64 48 L 64 56 L 56 56 Z M 56 48 "/>
<path style=" stroke:none;fill-rule:evenodd;fill:rgb(30.196078%,30.196078%,30.196078%);fill-opacity:1;" d="M 76 48 L 84 48 L 84 56 L 76 56 Z M 76 48 "/>
<path style=" stroke:none;fill-rule:evenodd;fill:rgb(100%,100%,100%);fill-opacity:1;" d="M 52 76 L 56 76 L 56 80 L 52 80 Z M 52 76 "/>
<path style=" stroke:none;fill-rule:evenodd;fill:rgb(100%,100%,100%);fill-opacity:1;" d="M 52 84 L 56 84 L 56 88 L 52 88 Z M 52 84 "/>
<path style=" stroke:none;fill-rule:evenodd;fill:rgb(100%,100%,100%);fill-opacity:1;" d="M 52 68 L 56 68 L 56 72 L 52 72 Z M 52 68 "/>
<path style=" stroke:none;fill-rule:evenodd;fill:rgb(100%,100%,100%);fill-opacity:1;" d="M 60 76 L 64 76 L 64 80 L 60 80 Z M 60 76 "/>
<path style=" stroke:none;fill-rule:evenodd;fill:rgb(100%,100%,100%);fill-opacity:1;" d="M 60 84 L 64 84 L 64 88 L 60 88 Z M 60 84 "/>
<path style=" stroke:none;fill-rule:evenodd;fill:rgb(100%,100%,100%);fill-opacity:1;" d="M 60 68 L 64 68 L 64 72 L 60 72 Z M 60 68 "/>
<path style=" stroke:none;fill-rule:evenodd;fill:rgb(100%,100%,100%);fill-opacity:1;" d="M 68 76 L 72 76 L 72 80 L 68 80 Z M 68 76 "/>
<path style=" stroke:none;fill-rule:evenodd;fill:rgb(100%,100%,100%);fill-opacity:1;" d="M 68 84 L 72 84 L 72 88 L 68 88 Z M 68 84 "/>
<path style=" stroke:none;fill-rule:evenodd;fill:rgb(100%,100%,100%);fill-opacity:1;" d="M 68 68 L 72 68 L 72 72 L 68 72 Z M 68 68 "/>
<path style=" stroke:none;fill-rule:evenodd;fill:rgb(100%,100%,100%);fill-opacity:1;" d="M 76 76 L 80 76 L 80 80 L 76 80 Z M 76 76 "/>
<path style=" stroke:none;fill-rule:evenodd;fill:rgb(100%,100%,100%);fill-opacity:1;" d="M 76 84 L 80 84 L 80 88 L 76 88 Z M 76 84 "/>
<path style=" stroke:none;fill-rule:evenodd;fill:rgb(100%,100%,100%);fill-opacity:1;" d="M 76 68 L 80 68 L 80 72 L 76 72 Z M 76 68 "/>
<path style=" stroke:none;fill-rule:evenodd;fill:rgb(100%,100%,100%);fill-opacity:1;" d="M 84 76 L 88 76 L 88 80 L 84 80 Z M 84 76 "/>
<path style=" stroke:none;fill-rule:evenodd;fill:rgb(100%,100%,100%);fill-opacity:1;" d="M 84 84 L 88 84 L 88 88 L 84 88 Z M 84 84 "/>
<path style=" stroke:none;fill-rule:evenodd;fill:rgb(100%,100%,100%);fill-opacity:1;" d="M 84 68 L 88 68 L 88 72 L 84 72 Z M 84 68 "/>
</g>
</svg>
