<?xml version="1.0" encoding="UTF-8"?>
<svg xmlns="http://www.w3.org/2000/svg" xmlns:xlink="http://www.w3.org/1999/xlink" width="96pt" height="96pt" viewBox="0 0 96 96" version="1.1">
<g id="surface1">
<path style=" stroke:none;fill-rule:nonzero;fill:rgb(54.901961%,54.901961%,54.901961%);fill-opacity:1;" d="M 45.066406 26.984375 L 31.980469 26.984375 L 31.980469 24.082031 L 40.328125 14.933594 L 32.429688 14.933594 L 32.429688 11.808594 L 45.066406 11.808594 L 45.066406 14.933594 L 36.945312 24.304688 L 45.066406 24.304688 Z M 55.898438 7.570312 L 55.898438 43.273438 L 92 43.273438 C 92 23.636719 75.980469 7.570312 55.898438 7.570312 Z M 91.546875 47.511719 L 4.902344 47.511719 C 6.480469 58 13.476562 67.148438 23.628906 72.730469 L 16.863281 90.582031 L 23.628906 90.582031 L 29.273438 75.40625 C 41.90625 80.316406 55.898438 80.09375 68.308594 74.738281 L 74.398438 90.359375 L 81.167969 90.359375 L 73.949219 71.835938 C 83.199219 66.925781 89.742188 58 91.546875 47.511719 Z M 29.273438 27.652344 L 23.40625 27.652344 L 13.476562 27.875 L 13.476562 27.652344 L 29.273438 10.023438 L 29.273438 4 L 4.902344 4 L 4.902344 9.800781 L 10.09375 9.800781 L 20.019531 9.578125 L 20.019531 9.800781 L 4 27.652344 L 4 33.457031 L 29.273438 33.457031 Z M 29.273438 27.652344 "/>
</g>
</svg>
