<?xml version="1.0" encoding="UTF-8"?>
<svg xmlns="http://www.w3.org/2000/svg" xmlns:xlink="http://www.w3.org/1999/xlink" width="96pt" height="96pt" viewBox="0 0 96 96" version="1.1">
<g id="surface1">
<path style=" stroke:none;fill-rule:evenodd;fill:rgb(54.901961%,54.901961%,54.901961%);fill-opacity:1;" d="M 49.0625 54.59375 C 47.625 56.5625 46.4375 58.71875 45.59375 61.0625 C 45.125 60.8125 44.59375 60.6875 43.96875 60.6875 C 42.6875 60.6875 41.75 61.1875 41.1875 62.375 C 38.4375 68.375 37 74.78125 36.40625 81.40625 C 36.3125 82.21875 35.96875 83.4375 35.40625 83.71875 C 34.625 84.09375 33.40625 84.0625 32.625 83.65625 C 31.53125 83.09375 31.46875 81.84375 31.96875 80.65625 C 32.75 78.75 33.65625 76.84375 34.34375 74.875 C 36.21875 69.5625 37.625 61.6875 37.5625 60.75 C 37.5 59.78125 36.78125 59.5625 36.0625 60 C 35.0625 60.59375 34.5625 62.1875 34 63.15625 C 32.46875 65.90625 30.96875 68.625 29.46875 71.375 C 28.84375 72.5625 28 73.125 26.84375 72.4375 C 25.8125 71.78125 25.6875 70.71875 26.4375 69.65625 C 27.5625 68.03125 28.59375 66.3125 29.59375 64.59375 C 30.71875 62.71875 32.21875 60.53125 32.65625 58.28125 C 32.90625 56.90625 31.40625 55.625 30.40625 55 C 29.28125 54.3125 28.15625 54.4375 26.96875 54.90625 C 25.1875 55.625 23.4375 56.46875 21.75 57.40625 C 18.34375 59.3125 15.1875 61.6875 12.21875 64.28125 C 10.4375 65.84375 8.6875 65.3125 8.28125 63.03125 C 8.15625 62.375 8.625 61.15625 9.15625 60.875 C 11.625 59.5625 14.3125 58.65625 16.71875 57.25 C 19.125 55.84375 21.5 54.375 23.75 52.75 C 24.5625 52.15625 26.21875 51.25 25.96875 49.96875 C 25.59375 48.0625 23.53125 49.15625 22.46875 49.46875 L 14.5 51.6875 C 14.03125 51.84375 13.5625 51.9375 13.09375 51.9375 C 12.625 51.90625 12.125 51.75 11.84375 51.34375 C 11.25 50.5625 11.75 49.34375 12.53125 48.8125 C 13.34375 48.3125 14.34375 48.3125 15.28125 48.3125 C 17.3125 48.21875 19.34375 47.96875 21.3125 47.5 C 22.5 47.1875 24.1875 47.09375 24.90625 45.875 C 25.375 45.125 25.25 44.15625 25.21875 43.3125 C 25.21875 42.15625 25.1875 41.03125 25.03125 39.90625 C 24.9375 39.125 23.96875 38.53125 23.34375 38.25 C 18.3125 36.15625 13.125 34.625 7.6875 34.15625 C 7.09375 34.09375 6.4375 34.0625 5.84375 33.90625 C 4.4375 33.53125 3.71875 32.28125 4.125 30.9375 C 4.5625 29.34375 5.6875 28.65625 7.15625 29.25 C 8.75 29.875 10.25 30.84375 11.84375 31.34375 C 14.5 32.1875 17.15625 32.96875 19.84375 33.71875 C 21.1875 34.09375 22.53125 34.46875 23.875 34.8125 C 24.5 35 25.25 35.125 25.84375 34.75 C 26.46875 34.34375 27.0625 33.15625 26.5 32.5 C 26.09375 31.96875 25.3125 31.78125 24.75 31.46875 C 23.875 30.96875 23.03125 30.5 22.15625 30 C 20.21875 28.90625 18.21875 27.9375 16.40625 26.625 C 16 26.3125 15.5625 25.96875 15.28125 25.5 C 15 25.03125 14.875 24.40625 15.15625 23.9375 C 15.4375 23.4375 16.0625 23.21875 16.625 23.3125 C 17.1875 23.40625 17.6875 23.71875 18.15625 24.03125 C 19.71875 25.0625 21.15625 26.21875 22.5625 27.40625 C 23.75 28.375 24.84375 29.6875 26.25 30.28125 C 27.84375 30.96875 29.3125 29.65625 30.375 28.5 C 31.1875 27.5625 32.1875 26.53125 32.09375 25.1875 C 32 23.5 30.6875 21.5625 29.9375 20.125 C 28.1875 16.65625 26.1875 13.3125 23.9375 10.15625 C 23.46875 9.46875 22.96875 8.75 22.625 7.96875 C 22.28125 7.1875 22.15625 6.28125 22.4375 5.46875 C 22.6875 4.65625 23.4375 3.96875 24.25 4 C 25.40625 4.03125 26.09375 5.25 26.59375 6.21875 C 27.40625 7.71875 28.1875 9.28125 29 10.78125 C 30.65625 13.9375 32.25 17.0625 33.78125 20.28125 C 34.3125 21.40625 34.78125 23 36 23.5625 C 36.53125 23.8125 37.0625 23.59375 37.625 23.375 C 40 22.34375 38.0625 15.53125 36.4375 11.1875 C 36.125 10.34375 35.96875 9.34375 36.375 8.53125 C 36.625 8.0625 37.09375 7.75 37.625 7.65625 C 38.125 7.59375 38.65625 7.8125 39 8.21875 C 39.4375 8.71875 39.53125 9.5 39.625 10.21875 C 40 13.03125 40.46875 17.375 42.34375 21.625 C 42.65625 22.3125 43.15625 22.75 44 22.6875 C 44.875 22.75 45.375 22.3125 45.6875 21.625 C 47.5625 17.375 48.03125 13.03125 48.40625 10.21875 C 48.46875 9.5 48.59375 8.71875 49.03125 8.21875 C 49.375 7.8125 49.90625 7.59375 50.40625 7.65625 C 50.9375 7.75 51.40625 8.0625 51.65625 8.53125 C 52.0625 9.34375 51.90625 10.34375 51.59375 11.1875 C 49.96875 15.53125 48.03125 22.34375 50.40625 23.375 C 50.9375 23.59375 51.5 23.8125 52.03125 23.5625 C 53.25 23 53.71875 21.40625 54.25 20.28125 C 55.78125 17.0625 57.375 13.9375 59.03125 10.78125 C 59.84375 9.28125 60.625 7.71875 61.4375 6.21875 C 61.9375 5.25 62.625 4.03125 63.78125 4 C 64.59375 3.96875 65.34375 4.65625 65.59375 5.46875 C 65.875 6.28125 65.75 7.1875 65.40625 7.96875 C 65.0625 8.78125 64.5625 9.46875 64.09375 10.15625 C 61.84375 13.3125 59.84375 16.65625 58.09375 20.125 C 57.34375 21.5625 56.03125 23.5 55.90625 25.1875 C 55.84375 26.53125 56.84375 27.5625 57.65625 28.5 C 58.6875 29.65625 60.15625 30.96875 61.78125 30.28125 C 63.1875 29.6875 64.28125 28.375 65.4375 27.40625 C 66.875 26.21875 68.3125 25.0625 69.84375 24.03125 C 70.34375 23.71875 70.84375 23.40625 71.375 23.3125 C 71.96875 23.21875 72.59375 23.4375 72.875 23.9375 C 73.125 24.40625 73.03125 25.03125 72.75 25.5 C 72.46875 25.96875 72.03125 26.3125 71.625 26.625 C 69.8125 27.9375 67.8125 28.90625 65.875 30 C 65 30.5 64.125 30.96875 63.28125 31.46875 C 62.71875 31.78125 61.9375 31.96875 61.53125 32.5 C 60.96875 33.15625 61.5625 34.34375 62.1875 34.75 C 62.78125 35.125 63.53125 35 64.15625 34.8125 C 65.5 34.46875 66.84375 34.09375 68.15625 33.71875 C 70.84375 32.96875 73.53125 32.1875 76.1875 31.34375 C 77.78125 30.84375 79.28125 29.875 80.875 29.25 C 82.3125 28.65625 83.46875 29.34375 83.90625 30.9375 C 84.28125 32.28125 83.59375 33.53125 82.1875 33.90625 C 81.5625 34.0625 80.9375 34.09375 80.3125 34.15625 C 74.90625 34.625 69.71875 36.15625 64.6875 38.25 C 64.0625 38.53125 63.09375 39.125 63 39.90625 C 62.84375 41.03125 62.8125 42.15625 62.8125 43.3125 C 62.78125 43.875 62.71875 44.46875 62.8125 45 C 60.375 45.71875 58.0625 46.78125 55.96875 48.125 C 56.84375 46.34375 57.3125 44.375 57.34375 42.25 C 57.34375 34.90625 51.4375 28.96875 44.125 28.96875 C 36.8125 29.03125 30.875 35 30.84375 42.34375 C 30.78125 49.6875 36.71875 55.625 44.03125 55.59375 C 45.5625 55.59375 47 55.34375 48.375 54.875 Z M 44.15625 32.3125 C 49.59375 32.3125 54 36.75 54 42.25 C 54 47.75 49.5 52.25 44.03125 52.28125 C 38.5625 52.28125 34.125 47.875 34.15625 42.34375 C 34.1875 36.84375 38.65625 32.34375 44.15625 32.3125 Z M 44.15625 32.3125 "/>
<path style=" stroke:none;fill-rule:evenodd;fill:rgb(0%,67.058824%,35.686275%);fill-opacity:1;" d="M 92 70 C 92 82.15625 82.15625 92 70 92 C 57.84375 92 48 82.15625 48 70 C 48 57.84375 57.84375 48 70 48 C 82.15625 48 92 57.84375 92 70 Z M 92 70 "/>
<path style=" stroke:none;fill-rule:nonzero;fill:rgb(100%,100%,100%);fill-opacity:1;" d="M 80.15625 60 L 84 63.625 L 67.96875 78.71875 L 66.625 80 L 56 70 L 59.84375 66.375 L 66.625 72.78125 Z M 80.15625 60 "/>
</g>
</svg>
