<?xml version="1.0" encoding="UTF-8"?>
<svg xmlns="http://www.w3.org/2000/svg" xmlns:xlink="http://www.w3.org/1999/xlink" width="96px" height="96px" viewBox="0 0 96 96" version="1.1">
<g id="surface1">
<path style=" stroke:none;fill-rule:evenodd;fill:rgb(54.901961%,54.901961%,54.901961%);fill-opacity:1;" d="M 51.039062 75.675781 L 63.359375 88 L 87.996094 63.355469 L 75.679688 51.039062 Z M 51.039062 75.675781 "/>
<path style=" stroke:none;fill-rule:evenodd;fill:rgb(54.901961%,54.901961%,54.901961%);fill-opacity:1;" d="M 32.640625 8 L 7.996094 32.644531 L 20.320312 44.960938 L 44.964844 20.320312 Z M 32.640625 8 "/>
<path style=" stroke:none;fill-rule:evenodd;fill:rgb(21.960784%,21.960784%,21.960784%);fill-opacity:1;" d="M 58.496094 50.71875 C 56.128906 50.730469 54.222656 48.828125 54.234375 46.460938 C 54.25 44.097656 56.175781 42.171875 58.542969 42.15625 C 60.90625 42.144531 62.8125 44.050781 62.800781 46.417969 C 62.785156 48.78125 60.859375 50.707031 58.496094 50.71875 Z M 46.183594 63.03125 C 43.820312 63.042969 41.910156 61.140625 41.921875 58.773438 C 41.9375 56.410156 43.863281 54.480469 46.230469 54.46875 C 48.59375 54.457031 50.5 56.363281 50.488281 58.726562 C 50.476562 61.09375 48.546875 63.019531 46.183594 63.03125 Z M 49.394531 41.621094 C 47.03125 41.632812 45.125 39.726562 45.140625 37.363281 C 45.152344 35 47.078125 33.074219 49.441406 33.058594 C 51.808594 33.042969 53.714844 34.953125 53.699219 37.316406 C 53.6875 39.679688 51.757812 41.609375 49.394531 41.621094 Z M 37.082031 53.933594 C 34.71875 53.945312 32.816406 52.039062 32.828125 49.675781 C 32.839844 47.3125 34.765625 45.382812 37.128906 45.371094 C 39.496094 45.355469 41.402344 47.265625 41.386719 49.628906 C 41.375 51.992188 39.445312 53.921875 37.082031 53.933594 Z M 63.359375 8 L 8 63.355469 L 32.644531 88 L 88 32.640625 Z M 63.359375 8 "/>
</g>
</svg>
