<?xml version="1.0" encoding="UTF-8"?>
<svg xmlns="http://www.w3.org/2000/svg" xmlns:xlink="http://www.w3.org/1999/xlink" width="96px" height="96px" viewBox="0 0 96 96" version="1.1">
<g id="surface1">
<path style=" stroke:none;fill-rule:nonzero;fill:rgb(30.196078%,30.196078%,30.196078%);fill-opacity:1;" d="M 70 88 C 80 88 88 80 88 70 C 88 60 80 52 70 52 C 60 52 52 60 52 70 C 52 80 60 88 70 88 Z M 70 92 C 58 92 48 82 48 70 C 48 58 58 48 70 48 C 82 48 92 58 92 70 C 92 82 82 92 70 92 Z M 70 92 "/>
<path style=" stroke:none;fill-rule:evenodd;fill:rgb(54.901961%,54.901961%,54.901961%);fill-opacity:1;" d="M 4 28.640625 L 16.324219 40.960938 L 40.964844 16.320312 L 28.644531 4 Z M 4 28.640625 "/>
<path style=" stroke:none;fill-rule:evenodd;fill:rgb(21.960784%,21.960784%,21.960784%);fill-opacity:1;" d="M 54.496094 46.71875 C 52.132812 46.730469 50.226562 44.828125 50.238281 42.460938 C 50.253906 40.09375 52.175781 38.171875 54.542969 38.15625 C 56.910156 38.144531 58.8125 40.050781 58.800781 42.414062 C 58.789062 44.78125 56.859375 46.707031 54.496094 46.71875 Z M 45.398438 37.621094 C 43.03125 37.632812 41.128906 35.726562 41.140625 33.363281 C 41.152344 31 43.082031 29.070312 45.445312 29.058594 C 47.808594 29.042969 49.71875 30.953125 49.699219 33.316406 C 49.6875 35.679688 47.761719 37.609375 45.398438 37.621094 Z M 42.183594 59.03125 C 39.820312 59.042969 37.914062 57.140625 37.925781 54.773438 C 37.941406 52.40625 39.863281 50.480469 42.234375 50.46875 C 44.597656 50.457031 46.5 52.363281 46.488281 54.726562 C 46.476562 57.089844 44.546875 59.019531 42.183594 59.03125 Z M 33.085938 49.933594 C 30.722656 49.945312 28.816406 48.039062 28.828125 45.675781 C 28.839844 43.3125 30.769531 41.382812 33.132812 41.371094 C 35.496094 41.355469 37.40625 43.261719 37.390625 45.628906 C 37.375 47.992188 35.449219 49.917969 33.085938 49.933594 Z M 59.359375 4 L 4 59.355469 L 28.644531 84 L 44.074219 68.566406 C 44.796875 55.355469 55.355469 44.792969 68.570312 44.070312 L 84 28.640625 Z M 59.359375 4 "/>
</g>
</svg>
