<?xml version="1.0" encoding="UTF-8"?>
<svg xmlns="http://www.w3.org/2000/svg" xmlns:xlink="http://www.w3.org/1999/xlink" width="96pt" height="96pt" viewBox="0 0 96 96" version="1.1">
<g id="surface1">
<path style=" stroke:none;fill-rule:nonzero;fill:rgb(54.901961%,54.901961%,54.901961%);fill-opacity:1;" d="M 48 17.441406 C 48 17.441406 25.179688 50.558594 25.179688 62.078125 C 25.4375 67.867188 27.992188 73.316406 32.273438 77.222656 C 36.554688 81.125 42.210938 83.167969 48 82.894531 C 53.78125 83.15625 59.429688 81.109375 63.699219 77.203125 C 67.972656 73.300781 70.519531 67.859375 70.777344 62.078125 C 70.734375 50.558594 48 17.441406 48 17.441406 Z M 85.121094 4.410156 L 74.808594 4.410156 C 73.398438 4.203125 71.976562 4.691406 70.980469 5.726562 C 69.984375 6.765625 69.542969 8.222656 69.785156 9.648438 L 69.851562 21.816406 C 69.855469 26.945312 74.265625 31.238281 79.296875 31.683594 C 79.296875 33.445312 78.496094 37.191406 75.871094 37.191406 C 73.914062 37.191406 73.203125 36.109375 72.09375 34.121094 C 71.429688 32.621094 70.347656 31.347656 68.980469 30.464844 C 67.355469 30.039062 65.671875 29.898438 64 30.058594 L 64 32.316406 C 65.269531 32.160156 66.554688 32.160156 67.824219 32.316406 C 68.832031 32.984375 69.621094 33.941406 70.089844 35.070312 C 71.03125 37.667969 73.503906 39.359375 76.226562 39.269531 C 80.363281 39.269531 81.695312 34.753906 81.875 31.457031 C 86.628906 30.703125 90.136719 26.546875 90.144531 21.660156 L 90.144531 9.46875 C 90.324219 8.070312 89.851562 6.667969 88.867188 5.675781 C 87.878906 4.683594 86.496094 4.214844 85.121094 4.410156 Z M 87.230469 21.195312 C 87.4375 23.941406 86.105469 26.574219 83.78125 28.011719 C 81.453125 29.449219 78.523438 29.449219 76.199219 28.011719 C 73.871094 26.574219 72.539062 23.941406 72.75 21.195312 L 72.75 20.632812 C 74.683594 20.445312 76.574219 19.933594 78.34375 19.121094 L 80.609375 18.171875 C 82.730469 17.214844 85.152344 17.214844 87.273438 18.171875 Z M 87.230469 21.195312 "/>
</g>
</svg>
