<?xml version="1.0" encoding="UTF-8"?>
<svg xmlns="http://www.w3.org/2000/svg" xmlns:xlink="http://www.w3.org/1999/xlink" width="96pt" height="96pt" viewBox="0 0 96 96" version="1.1">
<g id="surface1">
<path style=" stroke:none;fill-rule:nonzero;fill:rgb(54.901961%,54.901961%,54.901961%);fill-opacity:1;" d="M 48 17.320312 C 48 17.320312 27.078125 47.679688 27.078125 58.238281 C 27.320312 63.546875 29.65625 68.539062 33.582031 72.121094 C 37.507812 75.699219 42.695312 77.570312 48 77.320312 C 53.300781 77.558594 58.476562 75.683594 62.390625 72.105469 C 66.308594 68.527344 68.640625 63.539062 68.878906 58.238281 C 68.839844 47.679688 48 17.320312 48 17.320312 Z M 48 17.320312 "/>
<path style=" stroke:none;fill-rule:nonzero;fill:rgb(54.901961%,54.901961%,54.901961%);fill-opacity:1;" d="M 93.480469 63.28125 L 90.121094 50.359375 L 83.199219 61.800781 L 86.359375 60.960938 C 81.179688 77.839844 65.65625 89.414062 48 89.558594 C 27.640625 89.398438 10.542969 74.199219 8 54 C 7.855469 52.902344 6.859375 52.121094 5.761719 52.238281 C 4.667969 52.386719 3.898438 53.386719 4.039062 54.480469 C 6.828125 76.699219 25.648438 93.414062 48.039062 93.558594 C 67.679688 93.402344 84.902344 80.40625 90.441406 61.558594 Z M 93.480469 63.28125 "/>
<path style=" stroke:none;fill-rule:nonzero;fill:rgb(54.901961%,54.901961%,54.901961%);fill-opacity:1;" d="M 87.480469 30.398438 C 87.179688 31.652344 86.695312 32.851562 86.039062 33.960938 C 87.105469 37.128906 87.765625 40.421875 88 43.761719 C 88.082031 44.800781 88.953125 45.601562 90 45.601562 C 91.089844 45.515625 91.910156 44.570312 91.839844 43.480469 C 91.511719 38.800781 90.417969 34.207031 88.601562 29.878906 C 88.242188 30.085938 87.867188 30.257812 87.480469 30.398438 Z M 87.480469 30.398438 "/>
<path style=" stroke:none;fill-rule:nonzero;fill:rgb(54.901961%,54.901961%,54.901961%);fill-opacity:1;" d="M 71.398438 9.640625 C 64.265625 4.964844 56.527344 2.464844 48 2.441406 C 27.535156 2.664062 9.847656 16.777344 5.078125 36.679688 L 1.878906 34.960938 L 5.878906 47.679688 L 12.199219 36 L 9.121094 37 C 13.664062 19.183594 29.617188 6.648438 48 6.441406 C 56.65625 6.441406 64.472656 9.246094 71.398438 14.441406 Z M 71.398438 9.640625 "/>
<path style=" stroke:none;fill-rule:nonzero;fill:rgb(54.901961%,54.901961%,54.901961%);fill-opacity:1;" d="M 87.417969 4.402344 L 78.359375 4.402344 C 77.1875 4.230469 76 4.636719 75.171875 5.5 C 74.34375 6.363281 73.972656 7.578125 74.175781 8.769531 L 74.230469 18.910156 C 74.234375 23.179688 78.375 26.757812 82.5625 27.128906 C 82.5625 28.597656 81.898438 31.722656 79.710938 31.722656 C 78.082031 31.722656 77.488281 30.816406 76.5625 29.160156 C 76.011719 27.910156 75.109375 26.851562 73.96875 26.113281 C 72.613281 25.757812 71.210938 25.644531 69.816406 25.777344 L 69.816406 27.65625 C 70.875 27.527344 71.945312 27.527344 73.003906 27.65625 C 73.84375 28.214844 74.503906 29.011719 74.894531 29.953125 C 75.675781 32.117188 77.738281 33.527344 80.007812 33.453125 C 83.453125 33.453125 84.566406 29.6875 84.714844 26.941406 C 88.675781 26.3125 91.597656 22.851562 91.605469 18.777344 L 91.605469 8.617188 C 91.753906 7.453125 91.359375 6.285156 90.539062 5.457031 C 89.71875 4.628906 88.5625 4.242188 87.417969 4.402344 Z M 88.691406 17.816406 C 88.859375 20.21875 87.792969 22.523438 85.933594 23.785156 C 84.070312 25.042969 81.730469 25.042969 79.867188 23.785156 C 78.007812 22.523438 76.941406 20.21875 77.109375 17.816406 L 77.109375 17.328125 C 78.65625 17.160156 80.167969 16.714844 81.585938 16.003906 L 83.394531 15.175781 C 85.09375 14.335938 87.03125 14.335938 88.726562 15.175781 Z M 88.691406 17.816406 "/>
</g>
</svg>
