<?xml version="1.0" encoding="UTF-8"?>
<svg xmlns="http://www.w3.org/2000/svg" xmlns:xlink="http://www.w3.org/1999/xlink" width="96pt" height="96pt" viewBox="0 0 96 96" version="1.1">
<g id="surface1">
<path style=" stroke:none;fill-rule:nonzero;fill:rgb(54.901961%,54.901961%,54.901961%);fill-opacity:1;" d="M 28 28.03125 L 28 75.96875 C 28 78.1875 29.78125 80 31.96875 80 L 68.03125 80 C 70.21875 80 72 78.1875 72 75.96875 L 72 28.03125 C 72 25.8125 70.21875 24 68.03125 24 L 31.96875 24 C 29.78125 24 28 25.8125 28 28.03125 Z M 24 28.03125 C 24 23.59375 27.5625 20 31.96875 20 L 68.03125 20 C 72.4375 20 76 23.59375 76 28.03125 L 76 75.96875 C 76 80.40625 72.4375 84 68.03125 84 L 31.96875 84 C 27.5625 84 24 80.40625 24 75.96875 Z M 24 28.03125 "/>
<path style=" stroke:none;fill-rule:evenodd;fill:rgb(54.901961%,54.901961%,54.901961%);fill-opacity:1;" d="M 52 8 L 52 33.53125 C 64.375 28.375 68 32 68 32 L 68 72.03125 C 68 74.21875 66.21875 76 64 76 L 36 76 C 33.78125 76 32 74.21875 32 72.03125 L 32 32 C 32 32 35.625 39.96875 48 35.25 L 48 8 Z M 52 8 "/>
<path style=" stroke:none;fill-rule:evenodd;fill:rgb(54.901961%,54.901961%,54.901961%);fill-opacity:1;" d="M 36 16 L 40 16 L 40 28 L 36 28 Z M 36 16 "/>
<path style=" stroke:none;fill-rule:evenodd;fill:rgb(54.901961%,54.901961%,54.901961%);fill-opacity:1;" d="M 60 16 L 64 16 L 64 28 L 60 28 Z M 60 16 "/>
</g>
</svg>
