<?xml version="1.0" encoding="UTF-8"?>
<svg xmlns="http://www.w3.org/2000/svg" xmlns:xlink="http://www.w3.org/1999/xlink" width="96pt" height="96pt" viewBox="0 0 96 96" version="1.1">
<g id="surface1">
<path style=" stroke:none;fill-rule:evenodd;fill:rgb(54.901961%,54.901961%,54.901961%);fill-opacity:1;" d="M 21 15.6875 C 14.34375 20.71875 7.53125 27.90625 7.28125 36.5 C 7.21875 38.5625 7.46875 40.90625 8.125 42.875 C 8.875 45.21875 9.90625 47.5 11.375 49.46875 C 12.4375 50.875 14.71875 53.03125 15.78125 54.15625 C 16.875 55.28125 30.21875 69.4375 33.90625 72.65625 C 37.59375 75.90625 43.5625 74.53125 46.3125 73.03125 C 48.84375 71.65625 50.40625 70.90625 53.84375 68.75 L 54.75 68.1875 L 55.03125 67.96875 L 61.59375 76.6875 C 62.59375 78.03125 64.65625 78.21875 66.375 77.15625 L 66.75 76.90625 C 68.40625 75.65625 69 73.625 68.1875 72.1875 L 67.96875 71.875 L 61.40625 63.15625 L 62.1875 62.59375 C 65.5 59.625 66.78125 58.28125 68.65625 56.3125 L 69.15625 55.8125 C 71.34375 53.59375 74.3125 48.25 72.21875 43.8125 C 71.28125 41.78125 68.71875 37.28125 66.15625 32.8125 L 65.0625 30.90625 C 62.3125 26.1875 59.78125 21.9375 59.40625 21.28125 C 58.625 19.9375 57.1875 17.15625 56.125 15.75 C 54.625 13.78125 52.71875 12.1875 50.6875 10.78125 C 48.96875 9.625 46.8125 8.75 44.78125 8.21875 C 36.46875 6.09375 27.65625 10.6875 21 15.6875 Z M 56.28125 49.21875 C 58.03125 47.875 60.5625 48.25 61.875 50 C 63.21875 51.78125 62.875 54.28125 61.09375 55.59375 C 59.34375 56.9375 56.8125 56.59375 55.5 54.8125 C 54.15625 53.0625 54.53125 50.53125 56.28125 49.21875 Z M 43.5 58.84375 C 45.28125 57.5 47.78125 57.875 49.09375 59.625 C 50.4375 61.40625 50.09375 63.90625 48.3125 65.21875 C 46.5625 66.5625 44.03125 66.21875 42.71875 64.4375 C 41.375 62.6875 41.75 60.1875 43.5 58.84375 Z M 32.53125 26.96875 C 33.875 25.9375 35.53125 24.6875 37.25 23.40625 L 38.71875 22.3125 C 42.125 19.8125 45.375 17.65625 46.1875 17.78125 C 47.71875 18.03125 61.1875 35.34375 61.125 36.90625 C 61.0625 37.96875 53.21875 44.28125 49 47.59375 L 47.96875 48.375 C 47.53125 48.75 47.15625 49.03125 46.875 49.25 C 46.59375 49.46875 46.21875 49.78125 45.75 50.125 L 44.75 50.90625 C 43.71875 51.71875 42.5 52.65625 41.1875 53.65625 L 39.875 54.65625 C 36.09375 57.46875 32.15625 60.25 31.4375 60.09375 C 29.875 59.78125 16.375 42.5 16.5 40.96875 C 16.59375 39.65625 24.375 33.40625 28.71875 29.96875 Z M 32.53125 26.96875 "/>
<path style=" stroke:none;fill-rule:evenodd;fill:rgb(30.196078%,30.196078%,30.196078%);fill-opacity:1;" d="M 80 88 C 84.40625 88 88 84.25 88 79.53125 C 88 74.96875 80.0625 64 80 64 C 79.9375 64 72 74.96875 72 79.53125 C 72 84.25 75.59375 88 80 88 Z M 80 88 "/>
</g>
</svg>
