<?xml version="1.0" encoding="UTF-8"?>
<svg xmlns="http://www.w3.org/2000/svg" xmlns:xlink="http://www.w3.org/1999/xlink" width="96pt" height="96pt" viewBox="0 0 96 96" version="1.1">
<g id="surface1">
<path style=" stroke:none;fill-rule:nonzero;fill:rgb(54.901961%,54.901961%,54.901961%);fill-opacity:1;" d="M 35.542969 4.472656 C 19.148438 11.179688 8 34.710938 8 55.75 C 8 77.320312 19.730469 89.175781 36.785156 91.917969 C 41.058594 92.613281 44.902344 88.851562 44.902344 83.820312 L 44.902344 12.199219 C 44.902344 6.558594 40.105469 2.59375 35.542969 4.472656 Z M 15.070312 45.914062 C 16.351562 45.507812 17.710938 46.285156 18.101562 47.632812 C 18.234375 48.101562 19.050781 49.1875 20.371094 49.65625 C 21.671875 50.105469 23.050781 49.800781 24.433594 48.714844 C 25.1875 48.125 26.003906 47.632812 26.859375 47.222656 C 26.453125 46.652344 25.695312 46.179688 24.335938 45.425781 C 21.285156 43.726562 16.683594 41.152344 18.003906 32.566406 C 18.214844 31.175781 19.460938 30.214844 20.78125 30.457031 C 22.101562 30.683594 22.996094 31.992188 22.78125 33.382812 C 22.199219 37.144531 23.089844 38.636719 24.761719 39.824219 C 25.65625 36.777344 27.171875 34.648438 29.328125 33.445312 C 30.027344 33.054688 30.742188 32.789062 31.441406 32.625 C 30.878906 31.644531 30.296875 30.5 29.675781 29.148438 C 26.511719 22.300781 31.460938 17.25 34.511719 15.535156 C 35.695312 14.878906 37.171875 15.351562 37.792969 16.597656 C 38.417969 17.84375 37.96875 19.378906 36.804688 20.050781 C 36.027344 20.5 32.21875 22.957031 34.046875 26.921875 C 36.53125 32.296875 38.300781 33.667969 38.320312 33.667969 C 39.445312 34.363281 39.796875 35.835938 39.191406 37.042969 C 38.570312 38.25 37.113281 38.699219 35.949219 38.105469 C 35.929688 38.105469 33.425781 36.917969 31.617188 37.941406 C 30.21875 38.738281 29.519531 40.679688 29.152344 42.480469 C 30.160156 43.257812 31.035156 44.28125 31.578125 45.648438 C 34.589844 45.054688 37.035156 45.179688 37.210938 45.179688 C 38.550781 45.261719 39.582031 46.445312 39.503906 47.859375 C 39.425781 49.269531 38.320312 50.371094 36.960938 50.269531 C 36.902344 50.269531 30.9375 49.984375 27.363281 52.785156 C 25.558594 54.195312 23.558594 54.933594 21.597656 54.933594 C 20.683594 54.933594 19.789062 54.789062 18.894531 54.480469 C 16.332031 53.582031 14.15625 51.414062 13.496094 49.085938 C 13.050781 47.753906 13.789062 46.324219 15.070312 45.914062 Z M 35.773438 84.25 C 35.714844 84.25 35.675781 84.25 35.621094 84.25 C 29.308594 83.820312 27.132812 78.464844 27.035156 78.21875 C 26.53125 76.910156 27.113281 75.417969 28.355469 74.886719 C 29.578125 74.355469 30.996094 74.96875 31.519531 76.234375 C 31.65625 76.542969 32.785156 78.933594 35.929688 79.140625 C 37.269531 79.21875 38.28125 80.449219 38.203125 81.859375 C 38.125 83.207031 37.054688 84.25 35.773438 84.25 Z M 37.328125 68.015625 C 38.628906 68.382812 39.386719 69.796875 39.039062 71.144531 C 38.6875 72.515625 37.347656 73.3125 36.066406 72.945312 C 32.21875 71.839844 26.703125 71.1875 22.257812 74.273438 C 21.847656 74.558594 21.382812 74.703125 20.917969 74.703125 C 20.121094 74.703125 19.363281 74.292969 18.894531 73.558594 C 18.15625 72.371094 18.46875 70.796875 19.574219 70.019531 C 21.558594 68.652344 23.65625 67.832031 25.753906 67.382812 C 21.128906 61.453125 16.722656 63.152344 16.664062 63.171875 C 15.417969 63.683594 14 63.027344 13.515625 61.71875 C 13.03125 60.410156 13.652344 58.917969 14.894531 58.40625 C 15.246094 58.265625 22.546875 55.402344 29.308594 63.847656 C 30.0625 60.410156 32.066406 56.875 36.433594 55.441406 C 37.71875 55.011719 39.078125 55.769531 39.484375 57.121094 C 39.890625 58.46875 39.171875 59.898438 37.890625 60.328125 C 34.433594 61.472656 33.8125 65.011719 33.773438 67.21875 C 35.015625 67.421875 36.222656 67.710938 37.328125 68.015625 Z M 37.328125 68.015625 "/>
<path style=" stroke:none;fill-rule:nonzero;fill:rgb(54.901961%,54.901961%,54.901961%);fill-opacity:1;" d="M 59.941406 4.472656 C 55.378906 2.59375 50.582031 6.558594 50.582031 12.199219 L 50.582031 83.828125 C 50.582031 88.835938 54.425781 92.597656 58.699219 91.921875 C 75.753906 89.160156 87.484375 77.304688 87.484375 55.738281 C 87.484375 34.707031 76.335938 11.175781 59.941406 4.472656 Z M 56.738281 42.371094 C 56.972656 42.308594 62.46875 40.777344 68.0625 45.152344 C 69.421875 46.214844 70.878906 46.460938 72.527344 45.886719 C 73.34375 45.601562 74.0625 45.152344 74.664062 44.679688 C 72.527344 43.71875 70.023438 42.066406 68.820312 39.347656 C 68.390625 38.386719 68.0625 37.097656 68.140625 35.503906 C 65.554688 35.910156 62.390625 35.789062 59.882812 33.644531 C 56.253906 30.554688 55.417969 24.6875 57.300781 15.714844 C 57.59375 14.347656 58.875 13.46875 60.195312 13.773438 C 61.496094 14.082031 62.332031 15.449219 62.039062 16.820312 C 60.640625 23.421875 60.972656 27.980469 62.933594 29.65625 C 64.644531 31.109375 67.691406 30.515625 69.558594 29.882812 C 69.632812 26.488281 66.953125 24.179688 66.816406 24.078125 C 65.769531 23.195312 65.59375 21.601562 66.410156 20.5 C 67.226562 19.394531 68.742188 19.191406 69.808594 20.050781 C 70.0625 20.253906 75.734375 24.976562 74.179688 32.230469 C 74.179688 32.253906 74.179688 32.253906 74.179688 32.273438 C 74.179688 32.292969 74.179688 32.3125 74.179688 32.335938 C 74.160156 32.4375 74.101562 32.5 74.082031 32.578125 C 74.023438 32.722656 74.003906 32.886719 73.925781 33.007812 C 72.527344 35.5625 73.054688 36.789062 73.246094 37.179688 C 74.160156 39.242188 77.65625 40.53125 79.191406 40.816406 C 79.871094 40.941406 80.472656 41.371094 80.820312 42.003906 C 81.191406 42.617188 81.269531 43.371094 81.074219 44.066406 C 80.316406 46.746094 77.285156 49.609375 74.0625 50.730469 C 72.996094 51.101562 71.925781 51.285156 70.878906 51.285156 C 68.859375 51.285156 66.894531 50.589844 65.167969 49.261719 C 61.515625 46.417969 58.136719 47.257812 58 47.296875 C 56.699219 47.644531 55.378906 46.828125 55.046875 45.476562 C 54.699219 44.128906 55.457031 42.738281 56.738281 42.371094 Z M 68.042969 77.859375 C 67.945312 78.101562 65.632812 83.804688 58.894531 84.257812 C 58.835938 84.257812 58.796875 84.257812 58.738281 84.257812 C 57.476562 84.257812 56.40625 83.214844 56.308594 81.863281 C 56.234375 80.453125 57.242188 79.246094 58.582031 79.144531 C 62.234375 78.898438 63.515625 75.976562 63.554688 75.855469 C 64.097656 74.585938 65.515625 73.996094 66.742188 74.527344 C 67.984375 75.117188 68.546875 76.570312 68.042969 77.859375 Z M 70.082031 63.015625 C 67.535156 62.425781 65.964844 60.625 65.128906 59.316406 C 63.398438 59.257812 62.097656 59.683594 61.300781 60.605469 C 60.078125 61.996094 59.824219 64.46875 59.882812 66.429688 C 64.777344 65.492188 70.898438 65.511719 76.257812 69.230469 C 77.382812 70.007812 77.675781 71.601562 76.9375 72.769531 C 76.472656 73.503906 75.695312 73.914062 74.917969 73.914062 C 74.453125 73.914062 73.984375 73.769531 73.578125 73.484375 C 68.683594 70.070312 62.621094 70.804688 58.40625 72.011719 C 57.765625 72.195312 57.085938 72.09375 56.503906 71.726562 C 55.941406 71.359375 55.535156 70.765625 55.398438 70.089844 C 55.222656 69.230469 53.785156 61.605469 57.726562 57.128906 C 59.84375 54.71875 62.953125 53.777344 66.933594 54.351562 C 67.789062 54.472656 68.507812 55.066406 68.839844 55.902344 C 68.839844 55.902344 69.613281 57.703125 71.128906 58.03125 C 72.625 58.355469 74.722656 57.273438 77.074219 55.003906 C 78.0625 54.0625 79.597656 54.125 80.511719 55.167969 C 81.425781 56.210938 81.347656 57.824219 80.355469 58.785156 C 76.703125 62.300781 73.226562 63.734375 70.082031 63.015625 Z M 70.082031 63.015625 "/>
</g>
</svg>
