<?xml version="1.0" encoding="UTF-8"?>
<svg xmlns="http://www.w3.org/2000/svg" xmlns:xlink="http://www.w3.org/1999/xlink" width="96pt" height="96pt" viewBox="0 0 96 96" version="1.1">
<g id="surface1">
<path style=" stroke:none;fill-rule:evenodd;fill:rgb(54.901961%,54.901961%,54.901961%);fill-opacity:1;" d="M 56.007812 8.175781 C 63.460938 9.484375 60.328125 15.773438 59.882812 16.039062 C 59.082031 16.574219 58.867188 17.648438 59.40625 18.441406 C 59.945312 19.238281 61.035156 19.457031 61.84375 18.933594 C 62.789062 18.328125 65.25 15.6875 63.894531 12.917969 C 65.832031 12.90625 70.351562 13.460938 72.535156 14.917969 C 76.683594 17.691406 76.457031 20.832031 76.683594 21.699219 C 72.308594 19.640625 68.667969 21.613281 67.128906 23.113281 C 65.648438 22.402344 64.023438 22.03125 62.375 22.027344 C 61.410156 22.058594 60.648438 22.847656 60.667969 23.796875 C 60.6875 24.746094 61.472656 25.503906 62.4375 25.503906 L 62.476562 25.503906 C 64.082031 25.5 65.628906 26.082031 66.824219 27.136719 C 67.910156 28.410156 68.398438 30.078125 68.164062 31.726562 C 68.136719 32.1875 68.296875 32.640625 68.609375 32.984375 C 68.921875 33.328125 69.359375 33.535156 69.828125 33.5625 L 69.929688 33.566406 C 70.867188 33.566406 71.636719 32.847656 71.691406 31.929688 C 71.933594 29.597656 71.285156 27.261719 69.875 25.378906 C 71.527344 23.113281 78.613281 23.847656 79.769531 25.894531 C 82.230469 29.652344 83.503906 36.042969 82.316406 38.769531 C 79.484375 37.9375 73.277344 36.546875 70.617188 37.816406 C 70.023438 38.144531 69.46875 38.539062 68.96875 38.988281 C 67.585938 39.628906 66.023438 39.765625 64.546875 39.382812 C 62.917969 38.753906 61.628906 37.488281 60.988281 35.890625 C 60.5625 35.023438 59.503906 34.664062 58.625 35.082031 C 57.746094 35.5 57.378906 36.539062 57.804688 37.40625 C 58.851562 39.871094 60.902344 41.789062 63.460938 42.691406 C 64.3125 42.957031 65.203125 43.09375 66.101562 43.089844 C 66.148438 43.089844 66.195312 43.082031 66.246094 43.082031 C 65.839844 44.148438 65.546875 45.25 65.367188 46.375 C 65.292969 46.832031 65.40625 47.296875 65.679688 47.667969 C 65.953125 48.042969 66.367188 48.292969 66.832031 48.367188 C 66.925781 48.382812 67.019531 48.390625 67.113281 48.390625 C 67.980469 48.386719 68.71875 47.769531 68.855469 46.925781 C 68.988281 44.488281 70.265625 42.25 72.308594 40.871094 C 74.550781 39.941406 76.703125 40.199219 79.332031 40.828125 C 81.964844 41.457031 85.199219 41.457031 87.003906 48.03125 C 87.003906 51.179688 85 54.347656 81.472656 57.125 C 81.660156 57.601562 83.472656 60.101562 83.1875 65.101562 C 82.898438 68.300781 80.570312 71.011719 79.769531 71.734375 C 74.96875 72.007812 71.570312 71.011719 70.445312 70.3125 C 71.726562 68.15625 72.167969 65.613281 71.679688 63.160156 C 71.546875 62.550781 71.09375 62.058594 70.496094 61.867188 C 69.894531 61.675781 69.234375 61.816406 68.765625 62.230469 C 68.296875 62.648438 68.089844 63.277344 68.222656 63.886719 C 68.554688 65.535156 68.222656 67.246094 67.292969 68.660156 C 66.019531 69.882812 64.242188 70.460938 62.476562 70.222656 L 62.429688 70.21875 C 61.460938 70.21875 60.675781 70.984375 60.660156 71.9375 C 60.648438 72.886719 61.417969 73.671875 62.382812 73.699219 L 62.8125 73.703125 C 64.480469 73.738281 66.132812 73.382812 67.636719 72.667969 C 69.148438 73.742188 74.214844 75.855469 76.429688 74.109375 C 76.1875 75.144531 75.835938 77.71875 73.617188 79.945312 C 71.917969 81.460938 69.46875 82.902344 63.417969 82.410156 C 61.246094 86.695312 57.804688 87.671875 56.738281 87.597656 C 53.78125 87.394531 52.9375 85.570312 52.101562 84.855469 L 52.101562 77.140625 C 52.089844 76.976562 52.058594 76.808594 52 76.652344 C 52.058594 76.496094 52.089844 76.332031 52.101562 76.164062 L 52 9.703125 C 52.808594 8.855469 53.828125 8.175781 56.007812 8.175781 Z M 62.738281 52.671875 C 60.199219 53.847656 58.347656 56.101562 57.707031 58.789062 C 57.519531 59.382812 57.671875 60.03125 58.097656 60.484375 C 58.527344 60.941406 59.171875 61.136719 59.785156 61 C 60.402344 60.863281 60.898438 60.414062 61.082031 59.820312 C 61.441406 58.132812 62.542969 56.691406 64.089844 55.886719 C 65.765625 55.378906 67.574219 55.519531 69.148438 56.273438 C 70.015625 56.710938 71.082031 56.375 71.527344 55.519531 C 71.96875 54.664062 71.625 53.617188 70.757812 53.179688 C 68.261719 51.960938 65.371094 51.78125 62.738281 52.671875 Z M 62.738281 52.671875 "/>
<path style=" stroke:none;fill-rule:evenodd;fill:rgb(54.901961%,54.901961%,54.901961%);fill-opacity:1;" d="M 33.921875 52.941406 C 31.289062 52.050781 28.398438 52.234375 25.902344 53.449219 C 25.035156 53.886719 24.691406 54.9375 25.136719 55.789062 C 25.585938 56.644531 26.648438 56.980469 27.519531 56.542969 C 29.085938 55.792969 30.886719 55.652344 32.554688 56.148438 C 34.109375 56.953125 35.21875 58.398438 35.578125 60.089844 C 35.765625 60.683594 36.257812 61.132812 36.875 61.269531 C 37.492188 61.410156 38.132812 61.210938 38.5625 60.757812 C 38.992188 60.300781 39.140625 59.652344 38.953125 59.0625 C 38.316406 56.371094 36.460938 54.117188 33.921875 52.941406 Z M 33.921875 52.941406 "/>
<path style=" stroke:none;fill-rule:evenodd;fill:rgb(54.901961%,54.901961%,54.901961%);fill-opacity:1;" d="M 47.683594 10.515625 C 45.914062 8.253906 41.746094 7.980469 38.851562 8.199219 C 36.03125 8.597656 33.675781 10.527344 32.765625 13.1875 C 30.300781 13.179688 25.691406 13.566406 22.707031 16.277344 C 21.082031 17.753906 20.105469 19.796875 19.976562 21.96875 C 17.5 23.03125 15.476562 24.902344 14.246094 27.265625 C 12.628906 30.488281 12.660156 34.445312 14.34375 39.039062 C 11.546875 41.355469 9.851562 44.707031 9.65625 48.300781 C 9.726562 51.601562 11.585938 54.65625 15.191406 57.398438 C 13.578125 60.1875 13.03125 63.449219 13.65625 66.601562 C 14.617188 69.996094 17.011719 72.828125 20.230469 74.378906 C 20.417969 76.632812 21.449219 78.742188 23.121094 80.292969 C 25.433594 82.359375 28.828125 83.160156 33.242188 82.679688 C 34.476562 85.21875 36.785156 87.089844 39.554688 87.789062 C 39.886719 87.84375 40.21875 87.871094 40.554688 87.871094 C 42.753906 87.746094 46.175781 86.394531 47.683594 84.8125 C 47.683594 84.8125 47.683594 10.515625 47.683594 10.515625 Z M 40.121094 84.355469 C 38 84.027344 36.351562 81.183594 35.894531 80.121094 C 35.582031 79.375 34.789062 78.941406 33.980469 79.070312 C 30.078125 79.6875 27.226562 79.242188 25.523438 77.742188 C 24.722656 77.011719 24.164062 76.058594 23.921875 75.007812 C 25.761719 74.722656 27.511719 74.011719 29.023438 72.9375 C 30.527344 73.652344 32.179688 74.007812 33.847656 73.972656 C 33.988281 73.972656 34.132812 73.972656 34.277344 73.96875 C 35.253906 73.941406 36.023438 73.144531 35.996094 72.183594 C 35.957031 71.230469 35.152344 70.480469 34.183594 70.492188 C 32.425781 70.722656 30.65625 70.152344 29.378906 68.945312 C 28.441406 67.527344 28.105469 65.808594 28.441406 64.148438 C 28.640625 63.210938 28.027344 62.292969 27.074219 62.09375 C 26.121094 61.894531 25.1875 62.492188 24.980469 63.429688 C 24.492188 65.882812 24.933594 68.425781 26.214844 70.582031 C 25.085938 71.277344 23.773438 71.628906 22.441406 71.59375 C 19.890625 70.523438 17.9375 68.410156 17.097656 65.808594 C 16.679688 63.050781 17.351562 60.238281 18.972656 57.953125 C 19.257812 57.570312 19.371094 57.089844 19.289062 56.625 C 19.207031 56.160156 18.933594 55.746094 18.535156 55.480469 C 15.046875 53.171875 13.25 50.738281 13.191406 48.242188 C 13.105469 44.664062 16.554688 41.714844 17.328125 41.09375 C 19.585938 40.199219 22.109375 40.214844 24.355469 41.140625 C 26.398438 42.523438 27.671875 44.757812 27.804688 47.195312 C 27.941406 48.039062 28.679688 48.660156 29.546875 48.660156 C 29.640625 48.660156 29.734375 48.652344 29.828125 48.636719 C 30.792969 48.484375 31.449219 47.59375 31.292969 46.644531 C 31.117188 45.523438 30.820312 44.417969 30.417969 43.351562 C 30.464844 43.355469 30.511719 43.359375 30.5625 43.359375 C 31.457031 43.363281 32.347656 43.230469 33.203125 42.960938 C 35.757812 42.058594 37.8125 40.140625 38.859375 37.675781 C 39.28125 36.8125 38.914062 35.769531 38.035156 35.351562 C 37.15625 34.933594 36.101562 35.296875 35.675781 36.160156 C 35.035156 37.75 33.757812 39.011719 32.140625 39.644531 C 30.65625 40.035156 29.082031 39.898438 27.6875 39.257812 C 27.1875 38.808594 26.636719 38.414062 26.046875 38.085938 C 23.386719 36.816406 20.339844 36.574219 17.507812 37.40625 C 16.320312 34.679688 16.28125 31.601562 17.394531 28.84375 C 18.402344 26.960938 20.113281 25.53125 22.171875 24.859375 C 22.203125 24.847656 22.230469 24.828125 22.265625 24.816406 C 22.289062 24.808594 22.316406 24.8125 22.339844 24.804688 C 23.871094 24.308594 25.554688 24.628906 26.785156 25.648438 C 25.375 27.535156 24.726562 29.867188 24.96875 32.199219 C 25.023438 33.117188 25.796875 33.835938 26.730469 33.835938 C 26.765625 33.835938 26.800781 33.835938 26.835938 33.832031 C 27.300781 33.808594 27.742188 33.597656 28.050781 33.253906 C 28.363281 32.910156 28.523438 32.457031 28.496094 31.996094 C 28.261719 30.347656 28.75 28.679688 29.835938 27.40625 C 31.027344 26.359375 32.566406 25.777344 34.160156 25.773438 C 34.296875 25.769531 34.214844 25.773438 34.230469 25.773438 C 35.199219 25.773438 35.984375 25.011719 36 24.0625 C 36.015625 23.113281 35.253906 22.324219 34.289062 22.296875 C 32.636719 22.296875 31.011719 22.671875 29.53125 23.382812 C 27.992188 21.878906 25.902344 21.058594 23.734375 21.101562 C 23.964844 20.238281 24.4375 19.453125 25.097656 18.839844 C 27.203125 16.917969 30.832031 16.65625 32.765625 16.664062 C 33.152344 17.707031 33.871094 18.597656 34.816406 19.203125 C 35.628906 19.726562 36.71875 19.507812 37.257812 18.714844 C 37.796875 17.917969 37.582031 16.84375 36.777344 16.308594 C 36.332031 16.042969 36.046875 15.582031 36.011719 15.074219 C 36.011719 15.042969 36.003906 15.011719 36 14.976562 C 35.996094 14.796875 36.015625 14.617188 36.058594 14.441406 C 36.492188 12.945312 37.785156 11.84375 39.351562 11.644531 C 41.78125 11.3125 43.277344 13.730469 43.953125 14.699219 L 43.953125 82.476562 C 42.914062 83.878906 41.882812 84.300781 40.121094 84.355469 Z M 40.121094 84.355469 "/>
</g>
</svg>
