<?xml version="1.0" encoding="UTF-8"?>
<svg xmlns="http://www.w3.org/2000/svg" xmlns:xlink="http://www.w3.org/1999/xlink" width="96pt" height="96pt" viewBox="0 0 96 96" version="1.1">
<g id="surface1">
<path style=" stroke:none;fill-rule:nonzero;fill:rgb(54.901961%,54.901961%,54.901961%);fill-opacity:1;" d="M 43.507812 22.09375 C 30.539062 27.074219 21.894531 44.597656 21.894531 60.28125 C 20.84375 74.011719 30.929688 86.035156 44.503906 87.242188 C 46.171875 87.417969 47.835938 86.855469 49.0625 85.699219 C 50.289062 84.542969 50.960938 82.90625 50.898438 81.210938 L 50.898438 27.863281 C 51.003906 25.976562 50.183594 24.164062 48.707031 23.011719 C 47.230469 21.859375 45.285156 21.515625 43.507812 22.09375 Z M 27.210938 52.941406 C 28.222656 52.65625 29.277344 53.238281 29.585938 54.253906 C 29.96875 54.976562 30.625 55.511719 31.402344 55.738281 C 32.519531 56.078125 33.726562 55.8125 34.601562 55.039062 C 35.203125 54.617188 35.839844 54.25 36.503906 53.945312 C 35.945312 53.355469 35.269531 52.894531 34.515625 52.59375 C 30.675781 51.171875 28.550781 47.011719 29.632812 43.023438 C 29.917969 42.085938 30.839844 41.507812 31.796875 41.660156 C 32.753906 41.8125 33.453125 42.65625 33.433594 43.636719 C 32.960938 46.429688 33.433594 47.523438 34.992188 48.441406 C 35.484375 46.421875 36.78125 44.695312 38.578125 43.679688 C 39.085938 43.40625 39.621094 43.199219 40.179688 43.066406 C 39.746094 42.324219 39.269531 41.492188 38.796875 40.488281 C 37.941406 38.640625 37.863281 36.519531 38.578125 34.609375 C 39.296875 32.699219 40.746094 31.164062 42.601562 30.351562 C 43.042969 30.09375 43.574219 30.03125 44.066406 30.179688 C 44.554688 30.328125 44.964844 30.675781 45.195312 31.140625 C 45.671875 32.070312 45.328125 33.214844 44.414062 33.714844 C 43.808594 34.023438 40.785156 35.859375 42.253906 38.828125 C 42.996094 40.734375 44.148438 42.453125 45.625 43.851562 C 46.476562 44.367188 46.78125 45.460938 46.316406 46.34375 C 45.789062 47.253906 44.660156 47.59375 43.722656 47.128906 C 42.632812 46.65625 41.398438 46.65625 40.308594 47.128906 C 39.226562 47.929688 38.523438 49.148438 38.363281 50.496094 C 39.21875 51.078125 39.894531 51.898438 40.308594 52.855469 C 41.734375 52.589844 43.183594 52.472656 44.632812 52.503906 C 45.371094 52.390625 46.109375 52.726562 46.515625 53.363281 C 46.921875 53.996094 46.921875 54.8125 46.515625 55.449219 C 46.109375 56.085938 45.371094 56.417969 44.632812 56.304688 C 41.96875 56.1875 39.332031 56.839844 37.023438 58.183594 C 35.773438 59.140625 34.265625 59.691406 32.699219 59.757812 C 31.980469 59.773438 31.261719 59.65625 30.582031 59.40625 C 28.597656 58.828125 26.996094 57.339844 26.257812 55.386719 C 26.058594 54.9375 26.046875 54.421875 26.222656 53.960938 C 26.402344 53.5 26.757812 53.132812 27.210938 52.941406 Z M 43.550781 81.515625 C 40.671875 81.417969 38.070312 79.746094 36.765625 77.148438 C 36.582031 76.671875 36.589844 76.144531 36.792969 75.675781 C 36.996094 75.207031 37.375 74.84375 37.84375 74.65625 C 38.800781 74.285156 39.878906 74.722656 40.308594 75.660156 C 41.035156 76.941406 42.351562 77.761719 43.808594 77.847656 C 44.316406 77.867188 44.789062 78.09375 45.128906 78.46875 C 45.472656 78.847656 45.648438 79.347656 45.625 79.855469 C 45.476562 80.820312 44.648438 81.527344 43.679688 81.515625 Z M 44.804688 69.414062 C 45.542969 69.507812 46.160156 70.027344 46.386719 70.746094 C 46.609375 71.464844 46.394531 72.25 45.84375 72.75 C 45.289062 73.253906 44.492188 73.382812 43.808594 73.082031 C 40.1875 71.859375 36.21875 72.222656 32.875 74.089844 C 32.566406 74.292969 32.203125 74.402344 31.835938 74.394531 C 31.199219 74.40625 30.597656 74.09375 30.234375 73.566406 C 29.652344 72.683594 29.882812 71.492188 30.753906 70.898438 C 32.320312 69.925781 34.050781 69.257812 35.855469 68.933594 C 32.183594 64.5625 28.722656 65.789062 28.679688 65.832031 C 27.691406 66.195312 26.589844 65.714844 26.171875 64.738281 C 25.808594 63.761719 26.265625 62.667969 27.210938 62.25 C 31.480469 61.015625 36.058594 62.644531 38.621094 66.3125 C 39.195312 63.332031 41.363281 60.921875 44.242188 60.0625 C 44.910156 59.746094 45.699219 59.84375 46.269531 60.316406 C 46.835938 60.792969 47.082031 61.558594 46.898438 62.28125 C 46.714844 63 46.136719 63.550781 45.410156 63.691406 C 43.300781 64.472656 41.972656 66.585938 42.167969 68.84375 C 43.074219 68.976562 44.027344 69.195312 44.933594 69.414062 Z M 44.804688 69.414062 "/>
<path style=" stroke:none;fill-rule:nonzero;fill:rgb(54.901961%,54.901961%,54.901961%);fill-opacity:1;" d="M 62.628906 22.09375 C 60.863281 21.515625 58.929688 21.859375 57.460938 23.011719 C 55.992188 24.164062 55.179688 25.976562 55.28125 27.863281 L 55.28125 81.210938 C 55.222656 82.90625 55.890625 84.542969 57.109375 85.699219 C 58.328125 86.855469 59.984375 87.417969 61.640625 87.242188 C 75.203125 86.125 85.328125 74.074219 84.289062 60.28125 C 84.289062 44.597656 75.523438 27.074219 62.628906 22.09375 Z M 60.09375 50.144531 C 63.210938 49.507812 66.449219 50.253906 68.992188 52.199219 C 69.984375 53.007812 71.324219 53.222656 72.515625 52.765625 C 73.117188 52.550781 73.683594 52.242188 74.191406 51.847656 C 72.234375 51.132812 70.601562 49.71875 69.59375 47.875 C 69.191406 46.984375 69.015625 46.007812 69.078125 45.03125 C 66.816406 45.515625 64.460938 45.007812 62.585938 43.636719 C 59.75 41.40625 59.0625 37.039062 60.566406 30.484375 C 60.714844 29.8125 61.199219 29.269531 61.84375 29.0625 C 62.488281 28.855469 63.195312 29.015625 63.691406 29.480469 C 64.191406 29.941406 64.410156 30.640625 64.261719 31.3125 C 63.1875 36.207031 63.445312 39.617188 64.996094 40.839844 C 66.640625 41.628906 68.546875 41.628906 70.195312 40.839844 C 70.121094 39.136719 69.339844 37.550781 68.046875 36.46875 C 67.648438 36.164062 67.386719 35.710938 67.320312 35.210938 C 67.257812 34.707031 67.394531 34.203125 67.703125 33.804688 C 68.398438 33.117188 69.496094 33.078125 70.238281 33.714844 C 72.96875 35.832031 74.296875 39.328125 73.675781 42.761719 L 73.675781 43.066406 C 72.558594 44.988281 72.988281 45.90625 73.117188 46.210938 C 74.289062 47.683594 75.960938 48.648438 77.800781 48.921875 C 78.332031 49.011719 78.804688 49.332031 79.089844 49.796875 C 79.328125 50.277344 79.328125 50.84375 79.089844 51.324219 C 78.085938 53.742188 76.066406 55.570312 73.589844 56.304688 C 72.78125 56.5625 71.941406 56.691406 71.097656 56.699219 C 69.542969 56.65625 68.039062 56.121094 66.800781 55.167969 C 65.207031 53.90625 63.160156 53.382812 61.167969 53.726562 C 60.683594 53.863281 60.167969 53.792969 59.734375 53.539062 C 59.296875 53.285156 58.980469 52.867188 58.847656 52.375 C 58.601562 51.410156 59.152344 50.421875 60.09375 50.144531 Z M 68.992188 76.578125 C 67.621094 79.472656 64.796875 81.367188 61.640625 81.515625 C 60.71875 81.375 60.035156 80.566406 60.035156 79.617188 C 60.035156 78.664062 60.71875 77.859375 61.640625 77.714844 C 63.285156 77.683594 64.785156 76.746094 65.554688 75.269531 C 65.984375 74.308594 67.082031 73.863281 68.046875 74.261719 C 68.96875 74.699219 69.386719 75.800781 68.992188 76.753906 Z M 70.582031 65.523438 C 68.992188 65.140625 67.609375 64.15625 66.714844 62.773438 C 65.621094 62.621094 64.515625 62.972656 63.703125 63.734375 C 62.824219 65.003906 62.425781 66.558594 62.585938 68.101562 C 66.992188 67.089844 71.609375 67.839844 75.480469 70.199219 C 75.898438 70.46875 76.195312 70.898438 76.300781 71.390625 C 76.40625 71.882812 76.3125 72.398438 76.039062 72.820312 C 75.683594 73.363281 75.089844 73.691406 74.449219 73.695312 C 74.066406 73.6875 73.691406 73.566406 73.375 73.347656 C 69.753906 71.417969 65.519531 71.070312 61.640625 72.382812 C 61.039062 72.558594 60.394531 72.410156 59.921875 71.992188 C 59.488281 71.738281 59.175781 71.308594 59.0625 70.8125 C 58.238281 67.472656 58.914062 63.933594 60.910156 61.15625 C 62.8125 59.257812 65.53125 58.46875 68.132812 59.058594 C 68.808594 59.140625 69.386719 59.59375 69.636719 60.238281 C 69.996094 60.996094 70.648438 61.566406 71.441406 61.8125 C 72.601562 62.074219 74.234375 61.242188 76.082031 59.539062 C 76.835938 58.789062 78.039062 58.789062 78.789062 59.539062 C 79.152344 59.894531 79.355469 60.382812 79.355469 60.894531 C 79.355469 61.40625 79.152344 61.894531 78.789062 62.25 C 76.792969 64.722656 73.710938 66.015625 70.582031 65.699219 Z M 70.582031 65.523438 "/>
<path style=" stroke:none;fill-rule:nonzero;fill:rgb(54.901961%,54.901961%,54.901961%);fill-opacity:1;" d="M 32 20.136719 L 29.195312 20.136719 L 31.429688 17.871094 L 30.289062 16.71875 L 26.957031 20.136719 L 20.90625 20.136719 L 23.230469 14.230469 L 27.617188 12.457031 L 26.957031 10.859375 L 24.285156 11.96875 L 25.378906 9.480469 L 23.800781 8.816406 L 22.925781 11.65625 L 21.785156 8.726562 L 20.25 9.394531 L 22.046875 13.832031 L 19.59375 19.46875 L 16.214844 14.230469 L 17.136719 9.480469 L 15.558594 9.039062 L 14.902344 11.96875 L 13.542969 9.703125 L 12.445312 10.859375 L 13.761719 13.121094 L 10.648438 12.457031 L 10.078125 14.011719 L 14.769531 15.164062 L 18.015625 20.535156 L 12.183594 20.535156 L 8.851562 16.984375 L 7.753906 18.09375 L 10.078125 20.535156 L 7.273438 20.535156 L 7.273438 22.132812 L 9.726562 22.132812 L 7.753906 24.398438 L 8.851562 25.507812 L 12.183594 22.132812 L 18.453125 22.132812 L 15.996094 27.59375 L 11.746094 29.414062 L 12.445312 30.96875 L 15.339844 29.859375 L 14.199219 32.34375 L 15.777344 33.011719 L 16.875 30.523438 L 18.015625 33.453125 L 19.59375 32.789062 L 17.796875 28.347656 L 20.25 22.933594 L 23.230469 27.816406 L 22.355469 32.257812 L 23.890625 32.699219 L 24.589844 29.769531 L 25.90625 32.035156 L 27.617188 31.191406 L 26.257812 28.925781 L 29.414062 29.636719 L 29.851562 28.039062 L 24.941406 26.929688 L 21.785156 21.957031 L 27.617188 21.957031 L 30.949219 25.332031 L 32 24.21875 L 29.984375 21.957031 L 32 21.957031 Z M 32 20.136719 "/>
</g>
</svg>
