<?xml version="1.0" encoding="UTF-8"?>
<svg xmlns="http://www.w3.org/2000/svg" xmlns:xlink="http://www.w3.org/1999/xlink" width="96pt" height="96pt" viewBox="0 0 96 96" version="1.1">
<g id="surface1">
<path style=" stroke:none;fill-rule:nonzero;fill:rgb(54.901961%,54.901961%,54.901961%);fill-opacity:1;" d="M 38.230469 23.550781 C 24.609375 28.53125 15.53125 46.050781 15.53125 61.738281 C 14.433594 75.464844 25.019531 87.488281 39.273438 88.695312 C 41.023438 88.875 42.769531 88.3125 44.058594 87.15625 C 45.347656 85.996094 46.054688 84.359375 45.992188 82.664062 L 45.992188 29.316406 C 46.101562 27.433594 45.238281 25.617188 43.6875 24.464844 C 42.136719 23.3125 40.09375 22.96875 38.230469 23.550781 Z M 21.117188 54.394531 C 22.179688 54.113281 23.285156 54.691406 23.613281 55.707031 C 24.011719 56.429688 24.699219 56.96875 25.519531 57.191406 C 26.6875 57.53125 27.957031 57.269531 28.878906 56.492188 C 29.507812 56.070312 30.175781 55.707031 30.875 55.402344 C 30.289062 54.808594 29.578125 54.347656 28.789062 54.046875 C 24.753906 52.625 22.523438 48.464844 23.65625 44.476562 C 23.957031 43.542969 24.925781 42.960938 25.929688 43.113281 C 26.9375 43.269531 27.667969 44.109375 27.652344 45.089844 C 27.152344 47.886719 27.652344 48.976562 29.285156 49.894531 C 29.804688 47.875 31.167969 46.148438 33.054688 45.132812 C 33.585938 44.859375 34.148438 44.65625 34.734375 44.523438 C 34.28125 43.777344 33.78125 42.949219 33.28125 41.945312 C 32.382812 40.09375 32.300781 37.972656 33.054688 36.0625 C 33.804688 34.152344 35.328125 32.617188 37.277344 31.808594 C 37.742188 31.546875 38.296875 31.484375 38.8125 31.632812 C 39.328125 31.78125 39.757812 32.128906 40 32.59375 C 40.503906 33.523438 40.140625 34.671875 39.183594 35.171875 C 38.546875 35.476562 35.367188 37.3125 36.914062 40.285156 C 37.691406 42.191406 38.898438 43.90625 40.453125 45.308594 C 41.34375 45.820312 41.664062 46.914062 41.179688 47.796875 C 40.625 48.707031 39.4375 49.050781 38.457031 48.585938 C 37.3125 48.109375 36.015625 48.109375 34.871094 48.585938 C 33.734375 49.386719 32.996094 50.605469 32.828125 51.949219 C 33.726562 52.535156 34.433594 53.351562 34.871094 54.308594 C 36.367188 54.046875 37.886719 53.929688 39.410156 53.960938 C 40.1875 53.84375 40.960938 54.179688 41.386719 54.816406 C 41.8125 55.453125 41.8125 56.269531 41.386719 56.902344 C 40.960938 57.539062 40.1875 57.875 39.410156 57.761719 C 36.613281 57.644531 33.84375 58.292969 31.421875 59.640625 C 30.109375 60.597656 28.523438 61.144531 26.882812 61.210938 C 26.125 61.226562 25.371094 61.109375 24.65625 60.863281 C 22.570312 60.285156 20.890625 58.796875 20.117188 56.84375 C 19.90625 56.390625 19.894531 55.878906 20.082031 55.417969 C 20.269531 54.957031 20.640625 54.589844 21.117188 54.394531 Z M 38.273438 82.972656 C 35.25 82.875 32.519531 81.199219 31.148438 78.601562 C 30.953125 78.125 30.964844 77.597656 31.179688 77.128906 C 31.390625 76.664062 31.789062 76.296875 32.28125 76.109375 C 33.285156 75.738281 34.417969 76.179688 34.871094 77.117188 C 35.632812 78.394531 37.015625 79.21875 38.546875 79.300781 C 39.078125 79.324219 39.574219 79.546875 39.933594 79.925781 C 40.289062 80.300781 40.476562 80.800781 40.453125 81.3125 C 40.296875 82.277344 39.425781 82.984375 38.410156 82.972656 Z M 39.589844 70.867188 C 40.367188 70.960938 41.015625 71.480469 41.25 72.199219 C 41.484375 72.917969 41.261719 73.703125 40.679688 74.207031 C 40.097656 74.710938 39.265625 74.839844 38.546875 74.539062 C 34.742188 73.3125 30.574219 73.675781 27.0625 75.542969 C 26.738281 75.75 26.359375 75.855469 25.972656 75.847656 C 25.304688 75.859375 24.671875 75.550781 24.292969 75.019531 C 23.679688 74.136719 23.925781 72.945312 24.839844 72.355469 C 26.480469 71.382812 28.296875 70.714844 30.195312 70.386719 C 26.335938 66.019531 22.703125 67.242188 22.660156 67.285156 C 21.621094 67.648438 20.464844 67.171875 20.027344 66.191406 C 19.644531 65.214844 20.125 64.121094 21.117188 63.703125 C 25.601562 62.46875 30.40625 64.101562 33.097656 67.765625 C 33.699219 64.785156 35.976562 62.375 39 61.519531 C 39.699219 61.199219 40.53125 61.296875 41.125 61.773438 C 41.722656 62.246094 41.984375 63.011719 41.789062 63.734375 C 41.597656 64.457031 40.988281 65.007812 40.226562 65.144531 C 38.011719 65.925781 36.617188 68.039062 36.820312 70.300781 C 37.773438 70.429688 38.773438 70.648438 39.726562 70.867188 Z M 39.589844 70.867188 "/>
<path style=" stroke:none;fill-rule:nonzero;fill:rgb(54.901961%,54.901961%,54.901961%);fill-opacity:1;" d="M 27.636719 21.589844 L 24.832031 21.589844 L 27.066406 19.328125 L 25.925781 18.171875 L 22.59375 21.589844 L 16.542969 21.589844 L 18.867188 15.6875 L 23.253906 13.910156 L 22.59375 12.3125 L 19.921875 13.421875 L 21.015625 10.9375 L 19.4375 10.269531 L 18.5625 13.113281 L 17.421875 10.183594 L 15.886719 10.847656 L 17.683594 15.285156 L 15.230469 20.925781 L 11.851562 15.6875 L 12.773438 10.9375 L 11.195312 10.492188 L 10.539062 13.421875 L 9.179688 11.160156 L 8.082031 12.3125 L 9.398438 14.578125 L 6.285156 13.910156 L 5.714844 15.464844 L 10.40625 16.617188 L 13.652344 21.992188 L 7.820312 21.992188 L 4.488281 18.4375 L 3.390625 19.550781 L 5.714844 21.992188 L 2.910156 21.992188 L 2.910156 23.589844 L 5.363281 23.589844 L 3.390625 25.851562 L 4.488281 26.960938 L 7.820312 23.589844 L 14.089844 23.589844 L 11.632812 29.050781 L 7.382812 30.871094 L 8.082031 32.421875 L 10.976562 31.3125 L 9.835938 33.800781 L 11.414062 34.464844 L 12.511719 31.980469 L 13.652344 34.910156 L 15.230469 34.242188 L 13.429688 29.804688 L 15.886719 24.386719 L 18.867188 29.269531 L 17.992188 33.710938 L 19.527344 34.15625 L 20.226562 31.222656 L 21.542969 33.488281 L 23.253906 32.644531 L 21.894531 30.382812 L 25.050781 31.089844 L 25.488281 29.492188 L 20.578125 28.382812 L 17.421875 23.410156 L 23.253906 23.410156 L 26.585938 26.785156 L 27.636719 25.675781 L 25.621094 23.410156 L 27.636719 23.410156 Z M 27.636719 21.589844 "/>
<path style=" stroke:none;fill-rule:nonzero;fill:rgb(54.901961%,54.901961%,54.901961%);fill-opacity:1;" d="M 71.839844 36.378906 L 67.847656 36.378906 L 67.847656 31.851562 C 64.753906 28.191406 61.152344 25.339844 56.632812 23.550781 C 54.78125 22.96875 52.75 23.3125 51.207031 24.464844 C 49.667969 25.617188 48.808594 27.433594 48.917969 29.316406 L 48.917969 82.664062 C 48.855469 84.359375 49.554688 85.996094 50.835938 87.15625 C 52.117188 88.3125 53.855469 88.875 55.597656 88.695312 C 69.835938 87.582031 80.46875 75.53125 79.378906 61.738281 C 79.28125 53.386719 76.964844 45.039062 72.652344 37.804688 Z M 63.3125 78.207031 C 61.824219 81.035156 58.871094 82.859375 55.597656 82.972656 C 54.625 82.828125 53.910156 82.019531 53.910156 81.070312 C 53.910156 80.121094 54.625 79.3125 55.597656 79.167969 C 57.324219 79.140625 58.898438 78.203125 59.703125 76.722656 C 60.15625 75.761719 61.3125 75.316406 62.320312 75.71875 C 63.289062 76.152344 63.730469 77.253906 63.3125 78.207031 Z M 73.648438 64.007812 C 71.515625 66.328125 68.351562 67.5 65.164062 67.15625 C 63.496094 66.769531 62.042969 65.785156 61.101562 64.402344 C 59.953125 64.25 58.796875 64.601562 57.941406 65.363281 C 57.019531 66.632812 56.601562 68.1875 56.769531 69.730469 C 61.394531 68.71875 66.242188 69.46875 70.308594 71.828125 C 70.75 72.097656 71.058594 72.527344 71.167969 73.019531 C 71.28125 73.515625 71.179688 74.03125 70.894531 74.449219 C 70.519531 74.992188 69.894531 75.320312 69.222656 75.324219 C 68.820312 75.316406 68.429688 75.195312 68.097656 74.976562 C 64.269531 72.941406 59.746094 72.53125 55.597656 73.839844 C 54.964844 74.011719 54.285156 73.863281 53.792969 73.445312 C 53.335938 73.191406 53.007812 72.765625 52.890625 72.265625 C 52.023438 68.929688 52.734375 65.390625 54.828125 62.609375 C 56.828125 60.710938 59.679688 59.921875 62.410156 60.511719 C 63.121094 60.59375 63.730469 61.046875 63.988281 61.691406 C 64.367188 62.449219 65.054688 63.019531 65.886719 63.265625 C 67.105469 63.527344 68.820312 62.699219 70.757812 60.992188 C 71.546875 60.246094 72.8125 60.246094 73.601562 60.992188 C 74.097656 61.339844 74.398438 61.894531 74.40625 62.488281 C 74.414062 63.085938 74.132812 63.648438 73.648438 64.007812 Z M 74.234375 53.042969 C 73.175781 55.457031 71.058594 57.285156 68.457031 58.023438 C 67.609375 58.277344 66.726562 58.410156 65.839844 58.414062 C 64.207031 58.371094 62.632812 57.839844 61.328125 56.886719 C 59.65625 55.621094 57.507812 55.097656 55.417969 55.445312 C 54.90625 55.578125 54.363281 55.511719 53.90625 55.257812 C 53.449219 55.003906 53.117188 54.582031 52.980469 54.089844 C 52.828125 53.609375 52.886719 53.089844 53.144531 52.652344 C 53.398438 52.214844 53.828125 51.894531 54.332031 51.773438 C 57.605469 51.136719 61.007812 51.882812 63.675781 53.828125 C 64.71875 54.636719 66.125 54.851562 67.375 54.394531 C 68.007812 54.179688 68.601562 53.871094 69.132812 53.476562 C 67.082031 52.761719 65.367188 51.347656 64.304688 49.503906 C 63.886719 48.613281 63.699219 47.636719 63.765625 46.664062 C 61.390625 47.144531 58.917969 46.636719 56.949219 45.265625 C 53.613281 42.859375 52.890625 38.492188 54.46875 31.9375 C 54.621094 31.265625 55.132812 30.726562 55.808594 30.519531 C 56.488281 30.3125 57.226562 30.46875 57.75 30.933594 C 58.273438 31.398438 58.503906 32.097656 58.347656 32.769531 C 57.222656 37.660156 57.492188 41.070312 59.117188 42.292969 C 60.84375 43.082031 62.847656 43.082031 64.578125 42.292969 C 64.5 40.59375 63.679688 39.003906 62.320312 37.925781 C 61.902344 37.621094 61.628906 37.167969 61.558594 36.664062 C 61.492188 36.164062 61.636719 35.65625 61.960938 35.257812 C 62.691406 34.570312 63.84375 34.535156 64.621094 35.171875 C 67.488281 37.285156 68.882812 40.78125 68.230469 44.214844 L 68.230469 44.523438 C 67.058594 46.445312 67.511719 47.363281 67.644531 47.667969 C 68.875 49.136719 70.628906 50.105469 72.5625 50.375 C 73.125 50.46875 73.617188 50.785156 73.917969 51.25 C 74.308594 51.773438 74.363281 52.46875 74.054688 53.042969 Z M 74.234375 53.042969 "/>
<path style=" stroke:none;fill-rule:nonzero;fill:rgb(54.901961%,54.901961%,54.901961%);fill-opacity:1;" d="M 88.328125 10.222656 L 79.269531 10.222656 C 78.09375 10.046875 76.910156 10.457031 76.082031 11.320312 C 75.25 12.183594 74.882812 13.398438 75.082031 14.585938 L 75.140625 24.726562 C 75.144531 29 79.28125 32.578125 83.472656 32.949219 C 83.472656 34.414062 82.804688 37.539062 80.621094 37.539062 C 78.988281 37.539062 78.398438 36.636719 77.472656 34.980469 C 76.917969 33.726562 76.015625 32.667969 74.878906 31.933594 C 73.523438 31.578125 72.121094 31.460938 70.726562 31.59375 L 70.726562 33.476562 C 71.785156 33.347656 72.855469 33.347656 73.914062 33.476562 C 74.753906 34.03125 75.414062 34.832031 75.804688 35.769531 C 76.585938 37.933594 78.648438 39.347656 80.917969 39.269531 C 84.363281 39.269531 85.472656 35.507812 85.621094 32.761719 C 89.585938 32.128906 92.507812 28.667969 92.515625 24.59375 L 92.515625 14.4375 C 92.664062 13.269531 92.269531 12.101562 91.449219 11.277344 C 90.628906 10.449219 89.472656 10.058594 88.328125 10.222656 Z M 89.601562 23.636719 C 89.769531 26.039062 88.703125 28.34375 86.84375 29.601562 C 84.980469 30.859375 82.636719 30.859375 80.777344 29.601562 C 78.914062 28.34375 77.851562 26.039062 78.015625 23.636719 L 78.015625 23.144531 C 79.566406 22.980469 81.078125 22.535156 82.492188 21.824219 L 84.304688 20.992188 C 86 20.152344 87.941406 20.152344 89.636719 20.992188 Z M 89.601562 23.636719 "/>
</g>
</svg>
