<?xml version="1.0" encoding="UTF-8"?>
<svg xmlns="http://www.w3.org/2000/svg" xmlns:xlink="http://www.w3.org/1999/xlink" width="96pt" height="96pt" viewBox="0 0 96 96" version="1.1">
<g id="surface1">
<path style=" stroke:none;fill-rule:evenodd;fill:rgb(54.901961%,54.901961%,54.901961%);fill-opacity:1;" d="M 56 8.1875 C 63.46875 9.46875 60.3125 15.78125 59.875 16.03125 C 59.09375 16.5625 58.875 17.65625 59.40625 18.4375 C 59.9375 19.25 61.03125 19.46875 61.84375 18.9375 C 62.78125 18.3125 65.25 15.6875 63.90625 12.90625 C 65.84375 12.90625 70.34375 13.46875 72.53125 14.90625 C 76.6875 17.6875 76.46875 20.84375 76.6875 21.6875 C 72.3125 19.625 68.65625 21.625 67.125 23.125 C 65.65625 22.40625 64.03125 22.03125 62.375 22.03125 C 61.40625 22.0625 60.65625 22.84375 60.65625 23.78125 C 60.6875 24.75 61.46875 25.5 62.4375 25.5 L 62.46875 25.5 C 64.09375 25.5 65.625 26.09375 66.8125 27.125 C 67.90625 28.40625 68.40625 30.0625 68.15625 31.71875 C 68.125 32.1875 68.28125 32.625 68.59375 32.96875 C 68.90625 33.34375 69.34375 33.53125 69.8125 33.5625 L 69.9375 33.5625 C 70.875 33.5625 71.625 32.84375 71.6875 31.9375 C 71.9375 29.59375 71.28125 27.25 69.875 25.375 C 71.53125 23.125 78.625 23.84375 79.78125 25.90625 C 82.21875 29.65625 83.5 36.03125 82.3125 38.78125 C 79.5 37.9375 73.28125 36.5625 70.625 37.8125 C 70.03125 38.15625 69.46875 38.53125 68.96875 39 C 67.59375 39.625 66.03125 39.78125 64.53125 39.375 C 62.90625 38.75 61.625 37.5 61 35.875 C 60.5625 35.03125 59.5 34.65625 58.625 35.09375 C 57.75 35.5 57.375 36.53125 57.8125 37.40625 C 58.84375 39.875 60.90625 41.78125 63.46875 42.6875 C 64.3125 42.96875 65.21875 43.09375 66.09375 43.09375 C 66.15625 43.09375 66.1875 43.09375 66.25 43.09375 C 65.84375 44.15625 65.53125 45.25 65.375 46.375 C 65.28125 46.84375 65.40625 47.28125 65.6875 47.65625 C 65.96875 48.03125 66.375 48.28125 66.84375 48.375 C 66.9375 48.375 67.03125 48.375 67.125 48.375 C 67.96875 48.375 68.71875 47.78125 68.84375 46.9375 C 69 44.5 70.25 42.25 72.3125 40.875 C 74.5625 39.9375 76.6875 40.1875 79.34375 40.8125 C 79.5625 40.875 79.78125 40.9375 80 40.96875 L 80.6875 41.125 C 83 41.625 85.5 42.5625 87 48.03125 C 87 51.1875 85 54.34375 81.46875 57.125 C 81.65625 57.59375 83.46875 60.09375 83.1875 65.09375 C 82.90625 68.3125 80.5625 71 79.78125 71.75 C 74.96875 72 71.5625 71 70.4375 70.3125 C 71.71875 68.15625 72.15625 65.625 71.6875 63.15625 C 71.53125 62.5625 71.09375 62.0625 70.5 61.875 C 69.90625 61.6875 69.25 61.8125 68.78125 62.21875 C 68.3125 62.65625 68.09375 63.28125 68.21875 63.875 C 68.5625 65.53125 68.21875 67.25 67.28125 68.65625 C 66.03125 69.875 64.25 70.46875 62.46875 70.21875 L 62.4375 70.21875 C 61.46875 70.21875 60.6875 71 60.65625 71.9375 C 60.65625 72.875 61.40625 73.6875 62.375 73.6875 L 62.8125 73.71875 C 64.46875 73.75 66.125 73.375 67.625 72.65625 C 69.15625 73.75 74.21875 75.84375 76.4375 74.09375 C 76.1875 75.15625 75.84375 77.71875 73.625 79.9375 C 71.90625 81.46875 69.46875 82.90625 63.40625 82.40625 C 61.25 86.6875 57.8125 87.65625 56.75 87.59375 C 53.78125 87.40625 52.9375 85.5625 52.09375 84.84375 L 52.09375 77.15625 C 52.09375 76.96875 52.0625 76.8125 52 76.65625 C 52.0625 76.5 52.09375 76.34375 52.09375 76.15625 L 52 9.6875 C 52.8125 8.84375 53.8125 8.1875 56 8.1875 Z M 62.75 52.65625 C 60.1875 53.84375 58.34375 56.09375 57.71875 58.78125 C 57.53125 59.375 57.65625 60.03125 58.09375 60.5 C 58.53125 60.9375 59.15625 61.125 59.78125 61 C 60.40625 60.875 60.90625 60.40625 61.09375 59.8125 C 61.4375 58.125 62.53125 56.6875 64.09375 55.875 C 65.75 55.375 67.5625 55.53125 69.15625 56.28125 C 70.03125 56.71875 71.09375 56.375 71.53125 55.53125 C 71.96875 54.65625 71.625 53.625 70.75 53.1875 C 68.25 51.96875 65.375 51.78125 62.75 52.65625 Z M 62.75 52.65625 "/>
<path style=" stroke:none;fill-rule:evenodd;fill:rgb(54.901961%,54.901961%,54.901961%);fill-opacity:1;" d="M 43 8.1875 C 35.53125 9.46875 38.6875 15.78125 39.125 16.03125 C 39.9375 16.5625 40.125 17.65625 39.59375 18.4375 C 39.0625 19.25 37.96875 19.46875 37.15625 18.9375 C 36.21875 18.3125 33.75 15.6875 35.125 12.90625 C 33.1875 12.90625 28.65625 13.46875 26.46875 14.90625 C 22.3125 17.6875 22.5625 20.84375 22.3125 21.6875 C 26.6875 19.625 30.34375 21.625 31.875 23.125 C 33.34375 22.40625 34.96875 22.03125 36.625 22.03125 C 37.59375 22.0625 38.34375 22.84375 38.34375 23.78125 C 38.3125 24.75 37.53125 25.5 36.5625 25.5 L 36.53125 25.5 C 34.9375 25.5 33.375 26.09375 32.1875 27.125 C 31.09375 28.40625 30.59375 30.0625 30.84375 31.71875 C 30.875 32.1875 30.71875 32.625 30.40625 32.96875 C 30.09375 33.34375 29.65625 33.53125 29.1875 33.5625 L 29.0625 33.5625 C 28.125 33.5625 27.375 32.84375 27.3125 31.9375 C 27.0625 29.59375 27.71875 27.25 29.125 25.375 C 27.46875 23.125 20.40625 23.84375 19.25 25.90625 C 16.78125 29.65625 15.5 36.03125 16.6875 38.78125 C 19.53125 37.9375 25.71875 36.5625 28.375 37.8125 C 28.96875 38.15625 29.53125 38.53125 30.03125 39 C 31.40625 39.625 32.96875 39.78125 34.46875 39.375 C 36.09375 38.75 37.375 37.5 38.03125 35.875 C 38.4375 35.03125 39.5 34.65625 40.375 35.09375 C 41.25 35.5 41.625 36.53125 41.1875 37.40625 C 40.15625 39.875 38.09375 41.78125 35.53125 42.6875 C 34.6875 42.96875 33.8125 43.09375 32.90625 43.09375 C 32.84375 43.09375 32.8125 43.09375 32.75 43.09375 C 33.15625 44.15625 33.46875 45.25 33.625 46.375 C 33.71875 46.84375 33.59375 47.28125 33.3125 47.65625 C 33.0625 48.03125 32.625 48.28125 32.1875 48.375 C 32.09375 48.375 32 48.375 31.90625 48.375 C 31.03125 48.375 30.28125 47.78125 30.15625 46.9375 C 30.03125 44.5 28.75 42.25 26.6875 40.875 C 24.46875 39.9375 22.3125 40.1875 19.65625 40.8125 C 19.4375 40.875 19.21875 40.9375 19 40.96875 L 18.3125 41.125 C 16 41.625 13.5 42.5625 12 48.03125 C 12 51.1875 14 54.34375 17.53125 57.125 C 17.34375 57.59375 15.53125 60.09375 15.8125 65.09375 C 16.09375 68.3125 18.4375 71 19.25 71.75 C 24.03125 72 27.4375 71 28.5625 70.3125 C 27.28125 68.15625 26.84375 65.625 27.3125 63.15625 C 27.46875 62.5625 27.90625 62.0625 28.5 61.875 C 29.125 61.6875 29.78125 61.8125 30.25 62.21875 C 30.71875 62.65625 30.90625 63.28125 30.78125 63.875 C 30.4375 65.53125 30.78125 67.25 31.71875 68.65625 C 33 69.875 34.75 70.46875 36.53125 70.21875 L 36.5625 70.21875 C 37.53125 70.21875 38.34375 71 38.34375 71.9375 C 38.34375 72.875 37.59375 73.6875 36.625 73.6875 L 36.1875 73.71875 C 34.53125 73.75 32.875 73.375 31.375 72.65625 C 29.84375 73.75 24.78125 75.84375 22.5625 74.09375 C 22.8125 75.15625 23.15625 77.71875 25.375 79.9375 C 27.09375 81.46875 29.53125 82.90625 35.59375 82.40625 C 37.75 86.6875 41.1875 87.65625 42.28125 87.59375 C 45.21875 87.40625 46.0625 85.5625 46.90625 84.84375 L 46.90625 77.15625 C 46.90625 76.96875 46.9375 76.8125 47 76.65625 C 46.9375 76.5 46.90625 76.34375 46.90625 76.15625 L 47 9.6875 C 46.1875 8.84375 45.1875 8.1875 43 8.1875 Z M 36.28125 52.65625 C 38.8125 53.84375 40.65625 56.09375 41.3125 58.78125 C 41.46875 59.375 41.34375 60.03125 40.90625 60.5 C 40.46875 60.9375 39.84375 61.125 39.21875 61 C 38.59375 60.875 38.09375 60.40625 37.90625 59.8125 C 37.5625 58.125 36.46875 56.6875 34.90625 55.875 C 33.25 55.375 31.4375 55.53125 29.84375 56.28125 C 29 56.71875 27.9375 56.375 27.46875 55.53125 C 27.03125 54.65625 27.375 53.625 28.25 53.1875 C 30.75 51.96875 33.625 51.78125 36.28125 52.65625 Z M 36.28125 52.65625 "/>
</g>
</svg>
