<?xml version="1.0" encoding="UTF-8"?>
<svg xmlns="http://www.w3.org/2000/svg" xmlns:xlink="http://www.w3.org/1999/xlink" width="96pt" height="96pt" viewBox="0 0 96 96" version="1.1">
<g id="surface1">
<path style=" stroke:none;fill-rule:nonzero;fill:rgb(54.901961%,54.901961%,54.901961%);fill-opacity:1;" d="M 31.5 23.550781 C 17.882812 28.53125 8.804688 46.050781 8.804688 61.738281 C 7.707031 75.464844 18.292969 87.488281 32.546875 88.695312 C 34.296875 88.875 36.042969 88.3125 37.332031 87.15625 C 38.621094 85.996094 39.324219 84.359375 39.261719 82.664062 L 39.261719 29.316406 C 39.371094 27.433594 38.511719 25.617188 36.960938 24.464844 C 35.410156 23.3125 33.367188 22.96875 31.5 23.550781 Z M 14.390625 54.394531 C 15.453125 54.113281 16.558594 54.691406 16.886719 55.707031 C 17.285156 56.429688 17.972656 56.96875 18.792969 57.191406 C 19.960938 57.53125 21.230469 57.269531 22.152344 56.492188 C 22.78125 56.070312 23.449219 55.707031 24.148438 55.402344 C 23.5625 54.808594 22.847656 54.347656 22.058594 54.046875 C 18.027344 52.625 15.796875 48.464844 16.929688 44.476562 C 17.230469 43.542969 18.199219 42.960938 19.203125 43.113281 C 20.207031 43.269531 20.941406 44.109375 20.925781 45.089844 C 20.425781 47.886719 20.925781 48.976562 22.558594 49.894531 C 23.074219 47.875 24.441406 46.148438 26.328125 45.132812 C 26.855469 44.859375 27.421875 44.65625 28.007812 44.523438 C 27.550781 43.777344 27.054688 42.949219 26.554688 41.945312 C 25.65625 40.09375 25.574219 37.972656 26.324219 36.0625 C 27.078125 34.152344 28.601562 32.617188 30.546875 31.808594 C 31.015625 31.546875 31.570312 31.484375 32.085938 31.632812 C 32.601562 31.78125 33.03125 32.128906 33.273438 32.59375 C 33.777344 33.523438 33.410156 34.671875 32.453125 35.171875 C 31.820312 35.476562 28.640625 37.3125 30.183594 40.285156 C 30.964844 42.191406 32.171875 43.90625 33.726562 45.308594 C 34.617188 45.820312 34.9375 46.914062 34.453125 47.796875 C 33.898438 48.707031 32.710938 49.050781 31.726562 48.585938 C 30.582031 48.109375 29.289062 48.109375 28.140625 48.585938 C 27.007812 49.386719 26.265625 50.605469 26.101562 51.949219 C 27 52.535156 27.707031 53.351562 28.140625 54.308594 C 29.640625 54.046875 31.160156 53.929688 32.683594 53.960938 C 33.457031 53.84375 34.234375 54.179688 34.660156 54.816406 C 35.085938 55.453125 35.085938 56.269531 34.660156 56.902344 C 34.234375 57.539062 33.457031 57.875 32.683594 57.761719 C 29.886719 57.644531 27.117188 58.292969 24.691406 59.640625 C 23.382812 60.597656 21.796875 61.144531 20.152344 61.210938 C 19.394531 61.226562 18.640625 61.109375 17.929688 60.863281 C 15.84375 60.285156 14.164062 58.796875 13.390625 56.84375 C 13.179688 56.390625 13.164062 55.878906 13.351562 55.417969 C 13.542969 54.957031 13.914062 54.589844 14.390625 54.394531 Z M 31.546875 82.972656 C 28.523438 82.875 25.792969 81.199219 24.421875 78.601562 C 24.226562 78.125 24.238281 77.597656 24.453125 77.128906 C 24.664062 76.664062 25.0625 76.296875 25.554688 76.109375 C 26.558594 75.738281 27.6875 76.179688 28.140625 77.117188 C 28.90625 78.394531 30.289062 79.21875 31.820312 79.300781 C 32.347656 79.324219 32.847656 79.546875 33.207031 79.925781 C 33.5625 80.300781 33.75 80.800781 33.726562 81.3125 C 33.566406 82.277344 32.699219 82.984375 31.683594 82.972656 Z M 32.863281 70.867188 C 33.640625 70.960938 34.289062 71.480469 34.523438 72.199219 C 34.757812 72.917969 34.535156 73.703125 33.953125 74.207031 C 33.371094 74.710938 32.535156 74.839844 31.820312 74.539062 C 28.015625 73.3125 23.847656 73.675781 20.335938 75.542969 C 20.011719 75.75 19.632812 75.855469 19.246094 75.847656 C 18.578125 75.859375 17.945312 75.550781 17.566406 75.019531 C 16.953125 74.136719 17.195312 72.945312 18.109375 72.355469 C 19.753906 71.382812 21.570312 70.714844 23.46875 70.386719 C 19.609375 66.019531 15.976562 67.242188 15.933594 67.285156 C 14.894531 67.648438 13.738281 67.171875 13.300781 66.191406 C 12.917969 65.214844 13.398438 64.121094 14.390625 63.703125 C 18.875 62.46875 23.679688 64.101562 26.371094 67.765625 C 26.972656 64.785156 29.25 62.375 32.273438 61.519531 C 32.972656 61.199219 33.800781 61.296875 34.398438 61.773438 C 34.996094 62.246094 35.253906 63.011719 35.0625 63.734375 C 34.871094 64.457031 34.261719 65.007812 33.5 65.144531 C 31.285156 65.925781 29.890625 68.039062 30.09375 70.300781 C 31.046875 70.429688 32.046875 70.648438 33 70.867188 Z M 32.863281 70.867188 "/>
<path style=" stroke:none;fill-rule:nonzero;fill:rgb(54.901961%,54.901961%,54.901961%);fill-opacity:1;" d="M 65.113281 36.378906 L 61.121094 36.378906 L 61.121094 31.851562 C 58.027344 28.191406 54.425781 25.339844 49.90625 23.550781 C 48.054688 22.96875 46.023438 23.3125 44.480469 24.464844 C 42.9375 25.617188 42.082031 27.433594 42.191406 29.316406 L 42.191406 82.664062 C 42.128906 84.359375 42.828125 85.996094 44.109375 87.15625 C 45.390625 88.3125 47.128906 88.875 48.871094 88.695312 C 63.109375 87.582031 73.742188 75.53125 72.652344 61.738281 C 72.550781 53.386719 70.238281 45.039062 65.925781 37.804688 Z M 56.585938 78.207031 C 55.097656 81.035156 52.144531 82.859375 48.871094 82.972656 C 47.898438 82.828125 47.183594 82.019531 47.183594 81.070312 C 47.183594 80.121094 47.898438 79.3125 48.871094 79.167969 C 50.597656 79.140625 52.171875 78.203125 52.976562 76.722656 C 53.429688 75.761719 54.582031 75.316406 55.59375 75.71875 C 56.5625 76.152344 57 77.253906 56.585938 78.207031 Z M 66.917969 64.007812 C 64.785156 66.328125 61.625 67.5 58.4375 67.15625 C 56.769531 66.769531 55.316406 65.785156 54.375 64.402344 C 53.226562 64.25 52.066406 64.601562 51.214844 65.363281 C 50.292969 66.632812 49.875 68.1875 50.042969 69.730469 C 54.664062 68.71875 59.515625 69.46875 63.582031 71.828125 C 64.019531 72.097656 64.332031 72.527344 64.441406 73.019531 C 64.550781 73.515625 64.453125 74.03125 64.167969 74.449219 C 63.792969 74.992188 63.167969 75.320312 62.496094 75.324219 C 62.09375 75.316406 61.703125 75.195312 61.371094 74.976562 C 57.542969 72.941406 53.019531 72.53125 48.871094 73.839844 C 48.238281 74.011719 47.558594 73.863281 47.066406 73.445312 C 46.605469 73.191406 46.28125 72.765625 46.160156 72.265625 C 45.292969 68.929688 46.003906 65.390625 48.101562 62.609375 C 50.097656 60.710938 52.953125 59.921875 55.683594 60.511719 C 56.394531 60.59375 57 61.046875 57.261719 61.691406 C 57.640625 62.449219 58.328125 63.019531 59.15625 63.265625 C 60.375 63.527344 62.089844 62.699219 64.03125 60.992188 C 64.820312 60.246094 66.085938 60.246094 66.875 60.992188 C 67.371094 61.339844 67.671875 61.894531 67.679688 62.488281 C 67.6875 63.085938 67.40625 63.648438 66.917969 64.007812 Z M 67.507812 53.042969 C 66.449219 55.457031 64.328125 57.285156 61.730469 58.023438 C 60.882812 58.277344 60 58.410156 59.113281 58.414062 C 57.480469 58.371094 55.902344 57.839844 54.601562 56.886719 C 52.925781 55.621094 50.78125 55.097656 48.6875 55.445312 C 48.179688 55.578125 47.636719 55.511719 47.179688 55.257812 C 46.722656 55.003906 46.390625 54.582031 46.253906 54.089844 C 46.101562 53.609375 46.160156 53.089844 46.414062 52.652344 C 46.671875 52.214844 47.101562 51.894531 47.605469 51.773438 C 50.878906 51.136719 54.28125 51.882812 56.945312 53.828125 C 57.992188 54.636719 59.398438 54.851562 60.648438 54.394531 C 61.277344 54.179688 61.871094 53.871094 62.40625 53.476562 C 60.355469 52.761719 58.640625 51.347656 57.578125 49.503906 C 57.15625 48.613281 56.972656 47.636719 57.039062 46.664062 C 54.664062 47.144531 52.191406 46.636719 50.222656 45.265625 C 46.882812 42.859375 46.160156 38.492188 47.742188 31.9375 C 47.894531 31.265625 48.40625 30.726562 49.082031 30.519531 C 49.761719 30.3125 50.5 30.46875 51.023438 30.933594 C 51.546875 31.398438 51.773438 32.097656 51.621094 32.769531 C 50.492188 37.660156 50.765625 41.070312 52.390625 42.292969 C 54.117188 43.082031 56.121094 43.082031 57.847656 42.292969 C 57.773438 40.59375 56.953125 39.003906 55.59375 37.925781 C 55.175781 37.621094 54.902344 37.167969 54.832031 36.664062 C 54.765625 36.164062 54.910156 35.65625 55.230469 35.257812 C 55.964844 34.570312 57.117188 34.535156 57.894531 35.171875 C 60.761719 37.285156 62.15625 40.78125 61.503906 44.214844 L 61.503906 44.523438 C 60.332031 46.445312 60.78125 47.363281 60.917969 47.667969 C 62.148438 49.136719 63.902344 50.105469 65.835938 50.375 C 66.394531 50.46875 66.890625 50.785156 67.191406 51.25 C 67.582031 51.773438 67.636719 52.46875 67.324219 53.042969 Z M 67.507812 53.042969 "/>
<path style=" stroke:none;fill-rule:nonzero;fill:rgb(54.901961%,54.901961%,54.901961%);fill-opacity:1;" d="M 85.121094 5.867188 L 74.808594 5.867188 C 73.398438 5.65625 71.976562 6.144531 70.980469 7.183594 C 69.984375 8.21875 69.542969 9.675781 69.785156 11.101562 L 69.851562 23.273438 C 69.855469 28.398438 74.265625 32.695312 79.296875 33.136719 C 79.296875 34.898438 78.496094 38.648438 75.871094 38.648438 C 73.914062 38.648438 73.203125 37.5625 72.09375 35.578125 C 71.429688 34.074219 70.347656 32.800781 68.980469 31.917969 C 67.355469 31.492188 65.671875 31.355469 64 31.511719 L 64 33.769531 C 65.269531 33.617188 66.554688 33.617188 67.824219 33.769531 C 68.832031 34.4375 69.621094 35.398438 70.089844 36.523438 C 71.03125 39.121094 73.503906 40.816406 76.226562 40.722656 C 80.363281 40.722656 81.695312 36.207031 81.875 32.914062 C 86.628906 32.15625 90.136719 28 90.144531 23.113281 L 90.144531 10.921875 C 90.324219 9.523438 89.851562 8.121094 88.867188 7.128906 C 87.878906 6.136719 86.496094 5.671875 85.121094 5.867188 Z M 87.230469 22.648438 C 87.4375 25.394531 86.105469 28.027344 83.78125 29.46875 C 81.453125 30.90625 78.523438 30.90625 76.199219 29.46875 C 73.871094 28.027344 72.539062 25.394531 72.75 22.648438 L 72.75 22.085938 C 74.683594 21.898438 76.574219 21.390625 78.34375 20.578125 L 80.609375 19.628906 C 82.730469 18.667969 85.152344 18.667969 87.273438 19.628906 Z M 87.230469 22.648438 "/>
</g>
</svg>
