<?xml version="1.0" encoding="UTF-8"?>
<svg xmlns="http://www.w3.org/2000/svg" xmlns:xlink="http://www.w3.org/1999/xlink" width="96pt" height="96pt" viewBox="0 0 96 96" version="1.1">
<g id="surface1">
<path style=" stroke:none;fill-rule:nonzero;fill:rgb(54.901961%,54.901961%,54.901961%);fill-opacity:1;" d="M 55.109375 67.414062 C 55.722656 70.019531 59.402344 77.179688 58.609375 82.082031 C 57.816406 86.988281 56.292969 91.15625 55.109375 93.089844 L 25.425781 93.089844 C 24.246094 91.136719 22.71875 86.988281 21.925781 82.082031 C 21.152344 77.179688 24.8125 70.019531 25.425781 67.414062 C 26.035156 64.808594 21.925781 56.40625 21.925781 56.40625 L 58.589844 56.40625 C 58.589844 56.40625 54.5 64.808594 55.109375 67.414062 Z M 56.648438 17.175781 L 36.273438 17.175781 L 36.273438 34.84375 C 28.320312 36.679688 22.210938 43.527344 21.816406 51.820312 L 59.027344 51.820312 C 58.636719 43.425781 52.652344 36.515625 44.574219 34.785156 L 44.574219 25.328125 L 56.234375 25.328125 C 57.722656 34.558594 65.84375 41.632812 75.636719 41.632812 L 75.636719 2.910156 C 66.546875 2.910156 58.925781 8.960938 56.648438 17.175781 Z M 56.648438 17.175781 "/>
</g>
</svg>
