<?xml version="1.0" encoding="UTF-8"?>
<svg xmlns="http://www.w3.org/2000/svg" xmlns:xlink="http://www.w3.org/1999/xlink" width="96pt" height="96pt" viewBox="0 0 96 96" version="1.1">
<g id="surface1">
<path style=" stroke:none;fill-rule:nonzero;fill:rgb(54.901961%,54.901961%,54.901961%);fill-opacity:1;" d="M 19.699219 60.339844 L 32.78125 48.699219 L 32.78125 90.601562 L 19.699219 78.964844 L 4 78.964844 L 4 60.339844 Z M 44.296875 68.953125 C 44.296875 64.429688 41.59375 60.617188 37.90625 58.476562 L 34.222656 62.046875 C 37.171875 63 39.382812 65.617188 39.382812 68.953125 C 39.382812 72.285156 37.171875 74.90625 34.222656 75.855469 L 37.90625 79.429688 C 41.59375 77.285156 44.296875 73.476562 44.296875 68.953125 Z M 51.492188 69.769531 C 51.492188 63.433594 48.203125 57.804688 43.503906 54.285156 L 40.214844 57.570312 C 43.972656 60.148438 46.792969 64.605469 46.792969 69.769531 C 46.792969 74.929688 43.972656 79.386719 39.980469 81.730469 L 43.269531 85.015625 C 48.203125 81.730469 51.492188 76.101562 51.492188 69.769531 Z M 51.492188 69.769531 "/>
<path style=" stroke:none;fill-rule:nonzero;fill:rgb(54.901961%,54.901961%,54.901961%);fill-opacity:1;" d="M 69.175781 17.617188 C 61.648438 15.171875 53.546875 19.300781 51.101562 26.824219 C 48.65625 34.351562 52.785156 42.453125 60.3125 44.898438 C 67.835938 47.34375 75.941406 43.214844 78.382812 35.6875 C 80.828125 28.164062 76.699219 20.058594 69.175781 17.617188 Z M 76.21875 5.789062 L 71.398438 4 L 69.046875 12.253906 L 73.871094 14.042969 Z M 54.667969 5.433594 L 50.398438 7.8125 L 53.300781 14.042969 L 57.570312 11.664062 Z M 40.453125 19.78125 L 38.921875 24.601562 L 45.996094 26.953125 L 47.527344 22.128906 Z M 38.921875 41.332031 L 41.695312 45.601562 L 48.960938 42.699219 L 46.1875 38.429688 Z M 54.699219 55.800781 L 58.558594 57.078125 L 60.4375 51.183594 L 56.582031 49.90625 Z M 74.816406 57.078125 L 79.089844 54.699219 L 76.1875 48.472656 L 71.914062 50.851562 Z M 90.46875 41.300781 L 92 37.441406 L 84.925781 35.5625 L 83.390625 39.417969 Z M 90.566406 21.183594 L 88.582031 16.910156 L 83.390625 19.8125 L 85.375 24.085938 Z M 90.566406 21.183594 "/>
</g>
</svg>
