<?xml version="1.0" encoding="UTF-8"?>
<svg xmlns="http://www.w3.org/2000/svg" xmlns:xlink="http://www.w3.org/1999/xlink" width="96pt" height="96pt" viewBox="0 0 96 96" version="1.1">
<g id="surface1">
<path style=" stroke:none;fill-rule:evenodd;fill:rgb(54.901961%,54.901961%,54.901961%);fill-opacity:1;" d="M 29.5625 41.53125 C 33.03125 43.875 37.21875 45.25 41.71875 45.25 C 46.21875 45.25 50.40625 43.875 53.875 41.53125 L 56.40625 41.53125 C 64.5 41.53125 71.0625 48.1875 71.0625 56.375 L 71.0625 87.625 L 23.34375 87.625 L 54.46875 72.59375 L 48.625 57.0625 L 21.6875 70.59375 L 24.375 59.5625 C 21.40625 60.8125 19.90625 61.46875 19.90625 61.46875 C 19.90625 61.46875 18.46875 66.34375 15.5625 76.15625 C 17.6875 75.90625 19.3125 75.59375 20.5 75.25 C 21.6875 74.90625 23.28125 74.25 25.28125 73.28125 L 46.3125 62.40625 L 49.09375 70.09375 L 12.375 87.625 L 4 87.625 C 4.125 87.09375 4.25 86.5625 4.40625 86.03125 L 5.15625 82.96875 C 10.4375 61.90625 13.40625 50.71875 14.0625 49.4375 C 14.78125 48.09375 15.6875 46.875 16.75 45.78125 C 19.40625 43.15625 23.03125 41.53125 27.03125 41.53125 Z M 29.5625 41.53125 "/>
<path style=" stroke:none;fill-rule:evenodd;fill:rgb(54.901961%,54.901961%,54.901961%);fill-opacity:1;" d="M 58.46875 24.75 C 58.46875 34.03125 50.96875 41.53125 41.71875 41.53125 C 32.46875 41.53125 24.9375 34.03125 24.9375 24.75 C 24.9375 15.5 32.46875 8 41.71875 8 C 50.96875 8 58.46875 15.5 58.46875 24.75 "/>
<path style=" stroke:none;fill-rule:evenodd;fill:rgb(30.196078%,30.196078%,30.196078%);fill-opacity:1;" d="M 66.84375 40.4375 L 71.96875 28.9375 L 75.8125 30.65625 L 70.6875 42.15625 Z M 66.84375 40.4375 "/>
<path style=" stroke:none;fill-rule:evenodd;fill:rgb(30.196078%,30.196078%,30.196078%);fill-opacity:1;" d="M 77.25 51.71875 L 89.8125 51.71875 L 89.8125 55.90625 L 77.25 55.90625 Z M 77.25 51.71875 "/>
<path style=" stroke:none;fill-rule:evenodd;fill:rgb(30.196078%,30.196078%,30.196078%);fill-opacity:1;" d="M 73.09375 44.5625 L 87 35.1875 L 89.34375 38.65625 L 75.4375 48.03125 Z M 73.09375 44.5625 "/>
</g>
</svg>
