<?xml version="1.0" encoding="UTF-8"?>
<svg xmlns="http://www.w3.org/2000/svg" xmlns:xlink="http://www.w3.org/1999/xlink" width="96pt" height="96pt" viewBox="0 0 96 96" version="1.1">
<g id="surface1">
<path style=" stroke:none;fill-rule:evenodd;fill:rgb(54.901961%,54.901961%,54.901961%);fill-opacity:1;" d="M 48 72 C 61.25 72 72 61.25 72 48 C 72 34.75 61.25 24 48 24 C 34.75 24 24 34.75 24 48 C 24 61.25 34.75 72 48 72 Z M 48 80 C 30.3125 80 16 65.6875 16 48 C 16 30.3125 30.3125 16 48 16 C 65.6875 16 80 30.3125 80 48 C 80 65.6875 65.6875 80 48 80 Z M 48 80 "/>
<path style=" stroke:none;fill-rule:evenodd;fill:rgb(54.901961%,54.901961%,54.901961%);fill-opacity:1;" d="M 36 36 L 44 36 L 44 60 L 36 60 Z M 36 36 "/>
<path style=" stroke:none;fill-rule:evenodd;fill:rgb(54.901961%,54.901961%,54.901961%);fill-opacity:1;" d="M 52 36 L 60 36 L 60 60 L 52 60 Z M 52 36 "/>
</g>
</svg>
