<?xml version="1.0" encoding="UTF-8"?>
<svg xmlns="http://www.w3.org/2000/svg" xmlns:xlink="http://www.w3.org/1999/xlink" width="96pt" height="96pt" viewBox="0 0 96 96" version="1.1">
<g id="surface1">
<path style=" stroke:none;fill-rule:nonzero;fill:rgb(30.196078%,30.196078%,30.196078%);fill-opacity:1;" d="M 36 4 L 64 4 L 64 27.996094 L 56 27.996094 L 47.824219 15.996094 L 39.917969 24.105469 L 36 20.019531 L 44 12 L 36 12 Z M 26.800781 4 L 32.273438 4 L 32.273438 12 L 26.800781 12 Z M 26.800781 4 "/>
<path style=" stroke:none;fill-rule:evenodd;fill:rgb(54.901961%,54.901961%,54.901961%);fill-opacity:1;" d="M 52 52.003906 L 68 52.003906 L 68 92 L 28 92 L 28 68 Z M 52 32 L 68 32 L 68 47.96875 L 52 47.96875 Z M 52 32 "/>
<path style=" stroke:none;fill-rule:nonzero;fill:rgb(100%,100%,100%);fill-opacity:1;" d="M 36 84 L 60 84 L 60 72 L 36 72 Z M 36 84 "/>
</g>
</svg>
