<?xml version="1.0" encoding="UTF-8"?>
<svg xmlns="http://www.w3.org/2000/svg" xmlns:xlink="http://www.w3.org/1999/xlink" width="96px" height="96px" viewBox="0 0 96 96" version="1.1">
<g id="surface1">
<path style=" stroke:none;fill-rule:nonzero;fill:rgb(87.843137%,21.176471%,18.431373%);fill-opacity:1;" d="M 81.507812 21.605469 C 71.109375 12.605469 63.910156 18.007812 59.109375 21.605469 C 58.507812 22.007812 57.910156 22.605469 57.308594 23.007812 C 56.707031 23.40625 55.109375 24.207031 54.308594 23.808594 C 51.308594 22.207031 50.308594 11.605469 50.308594 4.808594 L 46.507812 4.40625 L 38.507812 4.40625 C 38.308594 27.808594 41.507812 31.007812 46.910156 34.007812 C 55.507812 39.207031 54.910156 43.207031 54.109375 47.40625 C 54.109375 47.808594 53.910156 48.207031 53.910156 48.605469 C 53.625 53.300781 51.375 57.660156 47.707031 60.605469 C 41.507812 65.207031 31.910156 63.808594 25.707031 62.808594 C 24.707031 62.605469 23.910156 62.605469 23.109375 62.40625 C 19.210938 61.785156 15.238281 62.960938 12.308594 65.605469 C 3.910156 73.207031 4.546875 91.605469 4.546875 92.40625 L 16.546875 92.40625 C 16.949219 78.40625 19.949219 74.808594 21.75 74.007812 C 23.546875 73.207031 26.546875 74.605469 28.546875 76.007812 C 41.347656 85.605469 53.546875 89.207031 64.546875 86.207031 C 74.195312 83.394531 82.148438 76.535156 86.347656 67.40625 C 98.507812 40.605469 89.308594 28.40625 81.507812 21.605469 Z M 81.507812 21.605469 "/>
</g>
</svg>
