<?xml version="1.0" encoding="UTF-8"?>
<svg xmlns="http://www.w3.org/2000/svg" xmlns:xlink="http://www.w3.org/1999/xlink" width="96pt" height="96pt" viewBox="0 0 96 96" version="1.1">
<g id="surface1">
<path style=" stroke:none;fill-rule:evenodd;fill:rgb(54.901961%,54.901961%,54.901961%);fill-opacity:1;" d="M 77.390625 42.40625 C 82.226562 44.765625 86.203125 48.585938 88.75 53.328125 C 91.109375 51.871094 92.546875 49.300781 92.546875 46.527344 C 92.765625 42.730469 90.28125 39.304688 86.601562 38.335938 C 82.925781 37.363281 79.074219 39.117188 77.390625 42.527344 Z M 77.390625 42.40625 "/>
<path style=" stroke:none;fill-rule:evenodd;fill:rgb(54.901961%,54.901961%,54.901961%);fill-opacity:1;" d="M 41.949219 75.847656 C 39.800781 77.554688 38.550781 80.144531 38.546875 82.886719 C 38.503906 86.707031 40.835938 90.15625 44.398438 91.535156 C 47.960938 92.917969 52.007812 91.941406 54.546875 89.085938 C 48.875 86.355469 44.394531 81.648438 41.949219 75.847656 Z M 41.949219 75.847656 "/>
<path style=" stroke:none;fill-rule:evenodd;fill:rgb(54.901961%,54.901961%,54.901961%);fill-opacity:1;" d="M 40.148438 68.726562 C 39.277344 61.378906 41.601562 54.007812 46.527344 48.488281 C 51.453125 42.964844 58.507812 39.820312 65.910156 39.847656 C 67.4375 39.851562 68.964844 40 70.46875 40.289062 C 69.691406 37.671875 68.472656 35.210938 66.867188 33.007812 L 72.546875 27.328125 C 74.648438 27.707031 76.796875 27.03125 78.308594 25.527344 C 79.542969 24.324219 80.238281 22.671875 80.238281 20.945312 C 80.238281 19.222656 79.542969 17.570312 78.308594 16.367188 C 75.738281 13.824219 71.601562 13.824219 69.027344 16.367188 C 67.398438 17.984375 66.742188 20.34375 67.308594 22.566406 L 61.910156 27.847656 C 58.828125 25.570312 55.25 24.058594 51.46875 23.445312 L 51.46875 15.847656 C 53.992188 14.066406 54.921875 10.753906 53.6875 7.921875 C 52.457031 5.085938 49.402344 3.507812 46.378906 4.136719 C 43.351562 4.769531 41.1875 7.4375 41.1875 10.527344 C 41.300781 12.765625 42.574219 14.785156 44.546875 15.847656 L 44.546875 23.445312 C 40.65625 24.011719 36.960938 25.519531 33.789062 27.847656 L 29.789062 23.847656 C 30.804688 20.910156 30.023438 17.648438 27.789062 15.488281 C 24.5625 12.300781 19.375 12.300781 16.148438 15.488281 C 14.585938 16.996094 13.699219 19.074219 13.699219 21.246094 C 13.699219 23.421875 14.585938 25.5 16.148438 27.007812 C 18.445312 29.042969 21.675781 29.644531 24.546875 28.566406 L 28.546875 32.566406 C 26.1875 35.636719 24.644531 39.257812 24.070312 43.085938 L 16.546875 43.085938 C 15.34375 41.179688 13.242188 40.03125 10.988281 40.046875 C 8.558594 39.855469 6.226562 41.042969 4.953125 43.121094 C 3.683594 45.199219 3.683594 47.816406 4.953125 49.894531 C 6.226562 51.972656 8.558594 53.160156 10.988281 52.96875 C 13.207031 52.996094 15.292969 51.914062 16.546875 50.085938 L 24.308594 50.085938 C 24.890625 53.925781 26.433594 57.558594 28.789062 60.648438 L 23.46875 65.886719 C 21.226562 65.304688 18.84375 65.945312 17.1875 67.566406 C 15.964844 68.777344 15.277344 70.425781 15.277344 72.148438 C 15.277344 73.867188 15.964844 75.515625 17.1875 76.726562 C 19.769531 79.246094 23.890625 79.246094 26.46875 76.726562 C 27.96875 75.230469 28.640625 73.09375 28.269531 71.007812 L 33.789062 65.527344 C 35.730469 66.914062 37.875 67.996094 40.148438 68.726562 Z M 41.070312 29.886719 C 41.859375 28.476562 43.425781 27.679688 45.035156 27.875 C 46.640625 28.066406 47.972656 29.210938 48.410156 30.769531 C 48.84375 32.328125 48.296875 33.996094 47.023438 34.992188 C 45.75 35.992188 44 36.125 42.589844 35.328125 C 40.667969 34.242188 39.988281 31.808594 41.070312 29.886719 Z M 29.308594 38.925781 C 30.449219 36.761719 32.789062 35.507812 35.222656 35.753906 C 37.65625 36.003906 39.699219 37.703125 40.378906 40.054688 C 41.0625 42.402344 40.246094 44.929688 38.324219 46.441406 C 36.398438 47.953125 33.75 48.144531 31.628906 46.925781 C 28.847656 45.304688 27.824219 41.785156 29.308594 38.925781 Z M 29.308594 38.925781 "/>
<path style=" stroke:none;fill-rule:nonzero;fill:rgb(30.196078%,30.196078%,30.588235%);fill-opacity:1;" d="M 87.828125 65.527344 C 87.828125 77.675781 77.980469 87.527344 65.828125 87.527344 C 53.679688 87.527344 43.828125 77.675781 43.828125 65.527344 C 43.828125 53.378906 53.679688 43.527344 65.828125 43.527344 C 77.980469 43.527344 87.828125 53.378906 87.828125 65.527344 Z M 87.828125 65.527344 "/>
<path style=" stroke:none;fill-rule:evenodd;fill:rgb(100%,100%,100%);fill-opacity:1;" d="M 65.390625 51.046875 C 66.75 51.046875 68.105469 51.273438 69.390625 51.726562 C 70.671875 52.210938 71.792969 53.042969 72.628906 54.128906 C 73.523438 55.265625 74.003906 56.679688 73.988281 58.128906 C 74.023438 59.21875 73.761719 60.296875 73.230469 61.246094 C 72.785156 62.085938 72.171875 62.820312 71.429688 63.40625 L 69.269531 64.886719 C 68.585938 65.335938 67.964844 65.871094 67.429688 66.488281 C 66.949219 67.074219 66.695312 67.8125 66.707031 68.566406 L 66.707031 70.648438 L 62.507812 70.648438 L 62.507812 68.40625 C 62.484375 67.460938 62.703125 66.523438 63.148438 65.6875 C 63.550781 64.9375 64.09375 64.269531 64.75 63.726562 L 66.667969 62.246094 C 67.277344 61.796875 67.816406 61.257812 68.269531 60.648438 C 68.699219 60.054688 68.9375 59.339844 68.949219 58.605469 C 69 57.671875 68.582031 56.769531 67.828125 56.207031 C 67.011719 55.628906 66.027344 55.347656 65.027344 55.40625 C 62.933594 55.484375 60.898438 56.132812 59.148438 57.289062 L 57.429688 53.289062 C 59.78125 51.722656 62.566406 50.9375 65.390625 51.046875 Z M 65.390625 51.046875 "/>
<path style=" stroke:none;fill-rule:evenodd;fill:rgb(100%,100%,100%);fill-opacity:1;" d="M 64.828125 74.648438 C 65.589844 74.601562 66.339844 74.828125 66.949219 75.289062 C 67.511719 75.808594 67.808594 76.5625 67.75 77.328125 C 67.75 79.085938 66.789062 80.007812 64.828125 80.007812 C 62.867188 80.007812 61.910156 79.085938 61.910156 77.328125 C 61.910156 75.566406 62.867188 74.648438 64.828125 74.648438 Z M 64.828125 74.648438 "/>
</g>
</svg>
