<?xml version="1.0" encoding="UTF-8"?>
<svg xmlns="http://www.w3.org/2000/svg" xmlns:xlink="http://www.w3.org/1999/xlink" width="96pt" height="96pt" viewBox="0 0 96 96" version="1.1">
<g id="surface1">
<path style=" stroke:none;fill-rule:nonzero;fill:rgb(54.901961%,54.901961%,54.901961%);fill-opacity:1;" d="M 56 12 C 56 7.601562 52.398438 4 48 4 C 43.601562 4 40 7.601562 40 12 L 16 12 L 16 92 L 80 92 L 80 12 Z M 72 84 L 24 84 L 24 20 L 40 20 L 40 24 L 56 24 L 56 20 L 72 20 Z M 30 36 L 68 36 L 68 32 L 30 32 Z M 30 48 L 68 48 L 68 44 L 30 44 Z M 30 60 L 68 60 L 68 56 L 30 56 Z M 30 72 L 68 72 L 68 68 L 30 68 Z M 30 72 "/>
</g>
</svg>
