<?xml version="1.0" encoding="UTF-8"?>
<svg xmlns="http://www.w3.org/2000/svg" xmlns:xlink="http://www.w3.org/1999/xlink" width="96pt" height="96pt" viewBox="0 0 96 96" version="1.1">
<g id="surface1">
<path style=" stroke:none;fill-rule:evenodd;fill:rgb(54.901961%,54.901961%,54.901961%);fill-opacity:1;" d="M 52 12 L 16 20 L 16 76 L 52 84 Z M 52 12 "/>
<path style=" stroke:none;fill-rule:evenodd;fill:rgb(100%,100%,100%);fill-opacity:1;" d="M 44 52 L 48 52 L 48 48 L 44 48 Z M 44 52 "/>
<path style=" stroke:none;fill-rule:evenodd;fill:rgb(54.901961%,54.901961%,54.901961%);fill-opacity:1;" d="M 60 20 L 40 20 L 40 76 L 64 76 L 64 40 L 60 40 L 60 72 L 44 72 L 44 24 L 60 24 L 60 28 L 64 28 L 64 20 Z M 60 20 "/>
<path style=" stroke:none;fill-rule:evenodd;fill:rgb(54.901961%,54.901961%,54.901961%);fill-opacity:1;" d="M 71.726562 25.726562 L 77.390625 32.003906 L 60 32.003906 L 60 36.003906 L 77.390625 36.003906 L 71.726562 42.269531 L 74.164062 45.003906 L 84 34 L 74.164062 23.003906 Z M 71.726562 25.726562 "/>
</g>
</svg>
