<?xml version="1.0" encoding="UTF-8"?>
<svg xmlns="http://www.w3.org/2000/svg" xmlns:xlink="http://www.w3.org/1999/xlink" width="96pt" height="96pt" viewBox="0 0 96 96" version="1.1">
<g id="surface1">
<path style=" stroke:none;fill-rule:nonzero;fill:rgb(100%,51.372549%,5.882353%);fill-opacity:1;" d="M 24 84 L 84 84 L 84 92 L 24 92 Z M 24 84 "/>
<path style=" stroke:none;fill-rule:nonzero;fill:rgb(54.901961%,54.901961%,54.901961%);fill-opacity:1;" d="M 23.0625 17.625 C 26.6875 19.625 28.03125 24.15625 26.0625 27.75 C 24.0625 31.375 19.53125 32.75 15.90625 30.75 C 12.28125 28.78125 10.9375 24.25 12.90625 20.625 C 14.90625 17 19.4375 15.65625 23.0625 17.625 Z M 42.5625 8 L 35.8125 11.1875 L 39.59375 19.21875 L 32.5 24.59375 L 32.53125 24.65625 L 23.34375 36.15625 L 23.375 36.1875 L 23.34375 36.1875 L 23.46875 51.09375 L 23.4375 51.09375 L 23.46875 51.125 L 34.46875 61.1875 L 39.53125 55.6875 L 30.90625 47.78125 L 30.875 42.15625 L 46.5625 54.75 L 46.5625 54.78125 L 55.96875 64.5625 L 50.1875 76.8125 L 56.96875 80 L 64.9375 63.125 L 64.9375 63.09375 L 51.4375 49 L 56.09375 43.1875 L 56.0625 43.15625 L 68.15625 32.90625 L 81.09375 38.375 L 84 31.5 L 66.96875 24.28125 L 66.875 24.21875 L 66.84375 24.25 L 66.78125 24.21875 L 66.6875 24.375 L 50.03125 38.34375 L 38.6875 29.3125 L 48.96875 21.53125 Z M 42.5625 8 "/>
</g>
</svg>
