<?xml version="1.0" encoding="UTF-8"?>
<svg xmlns="http://www.w3.org/2000/svg" xmlns:xlink="http://www.w3.org/1999/xlink" width="96pt" height="96pt" viewBox="0 0 96 96" version="1.1">
<g id="surface1">
<path style=" stroke:none;fill-rule:evenodd;fill:rgb(54.901961%,54.901961%,54.901961%);fill-opacity:1;" d="M 87.09375 13.625 L 58 8 L 56.5625 15.15625 L 74.15625 18.5625 L 60.3125 27.71875 C 55.8125 20.15625 47.46875 15.0625 37.9375 15.0625 C 23.65625 15.0625 12 26.53125 12 40.59375 C 12 53.4375 21.6875 64.03125 34.25 65.84375 L 34.25 73.40625 L 24.0625 73.40625 L 24.0625 80.71875 L 34.25 80.71875 L 34.25 88 L 41.65625 88 L 41.65625 80.71875 L 51.84375 80.71875 L 51.84375 73.40625 L 41.65625 73.40625 L 41.65625 65.84375 C 54.21875 64.03125 63.90625 53.4375 63.90625 40.59375 C 63.90625 38.53125 63.625 36.53125 63.15625 34.625 L 78.3125 24.59375 L 75.03125 41.03125 L 82.28125 42.40625 L 88 13.8125 Z M 37.9375 58.84375 C 27.71875 58.84375 19.40625 50.65625 19.40625 40.59375 C 19.40625 30.53125 27.71875 22.375 37.9375 22.375 C 48.1875 22.375 56.5 30.53125 56.5 40.59375 C 56.5 50.65625 48.1875 58.84375 37.9375 58.84375 Z M 37.9375 58.84375 "/>
</g>
</svg>
