<?xml version="1.0" encoding="UTF-8"?>
<svg xmlns="http://www.w3.org/2000/svg" xmlns:xlink="http://www.w3.org/1999/xlink" width="96pt" height="96pt" viewBox="0 0 96 96" version="1.1">
<g id="surface1">
<path style=" stroke:none;fill-rule:nonzero;fill:rgb(54.901961%,54.901961%,54.901961%);fill-opacity:1;" d="M 72.910156 33.453125 C 72.910156 19.417969 61.492188 8 47.453125 8 C 33.417969 8 22 19.417969 22 33.453125 C 22 46.253906 31.507812 56.835938 43.816406 58.617188 L 43.816406 69.816406 L 30.183594 69.816406 L 30.183594 77.089844 L 43.816406 77.089844 L 43.816406 88 L 51.089844 88 L 51.089844 77.089844 L 64.726562 77.089844 L 64.726562 69.816406 L 51.089844 69.816406 L 51.089844 58.617188 C 63.398438 56.835938 72.910156 46.253906 72.910156 33.453125 Z M 29.273438 33.453125 C 29.273438 23.417969 37.417969 15.273438 47.453125 15.273438 C 57.492188 15.273438 65.636719 23.417969 65.636719 33.453125 C 65.636719 43.492188 57.492188 51.636719 47.453125 51.636719 C 37.417969 51.636719 29.273438 43.492188 29.273438 33.453125 Z M 29.273438 33.453125 "/>
</g>
</svg>
