<?xml version="1.0" encoding="UTF-8"?>
<svg xmlns="http://www.w3.org/2000/svg" xmlns:xlink="http://www.w3.org/1999/xlink" width="96pt" height="96pt" viewBox="0 0 96 96" version="1.1">
<g id="surface1">
<path style=" stroke:none;fill-rule:nonzero;fill:rgb(54.901961%,54.901961%,54.901961%);fill-opacity:1;" d="M 71.667969 21.699219 L 57.46875 40.664062 C 64.027344 45.429688 68.324219 53.128906 68.324219 61.835938 C 68.324219 76.265625 56.589844 88 42.164062 88 C 27.734375 88 16 76.265625 16 61.835938 C 16 47.410156 27.734375 35.675781 42.164062 35.675781 C 45.171875 35.675781 48.066406 36.21875 50.757812 37.152344 L 65.6875 17.210938 L 47.785156 19.773438 L 46.742188 12.371094 L 73.875 8.484375 L 77.277344 8 L 81.5 37.601562 L 74.097656 38.664062 Z M 42.144531 43.132812 C 31.828125 43.132812 23.457031 51.503906 23.457031 61.820312 C 23.457031 72.132812 31.828125 80.507812 42.144531 80.507812 C 52.457031 80.507812 60.832031 72.132812 60.832031 61.820312 C 60.832031 51.503906 52.476562 43.132812 42.144531 43.132812 Z M 42.144531 43.132812 "/>
</g>
</svg>
