<?xml version="1.0" encoding="UTF-8"?>
<svg xmlns="http://www.w3.org/2000/svg" xmlns:xlink="http://www.w3.org/1999/xlink" width="96pt" height="96pt" viewBox="0 0 96 96" version="1.1">
<g id="surface1">
<path style=" stroke:none;fill-rule:evenodd;fill:rgb(54.901961%,54.901961%,54.901961%);fill-opacity:1;" d="M 48 8 C 61.25 8 72 18.75 72 32 C 72 43.90625 63.34375 53.75 52 55.65625 L 52 68 L 64 68 L 64 76 L 52 76 L 52 88 L 44 88 L 44 76 L 32 76 L 32 68 L 44 68 L 44 55.65625 C 32.65625 53.75 24 43.90625 24 32 C 24 18.75 34.75 8 48 8 Z M 48 16 C 39.15625 16 32 23.15625 32 32 C 32 40.84375 39.15625 48 48 48 C 56.84375 48 64 40.84375 64 32 C 64 23.15625 56.84375 16 48 16 Z M 48 16 "/>
</g>
</svg>
