<?xml version="1.0" encoding="UTF-8"?>
<svg xmlns="http://www.w3.org/2000/svg" xmlns:xlink="http://www.w3.org/1999/xlink" width="96pt" height="96pt" viewBox="0 0 96 96" version="1.1">
<g id="surface1">
<path style=" stroke:none;fill-rule:evenodd;fill:rgb(54.901961%,54.901961%,54.901961%);fill-opacity:1;" d="M 75.25 12 L 78.0625 38.1875 L 71.625 39.3125 L 70.125 25.4375 L 57.03125 42.84375 C 61.34375 47.15625 64 53.15625 64 59.75 C 64 73 53.25 83.75 40 83.75 C 26.75 83.75 16 73 16 59.75 C 16 46.5 26.75 35.75 40 35.75 C 43.78125 35.75 47.34375 36.625 50.53125 38.15625 L 63.75 20.625 L 50 23.03125 L 49.3125 16.53125 Z M 40 43.75 C 31.15625 43.75 24 50.90625 24 59.75 C 24 68.59375 31.15625 75.75 40 75.75 C 48.84375 75.75 56 68.59375 56 59.75 C 56 50.90625 48.84375 43.75 40 43.75 Z M 40 43.75 "/>
</g>
</svg>
