<?xml version="1.0" encoding="UTF-8"?>
<svg xmlns="http://www.w3.org/2000/svg" xmlns:xlink="http://www.w3.org/1999/xlink" width="96pt" height="96pt" viewBox="0 0 96 96" version="1.1">
<g id="surface1">
<path style=" stroke:none;fill-rule:nonzero;fill:rgb(54.901961%,54.901961%,54.901961%);fill-opacity:1;" d="M 47.742188 4 C 56.816406 4 65.214844 6.863281 69.714844 13.253906 C 74.050781 19.414062 75.269531 24.96875 75.351562 32.003906 L 75.355469 32.789062 L 75.355469 71.441406 C 75.351562 76.992188 75.253906 82.515625 71.851562 86.378906 C 68.757812 89.894531 63.15625 92 49.46875 92 C 48.734375 92 48 91.996094 47.261719 91.992188 L 45.785156 91.976562 C 36.191406 91.84375 26.6875 91.058594 23.503906 87.6875 C 20.285156 84.28125 20.019531 78.042969 20 72.632812 L 20 32.789062 C 20 25.996094 21.917969 18.113281 25.894531 13.253906 C 30.976562 7.042969 39.179688 4 47.742188 4 Z M 48.085938 7.660156 C 34.960938 7.660156 24.738281 19.046875 24.433594 32.183594 L 24.425781 32.789062 C 24.425781 34.351562 24.46875 35.894531 24.574219 37.40625 C 24.886719 41.890625 25.777344 46.128906 27.863281 49.941406 L 27.90625 49.890625 L 27.9375 49.851562 L 27.851562 49.96875 C 32.457031 56.582031 41.289062 64.703125 49.46875 66.84375 C 50.863281 64.742188 52.433594 62.757812 54.164062 60.902344 L 55.046875 59.984375 L 66.292969 48.578125 L 71.730469 43.066406 L 71.789062 43.011719 L 71.851562 42.957031 L 71.851562 32.789062 C 71.851562 32.015625 71.765625 30.832031 71.558594 29.433594 C 70.171875 17.375 60.425781 7.660156 48.085938 7.660156 Z M 47.675781 39.484375 C 49.730469 39.484375 51.738281 40.242188 53.195312 41.5625 C 54.648438 42.882812 55.484375 44.714844 55.484375 46.582031 C 55.484375 48.445312 54.648438 50.277344 53.195312 51.597656 C 51.746094 52.917969 49.730469 53.675781 47.675781 53.675781 C 45.617188 53.675781 43.609375 52.917969 42.160156 51.597656 C 40.699219 50.277344 39.871094 48.445312 39.871094 46.582031 C 39.871094 44.714844 40.707031 42.882812 42.160156 41.5625 C 43.609375 40.242188 45.625 39.484375 47.675781 39.484375 Z M 48.390625 11.90625 C 59.714844 11.90625 68.890625 21.082031 68.890625 32.398438 C 68.890625 40.554688 64.128906 47.59375 57.230469 50.894531 C 57.527344 50.105469 57.695312 49.265625 57.695312 48.363281 C 57.695312 45.246094 56.722656 42.144531 54.515625 39.9375 C 53.039062 38.464844 50.753906 37.613281 47.660156 37.371094 C 44.617188 37.613281 42.359375 38.464844 40.890625 39.9375 C 38.683594 42.144531 37.765625 45.246094 37.765625 48.363281 C 37.765625 48.933594 37.773438 49.460938 37.796875 49.949219 C 31.859375 46.355469 27.890625 39.839844 27.890625 32.398438 C 27.890625 21.082031 37.074219 11.90625 48.390625 11.90625 Z M 48.390625 11.90625 "/>
</g>
</svg>
