<?xml version="1.0" encoding="UTF-8"?>
<svg xmlns="http://www.w3.org/2000/svg" xmlns:xlink="http://www.w3.org/1999/xlink" width="96pt" height="96pt" viewBox="0 0 96 96" version="1.1">
<g id="surface1">
<path style=" stroke:none;fill-rule:nonzero;fill:rgb(54.901961%,54.901961%,54.901961%);fill-opacity:1;" d="M 21.746094 48.730469 C 22.6875 47.113281 24.707031 46.210938 26.566406 46.792969 C 28.503906 47.414062 29.542969 49.164062 29.304688 50.875 C 29.242188 51.324219 29.082031 51.757812 28.84375 52.191406 L 27.882812 53.828125 C 28.941406 52.003906 31.363281 51.34375 33.300781 52.339844 C 34.777344 53.09375 35.539062 54.636719 35.339844 56.121094 C 35.277344 56.570312 35.117188 57.023438 34.878906 57.4375 L 33.832031 59.214844 L 34.078125 58.855469 C 35 57.609375 36.605469 56.90625 38.167969 57.191406 L 38.636719 57.304688 C 40.574219 57.925781 41.613281 59.675781 41.375 61.386719 C 41.316406 61.839844 41.15625 62.269531 40.914062 62.703125 L 39.957031 64.339844 C 41.015625 62.515625 43.433594 61.855469 45.371094 62.851562 C 46.851562 63.605469 47.628906 65.148438 47.429688 66.652344 C 47.371094 67.105469 47.210938 67.554688 46.96875 67.96875 L 45.75 70.054688 C 44.632812 71.957031 42.035156 72.578125 40.09375 71.410156 L 33.757812 67.613281 L 31.601562 66.371094 L 30.183594 65.523438 L 19.828125 59.316406 C 18.050781 58.246094 17.449219 56.066406 18.46875 54.335938 Z M 81.226562 24.019531 L 92 43.539062 L 78.527344 49.6875 L 78.007812 50.6875 L 74.09375 57.324219 C 67.519531 57.753906 61.902344 61.894531 59.113281 67.609375 L 53.886719 67.613281 C 53.964844 67.386719 54.046875 67.140625 54.105469 66.933594 C 56.105469 66.390625 57.84375 65.109375 58.882812 63.324219 C 59.28125 62.648438 59.542969 61.949219 59.703125 61.234375 C 61.699219 60.671875 63.441406 59.394531 64.480469 57.625 C 64.878906 56.949219 65.136719 56.253906 65.296875 55.539062 C 67.296875 54.972656 69.035156 53.695312 70.074219 51.925781 C 72.195312 48.296875 70.773438 43.707031 66.917969 41.714844 L 54.125 34.945312 L 46.691406 41.828125 C 46.371094 42.128906 46.03125 42.355469 45.652344 42.523438 C 44.152344 43.21875 42.273438 42.976562 41.035156 41.789062 C 39.476562 40.304688 39.496094 37.917969 41.074219 36.46875 L 50.949219 27.328125 C 52.527344 25.863281 55.046875 25.878906 56.605469 27.367188 L 64.300781 33.742188 Z M 14.734375 24 L 30.683594 33.160156 L 31.363281 31.992188 C 32.441406 30.167969 34.859375 29.511719 36.796875 30.507812 L 39.996094 32.160156 L 38.257812 33.777344 C 36.738281 35.191406 35.898438 37.070312 35.878906 39.082031 C 35.859375 41.09375 36.675781 42.996094 38.175781 44.421875 C 39.695312 45.871094 41.714844 46.660156 43.871094 46.660156 C 45.09375 46.660156 46.3125 46.398438 47.410156 45.890625 C 48.167969 45.550781 48.871094 45.082031 49.46875 44.515625 L 54.625 39.742188 L 64.820312 45.007812 C 66.757812 46.023438 67.457031 48.296875 66.398438 50.121094 C 65.597656 51.511719 63.960938 52.226562 62.378906 52.039062 C 61.902344 51.984375 61.441406 51.832031 60.980469 51.605469 L 59.242188 50.703125 C 61.179688 51.703125 61.878906 53.976562 60.820312 55.800781 C 60.023438 57.191406 58.382812 57.90625 56.804688 57.71875 C 56.324219 57.664062 55.84375 57.511719 55.40625 57.285156 L 53.644531 56.382812 C 55.585938 57.398438 56.285156 59.675781 55.226562 61.5 C 54.40625 62.890625 52.785156 63.605469 51.207031 63.398438 C 51.089844 63.378906 50.96875 63.34375 50.847656 63.324219 C 50.167969 61.761719 48.949219 60.410156 47.289062 59.542969 C 46.609375 59.1875 45.851562 58.921875 45.09375 58.773438 C 44.511719 56.890625 43.171875 55.273438 41.253906 54.277344 C 40.574219 53.921875 39.835938 53.65625 39.054688 53.507812 C 38.476562 51.625 37.136719 50.007812 35.21875 49.011719 C 34.519531 48.65625 33.78125 48.390625 33.019531 48.242188 C 32.441406 46.359375 31.101562 44.742188 29.183594 43.746094 C 28.304688 43.296875 27.34375 42.996094 26.363281 42.882812 C 23.066406 42.46875 19.910156 43.972656 18.308594 46.71875 L 16.75 49.371094 L 4 43.539062 Z M 14.734375 24 "/>
<path style=" stroke:none;fill-rule:evenodd;fill:rgb(0%,67.058824%,35.686275%);fill-opacity:1;" d="M 76 60 C 84.835938 60 92 67.164062 92 76 C 92 84.835938 84.835938 92 76 92 C 67.164062 92 60 84.835938 60 76 C 60 67.164062 67.164062 60 76 60 Z M 83.261719 67.984375 L 73.574219 78.203125 L 68.738281 73.09375 L 66 75.984375 L 73.578125 83.984375 L 76.316406 81.09375 L 86 70.875 Z M 83.261719 67.984375 "/>
</g>
</svg>
