<?xml version="1.0" encoding="UTF-8"?>
<svg xmlns="http://www.w3.org/2000/svg" xmlns:xlink="http://www.w3.org/1999/xlink" width="96pt" height="96pt" viewBox="0 0 96 96" version="1.1">
<g id="surface1">
<path style=" stroke:none;fill-rule:nonzero;fill:rgb(54.901961%,54.901961%,54.901961%);fill-opacity:1;" d="M 93.480469 63.28125 L 90.121094 50.359375 L 83.199219 61.800781 L 86.359375 60.960938 C 81.179688 77.839844 65.65625 89.414062 48 89.558594 C 27.640625 89.398438 10.542969 74.199219 8 54 C 7.855469 52.902344 6.859375 52.121094 5.761719 52.238281 C 4.667969 52.386719 3.898438 53.386719 4.039062 54.480469 C 6.828125 76.699219 25.648438 93.414062 48.039062 93.558594 C 67.679688 93.402344 84.902344 80.40625 90.441406 61.558594 Z M 93.480469 63.28125 "/>
<path style=" stroke:none;fill-rule:nonzero;fill:rgb(54.901961%,54.901961%,54.901961%);fill-opacity:1;" d="M 72 9.640625 C 64.867188 4.964844 56.527344 2.464844 48 2.441406 C 27.535156 2.664062 9.847656 16.777344 5.078125 36.679688 L 1.878906 34.960938 L 5.878906 47.679688 L 12.199219 36 L 9.121094 37 C 13.664062 19.183594 29.617188 6.648438 48 6.441406 C 56.65625 6.441406 65.074219 9.246094 72 14.441406 Z M 72 9.640625 "/>
<path style=" stroke:none;fill-rule:nonzero;fill:rgb(54.901961%,54.901961%,54.901961%);fill-opacity:1;" d="M 87.480469 30.398438 C 87.179688 31.652344 86.695312 32.851562 86.039062 33.960938 C 87.105469 37.128906 87.765625 40.421875 88 43.761719 C 88.082031 44.800781 88.953125 45.601562 90 45.601562 C 91.089844 45.515625 91.910156 44.570312 91.839844 43.480469 C 91.511719 38.800781 90.417969 34.207031 88.601562 29.878906 C 88.242188 30.085938 87.867188 30.257812 87.480469 30.398438 Z M 87.480469 30.398438 "/>
<path style=" stroke:none;fill-rule:nonzero;fill:rgb(54.901961%,54.901961%,54.901961%);fill-opacity:1;" d="M 88 4 L 79.28125 4 C 78.011719 3.816406 76.730469 4.25 75.835938 5.167969 C 74.941406 6.085938 74.542969 7.375 74.761719 8.640625 L 74.761719 19.441406 C 74.761719 23.980469 78.238281 27.765625 82.761719 28.160156 C 82.761719 29.71875 82.039062 33.039062 79.679688 33.039062 C 77.921875 33.039062 77.28125 32.078125 76.28125 30.320312 C 75.683594 28.988281 74.710938 27.863281 73.480469 27.078125 C 72.019531 26.703125 70.503906 26.578125 69 26.71875 L 69 28.71875 C 70.144531 28.582031 71.296875 28.582031 72.441406 28.71875 C 73.347656 29.3125 74.058594 30.160156 74.480469 31.160156 C 75.324219 33.460938 77.550781 34.960938 80 34.878906 C 83.71875 34.878906 84.921875 30.878906 85.078125 27.960938 C 89.359375 27.289062 92.511719 23.609375 92.519531 19.28125 L 92.519531 8.480469 C 92.683594 7.242188 92.257812 6 91.371094 5.121094 C 90.484375 4.242188 89.238281 3.828125 88 4 Z M 90.199219 19.441406 C 90.394531 21.988281 89.148438 24.429688 86.96875 25.761719 C 84.789062 27.09375 82.050781 27.09375 79.871094 25.761719 C 77.691406 24.429688 76.445312 21.988281 76.640625 19.441406 L 76.640625 18.921875 C 78.453125 18.746094 80.222656 18.273438 81.878906 17.519531 L 84 16.640625 C 85.984375 15.75 88.253906 15.75 90.238281 16.640625 Z M 90.199219 19.441406 "/>
<path style=" stroke:none;fill-rule:nonzero;fill:rgb(54.901961%,54.901961%,54.901961%);fill-opacity:1;" d="M 72.199219 32.398438 C 72 32 72 32 71.71875 31.519531 L 67.199219 31.519531 L 67.199219 23.519531 L 69.601562 23.519531 C 64.949219 21.242188 59.453125 21.523438 55.058594 24.265625 C 50.664062 27.007812 47.996094 31.820312 48 37 C 48 28.714844 41.285156 22 33 22 C 24.714844 22 18 28.714844 18 37 C 18.066406 40.234375 19.113281 43.371094 21 46 L 48 82 L 75 46 C 76.902344 43.566406 77.941406 40.570312 77.960938 37.480469 C 75.332031 36.816406 73.1875 34.921875 72.199219 32.398438 Z M 72.199219 32.398438 "/>
</g>
</svg>
