<?xml version="1.0" encoding="UTF-8"?>
<svg xmlns="http://www.w3.org/2000/svg" xmlns:xlink="http://www.w3.org/1999/xlink" width="96pt" height="96pt" viewBox="0 0 96 96" version="1.1">
<g id="surface1">
<path style=" stroke:none;fill-rule:evenodd;fill:rgb(30.196078%,30.196078%,30.196078%);fill-opacity:1;" d="M 47.367188 21.519531 C 44.960938 19.988281 42.375 18.792969 40.054688 18.113281 L 41.214844 14.617188 C 41.480469 13.851562 41.390625 12.742188 39.609375 11.292969 C 38.539062 10.441406 37.113281 9.675781 35.507812 9.078125 C 32.296875 7.882812 28.28125 7.289062 27.300781 9.417969 L 22.84375 19.902344 L 20.523438 25.699219 C 20.078125 26.890625 19.542969 28.167969 19.007812 29.703125 C 18.738281 30.554688 18.382812 31.40625 18.027344 32.429688 C 14.816406 41.039062 15.886719 47.089844 18.027344 52.628906 C 18.027344 52.933594 18.367188 39.792969 21.835938 35.53125 C 25.304688 31.269531 27.714844 28.570312 37.332031 27.554688 C 39.609375 25.699219 40.953125 24.683594 42.734375 23.6875 C 43.449219 23.292969 49.339844 20.707031 47.367188 21.519531 Z M 34.523438 11.550781 C 36.128906 12.144531 37.289062 12.828125 37.914062 13.339844 C 37.023438 13.253906 35.773438 13.082031 34.078125 12.402344 C 32.472656 11.804688 31.316406 11.125 30.691406 10.613281 C 31.582031 10.695312 32.921875 10.953125 34.523438 11.550781 Z M 34.523438 11.550781 "/>
<path style=" stroke:none;fill-rule:evenodd;fill:rgb(54.901961%,54.901961%,54.901961%);fill-opacity:1;" d="M 69.769531 36.933594 C 67.71875 34.632812 66.523438 36.773438 63.933594 35.40625 C 65.898438 35.066406 68.125 34.726562 68.214844 34.726562 C 68.304688 34.726562 68.484375 34.726562 68.574219 34.640625 C 69.195312 34.46875 70.355469 33.789062 70.355469 31.488281 C 70.355469 30.292969 70.179688 28.761719 69.644531 27.3125 C 68.660156 24.5 66.789062 21.429688 64.558594 21.855469 C 63.933594 21.941406 57.15625 22.539062 49.933594 25.519531 C 46.316406 26.714844 43.074219 28.703125 40.207031 31.488281 C 21.488281 30.316406 18.453125 51.089844 20.589844 56.628906 C 20.589844 57.738281 20.589844 58.929688 20.679688 60.210938 C 20.949219 67.367188 26.65625 73.675781 31.292969 77.679688 C 41.015625 85.949219 54.25 88.074219 63.882812 88.074219 C 64.417969 88.074219 64.863281 88.074219 65.308594 87.988281 C 69.324219 87.730469 72.445312 85.089844 74.585938 80.402344 C 79.847656 68.554688 77.261719 45.375 69.769531 36.933594 Z M 66.878906 28.164062 C 67.414062 29.699219 67.503906 30.804688 67.503906 31.574219 C 67.054688 30.976562 66.433594 30.039062 65.898438 28.503906 C 65.363281 26.96875 65.273438 25.863281 65.273438 25.09375 C 65.808594 25.605469 66.34375 26.628906 66.878906 28.164062 Z M 66.878906 28.164062 "/>
<path style=" stroke:none;fill-rule:evenodd;fill:rgb(100%,100%,100%);fill-opacity:1;" d="M 63.675781 35.394531 L 64.03125 35.449219 C 64.976562 35.792969 65.882812 35.953125 66.9375 35.824219 C 67.988281 35.695312 65.101562 36.992188 64.992188 37.167969 C 64.167969 37.523438 62.757812 38.496094 61.085938 39.28125 C 58.585938 40.21875 56 41.753906 54.394531 44.140625 C 54.308594 44.308594 54.574219 45.160156 54.929688 45.589844 C 55.464844 46.183594 55.378906 47.039062 54.753906 47.546875 C 54.484375 47.804688 54.21875 47.890625 53.859375 47.890625 C 53.59375 47.890625 53.324219 47.804688 53.058594 47.632812 C 52.878906 47.976562 52.789062 48.402344 52.703125 48.828125 C 52.253906 50.617188 51.988281 52.746094 52.167969 54.453125 C 52.34375 55.816406 53.859375 57.179688 55.554688 58.542969 C 56.535156 59.394531 57.605469 60.246094 58.5 61.269531 C 61.53125 62.632812 63.316406 63.996094 65.277344 65.53125 C 66.167969 66.300781 67.148438 67.066406 68.398438 67.917969 C 69.113281 68.34375 69.199219 69.195312 68.753906 69.792969 C 68.488281 70.21875 68.042969 70.390625 67.59375 70.390625 C 67.328125 70.390625 67.058594 70.304688 66.792969 70.132812 C 66.613281 69.964844 66.347656 69.792969 66.167969 69.621094 C 66.167969 70.390625 65.632812 70.988281 64.832031 71.070312 L 64.742188 71.070312 C 64.027344 71.070312 63.402344 70.476562 63.316406 69.792969 C 63.316406 69.28125 63.316406 68.855469 63.402344 68.429688 C 63.402344 68.089844 63.492188 67.664062 63.402344 67.492188 C 62.421875 66.726562 61.441406 66.042969 60.460938 65.363281 C 60.550781 65.617188 60.550781 65.789062 60.550781 66.042969 C 60.550781 66.15625 60.546875 66.269531 60.546875 66.386719 C 61.40625 67.496094 61.851562 69.277344 62.757812 71.09375 C 63.558594 72.695312 66.386719 74.070312 66.386719 75.621094 C 66.386719 77.109375 64.753906 78.242188 64.519531 79.34375 C 64.058594 81.507812 64.46875 82.992188 61.539062 82.992188 C 59.863281 82.992188 57.933594 81.023438 56.117188 80.257812 C 53.136719 79 50.546875 78.367188 50.546875 75.621094 C 50.546875 72.941406 53.039062 71.234375 54.796875 69.097656 C 55.460938 68.285156 55.90625 67.101562 56.511719 66.265625 L 56.511719 66.042969 C 56.601562 63.996094 55.734375 62.378906 53.683594 60.671875 C 53.324219 60.417969 52.96875 60.164062 52.703125 59.90625 C 52.253906 62.121094 51.273438 64.507812 50.117188 66.640625 C 50.027344 66.894531 50.203125 67.746094 50.382812 68.257812 C 50.5625 68.941406 50.738281 69.621094 50.738281 70.304688 C 50.738281 71.070312 50.117188 71.667969 49.3125 71.667969 C 48.511719 71.667969 47.886719 71.070312 47.886719 70.304688 L 47.886719 70.050781 L 47.171875 70.816406 C 46.816406 71.070312 46.457031 71.242188 46.101562 71.242188 C 45.746094 71.242188 45.386719 71.070312 45.121094 70.816406 C 44.585938 70.304688 44.585938 69.367188 45.121094 68.855469 C 47.617188 66.46875 50.5625 59.734375 50.117188 57.007812 C 49.667969 56.328125 49.402344 55.644531 49.3125 54.878906 C 49.222656 54.195312 49.222656 53.515625 49.222656 52.832031 C 48.242188 53.683594 47.261719 54.453125 46.816406 55.304688 C 46.546875 55.816406 46.011719 56.070312 45.476562 56.070312 C 45.300781 56.070312 45.03125 55.984375 44.851562 55.902344 C 44.140625 55.644531 43.785156 54.792969 44.140625 54.109375 C 44.851562 52.664062 46.191406 51.640625 47.527344 50.617188 C 48.511719 49.851562 49.667969 48.996094 49.847656 48.230469 C 50.382812 46.101562 50.917969 44.480469 51.007812 44.394531 C 52.871094 40.296875 56.695312 38.007812 60.273438 36.726562 C 60.953125 36.480469 63.089844 35.105469 64.03125 35.449219 Z M 63.675781 35.394531 "/>
</g>
</svg>
