<?xml version="1.0" encoding="UTF-8"?>
<svg xmlns="http://www.w3.org/2000/svg" xmlns:xlink="http://www.w3.org/1999/xlink" width="96pt" height="96pt" viewBox="0 0 96 96" version="1.1">
<g id="surface1">
<path style=" stroke:none;fill-rule:nonzero;fill:rgb(54.901961%,54.901961%,54.901961%);fill-opacity:1;" d="M 65.664062 38.027344 C 65.453125 37.609375 65.453125 37.609375 65.164062 37.113281 L 60.46875 37.113281 L 60.46875 28.800781 L 63.003906 28.800781 C 60.910156 27.8125 58.625 27.300781 56.3125 27.304688 C 52.128906 27.203125 48.085938 28.804688 45.105469 31.742188 C 42.128906 34.683594 40.472656 38.703125 40.519531 42.886719 C 40.519531 34.28125 33.542969 27.304688 24.933594 27.304688 C 16.328125 27.304688 9.351562 34.28125 9.351562 42.886719 C 9.4375 46.246094 10.523438 49.5 12.46875 52.238281 L 40.519531 89.640625 L 68.570312 52.238281 C 70.542969 49.691406 71.621094 46.566406 71.648438 43.34375 C 68.902344 42.660156 66.667969 40.671875 65.664062 38.027344 Z M 65.664062 38.027344 "/>
<path style=" stroke:none;fill-rule:nonzero;fill:rgb(54.901961%,54.901961%,54.901961%);fill-opacity:1;" d="M 85.121094 5.867188 L 74.808594 5.867188 C 73.398438 5.65625 71.976562 6.144531 70.980469 7.183594 C 69.984375 8.21875 69.542969 9.675781 69.785156 11.101562 L 69.851562 23.273438 C 69.855469 28.398438 74.265625 32.695312 79.296875 33.136719 C 79.296875 34.898438 78.496094 38.648438 75.871094 38.648438 C 73.914062 38.648438 73.203125 37.5625 72.09375 35.578125 C 71.429688 34.074219 70.347656 32.800781 68.980469 31.917969 C 67.355469 31.492188 65.671875 31.355469 64 31.511719 L 64 33.769531 C 65.269531 33.617188 66.554688 33.617188 67.824219 33.769531 C 68.832031 34.4375 69.621094 35.398438 70.089844 36.523438 C 71.03125 39.121094 73.503906 40.816406 76.226562 40.722656 C 80.363281 40.722656 81.695312 36.207031 81.875 32.914062 C 86.628906 32.15625 90.136719 28 90.144531 23.113281 L 90.144531 10.921875 C 90.324219 9.523438 89.851562 8.121094 88.867188 7.128906 C 87.878906 6.136719 86.496094 5.671875 85.121094 5.867188 Z M 87.230469 22.648438 C 87.4375 25.394531 86.105469 28.027344 83.78125 29.46875 C 81.453125 30.90625 78.523438 30.90625 76.199219 29.46875 C 73.871094 28.027344 72.539062 25.394531 72.75 22.648438 L 72.75 22.085938 C 74.683594 21.898438 76.574219 21.390625 78.34375 20.578125 L 80.609375 19.628906 C 82.730469 18.667969 85.152344 18.667969 87.273438 19.628906 Z M 87.230469 22.648438 "/>
</g>
</svg>
