<?xml version="1.0" encoding="UTF-8"?>
<svg xmlns="http://www.w3.org/2000/svg" xmlns:xlink="http://www.w3.org/1999/xlink" width="96pt" height="96pt" viewBox="0 0 96 96" version="1.1">
<g id="surface1">
<path style=" stroke:none;fill-rule:evenodd;fill:rgb(54.901961%,54.901961%,54.901961%);fill-opacity:1;" d="M 8 8 L 88 8 L 88 88 L 8 88 Z M 8 8 "/>
<path style=" stroke:none;fill-rule:nonzero;fill:rgb(100%,100%,100%);fill-opacity:1;" d="M 56.5625 51.09375 C 56.5625 51.09375 57.59375 40.9375 60.3125 40.0625 C 63 39.21875 74.65625 45.5 77.375 58.125 C 77.375 58.125 78.53125 59.75 78.4375 61.9375 C 78.4375 61.9375 79.0625 63.5625 79.0625 65.65625 C 79.0625 67.71875 78.8125 70.375 79.46875 73.25 C 80.125 76.09375 80.8125 80.75 77.28125 79.90625 C 73.71875 79.03125 73 77.90625 67.28125 78.1875 C 61.53125 78.46875 57.1875 78.8125 56.5625 72.5 C 56.5625 72.5 55.3125 67.0625 56.5625 64.21875 C 56.5625 64.1875 55.3125 53.09375 56.5625 51.09375 Z M 51.03125 45.9375 L 51.03125 19.03125 C 51.03125 17.3125 49.625 16 47.90625 16 C 46.1875 16 44.78125 17.3125 44.78125 18.90625 C 44.78125 18.9375 44.78125 18.96875 44.78125 19.03125 L 44.78125 46.34375 C 44.25 47.28125 42.875 49.0625 40 50.0625 C 40.40625 51.34375 40.59375 53.3125 40.5625 56 C 44 55.15625 46.40625 53.5625 48 51.96875 C 49.625 53.5625 52 55.15625 55.4375 56 C 55.40625 53.34375 55.59375 51.375 56 50.09375 C 52.625 48.90625 51.34375 46.625 51.03125 45.9375 Z M 39.4375 51.09375 C 39.4375 51.09375 38.40625 40.9375 35.6875 40.0625 C 33 39.21875 21.34375 45.5 18.625 58.125 C 18.625 58.125 17.46875 59.75 17.5625 61.9375 C 17.5625 61.9375 16.9375 63.5625 16.9375 65.65625 C 16.9375 67.71875 17.1875 70.375 16.53125 73.25 C 15.875 76.09375 15.1875 80.75 18.71875 79.90625 C 22.28125 79.03125 23 77.90625 28.71875 78.1875 C 34.46875 78.5 38.8125 78.8125 39.4375 72.5 C 39.4375 72.5 40.6875 67.0625 39.4375 64.21875 C 39.4375 64.1875 40.6875 53.09375 39.4375 51.09375 Z M 39.4375 51.09375 "/>
</g>
</svg>
