<?xml version="1.0" encoding="UTF-8"?>
<svg xmlns="http://www.w3.org/2000/svg" xmlns:xlink="http://www.w3.org/1999/xlink" width="96pt" height="96pt" viewBox="0 0 96 96" version="1.1">
<g id="surface1">
<path style=" stroke:none;fill-rule:evenodd;fill:rgb(100%,80.392157%,1.960784%);fill-opacity:1;" d="M 92 48 C 92 72.3125 72.3125 92 48 92 C 23.6875 92 4 72.3125 4 48 C 4 23.6875 23.6875 4 48 4 C 72.3125 4 92 23.6875 92 48 Z M 92 48 "/>
<path style=" stroke:none;fill-rule:nonzero;fill:rgb(100%,80.392157%,1.960784%);fill-opacity:1;" d="M 22.53125 48 C 21.03125 48 20 46.9375 20 45.34375 C 20 43.71875 21.03125 42.65625 22.53125 42.65625 C 24.0625 42.65625 25.09375 43.71875 25.09375 45.34375 C 25.09375 46.9375 24.0625 48 22.53125 48 Z M 22.53125 48 "/>
<path style=" stroke:none;fill-rule:nonzero;fill:rgb(100%,80.392157%,1.960784%);fill-opacity:1;" d="M 73.46875 42.65625 C 74.96875 42.65625 76 43.71875 76 45.34375 C 76 46.9375 74.96875 48 73.46875 48 C 71.9375 48 70.90625 46.9375 70.90625 45.34375 C 70.90625 43.71875 71.9375 42.65625 73.46875 42.65625 Z M 73.46875 42.65625 "/>
<path style=" stroke:none;fill-rule:evenodd;fill:rgb(30.196078%,30.196078%,30.196078%);fill-opacity:1;" d="M 42.90625 48 C 42.90625 43.59375 39.5 40 35.28125 40 C 31.0625 40 27.625 43.59375 27.625 48 C 27.625 52.40625 31.0625 56 35.28125 56 C 39.5 56 42.90625 52.40625 42.90625 48 Z M 42.90625 48 "/>
<path style=" stroke:none;fill-rule:evenodd;fill:rgb(30.196078%,30.196078%,30.196078%);fill-opacity:1;" d="M 68.375 40.03125 C 68.28125 40.0625 60.59375 40.03125 60.59375 40.03125 C 48.71875 40.03125 45.34375 48 45.34375 53.34375 C 45.34375 53.34375 45.34375 56.90625 45.34375 64.03125 L 45.34375 66.6875 L 70.90625 66.6875 L 70.90625 72 L 75.875 72 L 75.875 40.03125 C 70.875 40.03125 68.375 40.03125 68.375 40.03125 Z M 68.375 40.03125 "/>
<path style=" stroke:none;fill-rule:evenodd;fill:rgb(30.196078%,30.196078%,30.196078%);fill-opacity:1;" d="M 25.09375 40 L 20 40 L 20 72 L 25.09375 72 L 25.09375 63.96875 L 75.71875 63.96875 L 75.71875 58.5625 L 25.09375 58.5625 Z M 25.09375 40 "/>
<path style=" stroke:none;fill-rule:evenodd;fill:rgb(30.196078%,30.196078%,30.196078%);fill-opacity:1;" d="M 22.65625 35.6875 C 20.65625 34.875 19.4375 32.46875 20.25 30.46875 C 21.0625 28.46875 23.4375 27.28125 25.84375 28.46875 C 27.84375 29.28125 28.65625 31.6875 27.84375 33.6875 C 27.0625 35.6875 24.65625 36.46875 22.65625 35.6875 "/>
<path style=" stroke:none;fill-rule:evenodd;fill:rgb(30.196078%,30.196078%,30.196078%);fill-opacity:1;" d="M 29.1875 17.1875 C 30.78125 15.59375 33.1875 15.59375 34.78125 17.1875 C 36.40625 18.8125 36.40625 21.1875 34.78125 22.8125 C 33.1875 24.40625 30.78125 24.40625 29.1875 22.8125 C 27.59375 21.1875 27.59375 18.8125 29.1875 17.1875 Z M 29.1875 17.1875 "/>
<path style=" stroke:none;fill-rule:evenodd;fill:rgb(30.196078%,30.196078%,30.196078%);fill-opacity:1;" d="M 61.1875 17.1875 C 62.78125 15.59375 65.1875 15.59375 66.78125 17.1875 C 68.40625 18.8125 68.40625 21.1875 66.78125 22.8125 C 65.1875 24.40625 62.78125 24.40625 61.1875 22.8125 C 59.59375 21.1875 59.59375 18.8125 61.1875 17.1875 "/>
<path style=" stroke:none;fill-rule:evenodd;fill:rgb(30.196078%,30.196078%,30.196078%);fill-opacity:1;" d="M 70.65625 28.3125 C 72.65625 27.5 75.0625 28.3125 75.84375 30.6875 C 76.65625 33.09375 75.84375 35.09375 73.4375 35.90625 C 71.4375 36.6875 69.0625 35.90625 68.25 33.5 C 67.4375 31.09375 68.65625 29.5 70.65625 28.3125 "/>
<path style=" stroke:none;fill-rule:evenodd;fill:rgb(30.196078%,30.196078%,30.196078%);fill-opacity:1;" d="M 44 16 C 44 13.59375 45.59375 12 48 12 C 50.40625 12 52 13.59375 52 16 C 52 18.40625 50.40625 20 48 20 C 45.59375 20 44 18.40625 44 16 "/>
</g>
</svg>
