<?xml version="1.0" encoding="UTF-8"?>
<svg xmlns="http://www.w3.org/2000/svg" xmlns:xlink="http://www.w3.org/1999/xlink" width="96pt" height="96pt" viewBox="0 0 96 96" version="1.1">
<g id="surface1">
<path style=" stroke:none;fill-rule:evenodd;fill:rgb(100%,80.392157%,1.960784%);fill-opacity:1;" d="M 92 48 C 92 72.3125 72.3125 92 48 92 C 23.6875 92 4 72.3125 4 48 C 4 23.6875 23.6875 4 48 4 C 72.3125 4 92 23.6875 92 48 Z M 92 48 "/>
<path style=" stroke:none;fill-rule:evenodd;fill:rgb(30.196078%,30.196078%,30.196078%);fill-opacity:1;" d="M 12 52 C 9.59375 52 8 50.40625 8 48 C 8 45.59375 9.59375 44 12 44 C 14.40625 44 16 45.59375 16 48 C 16 50.40625 14.40625 52 12 52 "/>
<path style=" stroke:none;fill-rule:evenodd;fill:rgb(30.196078%,30.196078%,30.196078%);fill-opacity:1;" d="M 14.65625 35.6875 C 12.65625 34.875 11.4375 32.46875 12.25 30.46875 C 13.0625 28.46875 15.4375 27.28125 17.84375 28.46875 C 19.84375 29.28125 20.65625 31.6875 19.84375 33.6875 C 19.0625 35.6875 16.65625 36.46875 14.65625 35.6875 "/>
<path style=" stroke:none;fill-rule:evenodd;fill:rgb(30.196078%,30.196078%,30.196078%);fill-opacity:1;" d="M 22.3125 17.5625 C 23.90625 15.96875 26.3125 15.96875 27.90625 17.5625 C 29.53125 19.1875 29.53125 21.5625 27.90625 23.1875 C 26.3125 24.78125 23.90625 24.78125 22.3125 23.1875 C 20.71875 21.5625 20.71875 19.1875 22.3125 17.5625 Z M 22.3125 17.5625 "/>
<path style=" stroke:none;fill-rule:evenodd;fill:rgb(30.196078%,30.196078%,30.196078%);fill-opacity:1;" d="M 52 12 C 52 9.59375 53.59375 8 56 8 C 58.40625 8 60 9.59375 60 12 C 60 14.40625 58.40625 16 56 16 C 53.59375 16 52 14.40625 52 12 "/>
<path style=" stroke:none;fill-rule:evenodd;fill:rgb(30.196078%,30.196078%,30.196078%);fill-opacity:1;" d="M 36 12 C 36 9.59375 37.59375 8 40 8 C 42.40625 8 44 9.59375 44 12 C 44 14.40625 42.40625 16 40 16 C 37.59375 16 36 14.40625 36 12 "/>
<path style=" stroke:none;fill-rule:evenodd;fill:rgb(30.196078%,30.196078%,30.196078%);fill-opacity:1;" d="M 66.96875 17.1875 C 68.5625 15.59375 70.96875 15.59375 72.5625 17.1875 C 74.15625 18.8125 74.15625 21.1875 72.5625 22.8125 C 70.96875 24.40625 68.5625 24.40625 66.96875 22.8125 C 65.34375 21.1875 65.34375 18.8125 66.96875 17.1875 "/>
<path style=" stroke:none;fill-rule:evenodd;fill:rgb(30.196078%,30.196078%,30.196078%);fill-opacity:1;" d="M 78.65625 28.3125 C 80.65625 27.5 83.0625 28.3125 83.84375 30.6875 C 84.65625 33.09375 83.84375 35.09375 81.4375 35.90625 C 79.4375 36.6875 77.0625 35.90625 76.25 33.5 C 75.4375 31.09375 76.65625 29.5 78.65625 28.3125 "/>
<path style=" stroke:none;fill-rule:evenodd;fill:rgb(30.196078%,30.196078%,30.196078%);fill-opacity:1;" d="M 84 44 C 86.40625 44 88 45.59375 88 48 C 88 50.40625 86.40625 52 84 52 C 81.59375 52 80 50.40625 80 48 C 80 45.59375 81.59375 44 84 44 "/>
<path style=" stroke:none;fill-rule:evenodd;fill:rgb(30.196078%,30.196078%,30.196078%);fill-opacity:1;" d="M 14.65625 60.3125 C 12.65625 61.125 11.4375 63.53125 12.25 65.53125 C 13.0625 67.53125 15.4375 68.71875 17.84375 67.53125 C 19.84375 66.71875 20.65625 64.3125 19.84375 62.3125 C 19.0625 60.3125 16.65625 59.53125 14.65625 60.3125 "/>
<path style=" stroke:none;fill-rule:evenodd;fill:rgb(30.196078%,30.196078%,30.196078%);fill-opacity:1;" d="M 22.3125 78.4375 C 23.90625 80.03125 26.3125 80.03125 27.90625 78.4375 C 29.53125 76.8125 29.53125 74.4375 27.90625 72.8125 C 26.3125 71.21875 23.90625 71.21875 22.3125 72.8125 C 20.71875 74.4375 20.71875 76.8125 22.3125 78.4375 Z M 22.3125 78.4375 "/>
<path style=" stroke:none;fill-rule:evenodd;fill:rgb(30.196078%,30.196078%,30.196078%);fill-opacity:1;" d="M 52 84 C 52 86.40625 53.59375 88 56 88 C 58.40625 88 60 86.40625 60 84 C 60 81.59375 58.40625 80 56 80 C 53.59375 80 52 81.59375 52 84 "/>
<path style=" stroke:none;fill-rule:evenodd;fill:rgb(30.196078%,30.196078%,30.196078%);fill-opacity:1;" d="M 36 84 C 36 86.40625 37.59375 88 40 88 C 42.40625 88 44 86.40625 44 84 C 44 81.59375 42.40625 80 40 80 C 37.59375 80 36 81.59375 36 84 "/>
<path style=" stroke:none;fill-rule:evenodd;fill:rgb(30.196078%,30.196078%,30.196078%);fill-opacity:1;" d="M 66.96875 78.8125 C 68.5625 80.40625 70.96875 80.40625 72.5625 78.8125 C 74.15625 77.1875 74.15625 74.8125 72.5625 73.1875 C 70.96875 71.59375 68.5625 71.59375 66.96875 73.1875 C 65.34375 74.8125 65.34375 77.1875 66.96875 78.8125 "/>
<path style=" stroke:none;fill-rule:evenodd;fill:rgb(30.196078%,30.196078%,30.196078%);fill-opacity:1;" d="M 78.65625 67.6875 C 80.65625 68.5 83.0625 67.6875 83.84375 65.3125 C 84.65625 62.90625 83.84375 60.90625 81.4375 60.09375 C 79.4375 59.3125 77.0625 60.09375 76.25 62.5 C 75.4375 64.90625 76.65625 66.5 78.65625 67.6875 "/>
<path style=" stroke:none;fill-rule:evenodd;fill:rgb(30.196078%,30.196078%,30.196078%);fill-opacity:1;" d="M 56.5625 43.84375 C 56.5625 42.84375 55.8125 42.125 54.84375 42.125 L 54.5625 42.125 C 53.78125 42.28125 53.15625 43 53.15625 43.84375 L 53.125 72 L 49.71875 72 L 49.71875 56.0625 C 49.71875 55.21875 49.09375 54.5 48.3125 54.375 L 48 54.34375 L 47.6875 54.375 C 46.90625 54.5 46.28125 55.21875 46.28125 56.0625 L 46.28125 72 L 42.84375 72 L 42.84375 43.84375 C 42.84375 42.96875 42.25 42.28125 41.4375 42.125 L 40.84375 42.125 C 40.0625 42.28125 39.4375 43 39.4375 43.84375 L 39.4375 54.34375 L 36 54.34375 L 36 44 C 36 39.5625 39.59375 36 44 36 L 52 36 C 56.4375 36 60 39.59375 60 44 L 60 54.34375 L 56.5625 54.34375 Z M 56.5625 43.84375 "/>
<path style=" stroke:none;fill-rule:evenodd;fill:rgb(30.196078%,30.196078%,30.196078%);fill-opacity:1;" d="M 44 28 C 44 25.875 45.875 24 48 24 C 50.125 24 52 25.875 52 28 C 52 30.125 50.125 32 48 32 C 45.875 32 44 30.125 44 28 Z M 44 28 "/>
</g>
</svg>
