<?xml version="1.0" encoding="UTF-8"?>
<svg xmlns="http://www.w3.org/2000/svg" xmlns:xlink="http://www.w3.org/1999/xlink" width="96pt" height="96pt" viewBox="0 0 96 96" version="1.1">
<g id="surface1">
<path style=" stroke:none;fill-rule:nonzero;fill:rgb(54.901961%,54.901961%,54.901961%);fill-opacity:1;" d="M 30.167969 53.292969 C 29.941406 53.167969 29.734375 53.003906 29.554688 52.816406 C 31.300781 51.738281 32.371094 49.84375 32.394531 47.796875 C 32.433594 46.65625 32.128906 45.53125 31.519531 44.566406 C 35.171875 42.578125 37.617188 38.925781 38.066406 34.792969 C 38.148438 34.449219 38.148438 34.089844 38.066406 33.746094 C 37.761719 33.746094 37.761719 33.441406 37.761719 33.441406 L 37.761719 32.960938 C 37.0625 26.949219 31.894531 22.464844 25.847656 22.617188 L 25.542969 22.617188 C 22.484375 22.496094 19.511719 23.652344 17.339844 25.804688 L 16.902344 26.238281 C 9.03125 33.921875 6.101562 45.351562 9.308594 55.867188 C 10.269531 60.011719 12.320312 63.820312 15.242188 66.910156 C 17.992188 69.421875 21.832031 70.359375 25.425781 69.394531 C 29.023438 68.433594 31.878906 65.703125 33.003906 62.152344 C 34.082031 58.898438 32.933594 55.320312 30.167969 53.292969 Z M 30.167969 53.292969 "/>
<path style=" stroke:none;fill-rule:nonzero;fill:rgb(54.901961%,54.901961%,54.901961%);fill-opacity:1;" d="M 38.980469 42.910156 C 38.710938 42.621094 38.332031 42.457031 37.933594 42.457031 C 37.539062 42.457031 37.160156 42.621094 36.886719 42.910156 C 36.257812 43.382812 35.546875 43.734375 34.792969 43.957031 C 34.34375 44.417969 33.847656 44.828125 33.308594 45.179688 C 33.613281 46.015625 33.761719 46.90625 33.746094 47.796875 C 33.789062 48.792969 33.578125 49.785156 33.132812 50.675781 C 34.925781 51.230469 36.226562 52.785156 36.449219 54.648438 L 36.449219 83.664062 C 36.410156 84.074219 36.554688 84.476562 36.839844 84.773438 C 37.125 85.066406 37.527344 85.21875 37.933594 85.191406 C 38.339844 85.207031 38.730469 85.046875 39.015625 84.757812 C 39.296875 84.464844 39.441406 84.070312 39.417969 83.664062 L 39.417969 54.648438 C 39.175781 51.410156 37.003906 48.636719 33.921875 47.621094 C 35.773438 47.167969 37.503906 46.300781 38.980469 45.089844 C 39.570312 44.480469 39.570312 43.519531 38.980469 42.910156 Z M 38.980469 42.910156 "/>
<path style=" stroke:none;fill-rule:nonzero;fill:rgb(54.901961%,54.901961%,54.901961%);fill-opacity:1;" d="M 67.128906 36.800781 C 66.910156 36.363281 66.910156 36.363281 66.605469 35.839844 L 61.671875 35.839844 L 61.671875 27.113281 L 65.730469 27.113281 L 65.425781 26.71875 L 64.988281 26.285156 C 62.8125 24.128906 59.84375 22.976562 56.785156 23.097656 L 56.480469 23.097656 C 50.375 22.875 45.117188 27.371094 44.394531 33.441406 L 44.394531 33.746094 C 44.449219 34.09375 44.449219 34.445312 44.394531 34.792969 C 44.84375 38.925781 47.289062 42.578125 50.9375 44.566406 C 50.351562 45.539062 50.046875 46.660156 50.066406 47.796875 C 50.089844 49.84375 51.160156 51.738281 52.902344 52.816406 C 52.722656 53.003906 52.519531 53.167969 52.289062 53.292969 C 49.476562 55.34375 48.328125 58.988281 49.453125 62.285156 C 50.6875 65.574219 53.429688 68.066406 56.820312 68.984375 C 60.210938 69.898438 63.835938 69.128906 66.558594 66.910156 C 69.515625 63.789062 71.582031 59.929688 72.539062 55.738281 C 73.648438 51.300781 73.886719 46.695312 73.238281 42.167969 C 70.46875 41.441406 68.203125 39.453125 67.128906 36.800781 Z M 67.128906 36.800781 "/>
<path style=" stroke:none;fill-rule:nonzero;fill:rgb(54.901961%,54.901961%,54.901961%);fill-opacity:1;" d="M 47.011719 43.957031 C 46.328125 43.695312 45.679688 43.34375 45.089844 42.910156 C 44.828125 42.625 44.453125 42.460938 44.066406 42.460938 C 43.675781 42.460938 43.304688 42.625 43.039062 42.910156 C 42.75 43.1875 42.585938 43.574219 42.585938 43.976562 C 42.585938 44.382812 42.75 44.765625 43.039062 45.046875 C 44.601562 46.25 46.359375 47.179688 48.234375 47.796875 C 48.25 46.90625 48.398438 46.023438 48.667969 45.179688 C 48.054688 44.863281 47.496094 44.449219 47.011719 43.957031 Z M 47.011719 43.957031 "/>
<path style=" stroke:none;fill-rule:nonzero;fill:rgb(54.901961%,54.901961%,54.901961%);fill-opacity:1;" d="M 48.058594 47.796875 C 44.871094 48.59375 42.574219 51.367188 42.386719 54.648438 L 42.386719 83.664062 C 42.28125 84.265625 42.546875 84.867188 43.054688 85.199219 C 43.5625 85.535156 44.21875 85.535156 44.726562 85.199219 C 45.234375 84.867188 45.5 84.265625 45.394531 83.664062 L 45.394531 54.648438 C 45.617188 52.796875 46.894531 51.246094 48.667969 50.675781 C 48.320312 49.753906 48.113281 48.78125 48.058594 47.796875 Z M 48.058594 47.796875 "/>
<path style=" stroke:none;fill-rule:nonzero;fill:rgb(54.901961%,54.901961%,54.901961%);fill-opacity:1;" d="M 85.121094 4.410156 L 74.808594 4.410156 C 73.398438 4.203125 71.976562 4.691406 70.980469 5.726562 C 69.984375 6.765625 69.542969 8.222656 69.785156 9.648438 L 69.851562 21.816406 C 69.855469 26.945312 74.265625 31.238281 79.296875 31.683594 C 79.296875 33.445312 78.496094 37.191406 75.871094 37.191406 C 73.914062 37.191406 73.203125 36.109375 72.09375 34.121094 C 71.429688 32.621094 70.347656 31.347656 68.980469 30.464844 C 67.355469 30.039062 65.671875 29.898438 64 30.058594 L 64 32.316406 C 65.269531 32.160156 66.554688 32.160156 67.824219 32.316406 C 68.832031 32.984375 69.621094 33.941406 70.089844 35.070312 C 71.03125 37.667969 73.503906 39.359375 76.226562 39.269531 C 80.363281 39.269531 81.695312 34.753906 81.875 31.457031 C 86.628906 30.703125 90.136719 26.546875 90.144531 21.660156 L 90.144531 9.46875 C 90.324219 8.070312 89.851562 6.667969 88.867188 5.675781 C 87.878906 4.683594 86.496094 4.214844 85.121094 4.410156 Z M 87.230469 21.195312 C 87.4375 23.941406 86.105469 26.574219 83.78125 28.011719 C 81.453125 29.449219 78.523438 29.449219 76.199219 28.011719 C 73.871094 26.574219 72.539062 23.941406 72.75 21.195312 L 72.75 20.632812 C 74.683594 20.445312 76.574219 19.933594 78.34375 19.121094 L 80.609375 18.171875 C 82.730469 17.214844 85.152344 17.214844 87.273438 18.171875 Z M 87.230469 21.195312 "/>
</g>
</svg>
