<?xml version="1.0" encoding="UTF-8"?>
<svg xmlns="http://www.w3.org/2000/svg" xmlns:xlink="http://www.w3.org/1999/xlink" width="96pt" height="96pt" viewBox="0 0 96 96" version="1.1">
<g id="surface1">
<path style=" stroke:none;fill-rule:nonzero;fill:rgb(54.901961%,54.901961%,54.901961%);fill-opacity:1;" d="M 80.878906 13.34375 L 80.679688 13.148438 C 80.480469 12.949219 80.277344 12.753906 80.078125 12.554688 L 79.878906 12.359375 L 79.675781 12.160156 C 76.46875 9.203125 72.460938 7.820312 68.648438 8.019531 C 68.648438 8.019531 68.449219 8.019531 68.25 8.019531 C 59.628906 8.019531 52.609375 13.9375 52.007812 21.433594 C 52.007812 21.433594 52.007812 21.628906 52.007812 22.023438 C 52.007812 22.023438 52.007812 22.222656 52.007812 22.421875 C 52.007812 22.816406 52.007812 23.210938 51.808594 23.800781 C 52.410156 27.15625 54.214844 33.46875 60.628906 36.425781 C 59.828125 37.609375 59.429688 38.992188 59.429688 40.570312 C 59.429688 43.332031 61.03125 45.699219 63.238281 47.078125 C 63.035156 47.277344 62.835938 47.472656 62.433594 47.671875 C 58.828125 49.84375 57.023438 55.167969 58.625 59.3125 C 62.234375 69.175781 75.265625 72.527344 82.484375 65.425781 C 86.492188 61.480469 89.101562 56.550781 90.503906 51.027344 C 94.113281 36.425781 91.304688 23.605469 80.878906 13.34375 Z M 56.21875 35.636719 C 54.816406 35.046875 53.8125 34.652344 53.414062 34.257812 C 52.609375 33.46875 51.410156 33.46875 50.605469 34.257812 C 49.804688 35.046875 49.804688 36.230469 50.605469 37.019531 C 52.007812 38.398438 55.015625 39.582031 57.625 40.570312 C 57.625 39.386719 57.824219 38.398438 58.226562 37.214844 C 57.421875 36.820312 56.820312 36.230469 56.21875 35.636719 Z M 57.625 40.570312 C 54.617188 41.554688 50.003906 44.121094 50.003906 49.445312 L 50.003906 86.929688 C 50.003906 88.113281 50.808594 88.902344 52.007812 88.902344 C 53.210938 88.902344 54.015625 88.113281 54.015625 86.929688 L 54.015625 49.445312 C 54.015625 46.683594 56.621094 45.105469 58.425781 44.316406 C 58.023438 43.132812 57.625 41.753906 57.625 40.570312 Z M 45.394531 34.257812 C 44.589844 33.46875 43.390625 33.46875 42.585938 34.257812 C 42.1875 34.652344 40.984375 35.242188 39.78125 35.636719 C 39.179688 36.230469 38.578125 36.625 37.773438 37.214844 C 38.175781 38.203125 38.375 39.386719 38.375 40.570312 C 38.375 41.949219 38.175781 43.132812 37.574219 44.316406 C 39.578125 45.105469 41.984375 46.882812 41.984375 49.445312 L 41.984375 86.929688 C 41.984375 88.113281 42.789062 88.902344 43.992188 88.902344 C 45.191406 88.902344 45.996094 88.113281 45.996094 86.929688 L 45.996094 49.445312 C 45.996094 44.121094 41.382812 41.554688 38.578125 40.371094 C 41.183594 39.582031 44.191406 38.398438 45.394531 37.019531 C 46.195312 36.230469 46.195312 35.046875 45.394531 34.257812 Z M 33.566406 47.671875 C 33.164062 47.472656 32.964844 47.277344 32.761719 47.078125 C 34.96875 45.699219 36.570312 43.332031 36.570312 40.570312 C 36.570312 38.992188 36.171875 37.609375 35.371094 36.425781 C 41.785156 33.46875 43.589844 27.15625 44.191406 23.800781 C 44.390625 23.40625 44.390625 22.816406 44.390625 22.421875 C 43.992188 22.222656 43.992188 22.023438 43.992188 22.023438 C 43.992188 21.628906 43.992188 21.433594 43.992188 21.433594 C 43.390625 13.9375 36.371094 8.019531 27.75 8.019531 C 27.550781 8.019531 27.351562 8.019531 27.351562 8.019531 C 23.539062 7.820312 19.53125 9.203125 16.324219 12.160156 L 16.121094 12.359375 L 15.921875 12.554688 C 15.722656 12.753906 15.519531 12.949219 15.320312 13.148438 L 15.121094 13.34375 C 4.695312 23.605469 1.886719 36.425781 5.496094 51.027344 C 6.898438 56.550781 9.507812 61.480469 13.515625 65.425781 C 20.734375 72.527344 33.765625 69.175781 37.375 59.3125 C 38.976562 55.167969 37.171875 49.84375 33.566406 47.671875 Z M 33.566406 47.671875 "/>
</g>
</svg>
