<?xml version="1.0" encoding="UTF-8"?>
<svg xmlns="http://www.w3.org/2000/svg" xmlns:xlink="http://www.w3.org/1999/xlink" width="96pt" height="96pt" viewBox="0 0 96 96" version="1.1">
<g id="surface1">
<path style=" stroke:none;fill-rule:nonzero;fill:rgb(54.901961%,54.901961%,54.901961%);fill-opacity:1;" d="M 67.863281 21.023438 L 62.652344 15.808594 L 70.460938 8 L 75.675781 13.214844 Z M 72.171875 77.171875 L 66.828125 77.171875 C 74.410156 71.964844 79.394531 63.21875 79.394531 53.3125 C 79.394531 42.9375 73.925781 33.878906 65.707031 28.785156 L 70.671875 23.8125 L 60.453125 13.582031 L 32.375 41.707031 L 34.917969 44.257812 L 32.375 46.804688 L 37.484375 51.921875 L 40.03125 49.371094 L 42.578125 51.921875 L 60.417969 34.0625 C 67.386719 37.660156 72.171875 44.90625 72.171875 53.292969 C 72.171875 65.261719 62.457031 74.984375 50.503906 74.984375 C 44.273438 74.984375 38.65625 72.328125 34.703125 68.117188 L 41.476562 68.117188 L 41.476562 60.886719 L 18 60.886719 L 18 68.117188 L 25.710938 68.117188 C 27.859375 71.714844 30.765625 74.785156 34.214844 77.15625 L 28.835938 77.15625 L 28.835938 80.769531 L 21.613281 80.769531 L 21.613281 88 L 79.394531 88 L 79.394531 80.769531 L 72.171875 80.769531 Z M 72.171875 77.171875 "/>
</g>
</svg>
