<?xml version="1.0" encoding="UTF-8"?>
<svg xmlns="http://www.w3.org/2000/svg" xmlns:xlink="http://www.w3.org/1999/xlink" width="96pt" height="96pt" viewBox="0 0 96 96" version="1.1">
<g id="surface1">
<path style=" stroke:none;fill-rule:nonzero;fill:rgb(54.901961%,54.901961%,54.901961%);fill-opacity:1;" d="M 47.78125 8 L 47.78125 11.9375 L 45.78125 11.9375 L 45.78125 25.09375 L 64 54.9375 L 64 69.59375 C 62.5625 70.40625 60.71875 70.90625 58.5 71 L 17.75 71 C 8.96875 71 5.4375 64.9375 10 57.46875 L 29.75 25.09375 L 29.75 11.9375 L 27.75 11.9375 L 27.75 8 Z M 41.78125 11.9375 L 33.78125 11.9375 L 33.78125 26.125 L 20.8125 47.375 L 54.65625 47.375 L 41.78125 26.125 Z M 41.78125 11.9375 "/>
<path style="fill:none;stroke-width:1;stroke-linecap:butt;stroke-linejoin:miter;stroke:rgb(54.901961%,54.901961%,54.901961%);stroke-opacity:1;stroke-miterlimit:4;" d="M 4.5 3.5 L 4.5 13.492188 C 4.5 14.023438 4.296875 14.507812 3.960938 14.867188 C 3.625 15.226562 3.164062 15.460938 2.648438 15.492188 C 2.03125 15.492188 1.492188 15.28125 1.109375 14.921875 C 0.726562 14.554688 0.5 14.054688 0.5 13.492188 L 0.5 3.5 Z M 4.5 3.5 " transform="matrix(4,0,0,4,68,24)"/>
<path style="fill-rule:evenodd;fill:rgb(54.901961%,54.901961%,54.901961%);fill-opacity:1;stroke-width:1;stroke-linecap:butt;stroke-linejoin:miter;stroke:rgb(54.901961%,54.901961%,54.901961%);stroke-opacity:1;stroke-miterlimit:4;" d="M 2.875 7.710938 C 3.117188 7.4375 3.359375 7.515625 3.5 7.601562 L 3.5 13.492188 C 3.5 13.757812 3.398438 13.992188 3.242188 14.171875 C 3.078125 14.351562 2.859375 14.46875 2.609375 14.492188 C 2.289062 14.492188 2.007812 14.382812 1.8125 14.203125 C 1.617188 14.023438 1.5 13.773438 1.5 13.492188 L 1.5 8.21875 C 2.109375 8.25 2.492188 8.132812 2.875 7.710938 Z M 2.875 7.710938 " transform="matrix(4,0,0,4,68,24)"/>
<path style=" stroke:none;fill-rule:evenodd;fill:rgb(54.901961%,54.901961%,54.901961%);fill-opacity:1;" d="M 68 24 L 88 24 L 88 32 L 68 32 Z M 68 24 "/>
</g>
</svg>
