<?xml version="1.0" encoding="UTF-8"?>
<svg xmlns="http://www.w3.org/2000/svg" xmlns:xlink="http://www.w3.org/1999/xlink" width="96px" height="px" viewBox="0 0 96 96" version="1.1">
<g id="surface1">
<path style=" stroke:none;fill-rule:nonzero;fill:rgb(54.901961%,54.901961%,54.901961%);fill-opacity:1;" d="M 64 60 L 64.441406 59.398438 C 66.996094 55.765625 68.390625 51.441406 68.441406 47 C 68.441406 36.441406 50.398438 11 49.640625 10 L 48 8 L 46.71875 9.761719 C 45.878906 10.800781 28 35.28125 28 46.800781 C 27.773438 52.28125 29.769531 57.625 33.53125 61.613281 C 37.296875 65.605469 42.515625 67.90625 48 68 L 48.320312 68 C 54.242188 68.007812 59.832031 65.257812 63.441406 60.558594 C 63.636719 60.382812 63.824219 60.199219 64 60 Z M 64 60 "/>
<path style=" stroke:none;fill-rule:nonzero;fill:rgb(54.901961%,54.901961%,54.901961%);fill-opacity:1;" d="M 88 86.160156 C 83.347656 86.183594 78.855469 84.472656 75.398438 81.359375 C 73.445312 79.480469 70.902344 78.335938 68.199219 78.121094 C 65.253906 78.332031 62.449219 79.484375 60.199219 81.398438 C 56.871094 84.160156 52.722656 85.734375 48.398438 85.878906 C 44.238281 85.800781 40.238281 84.242188 37.121094 81.480469 C 35.085938 79.582031 32.457031 78.453125 29.679688 78.28125 C 27.253906 78.5 24.957031 79.480469 23.121094 81.078125 C 18.824219 84.46875 13.46875 86.226562 8 86.039062 L 8 82.039062 C 12.515625 82.085938 16.910156 80.574219 20.441406 77.761719 C 22.945312 75.691406 26.039062 74.472656 29.28125 74.28125 C 32.914062 74.433594 36.378906 75.847656 39.078125 78.28125 C 41.535156 80.492188 44.695312 81.769531 48 81.878906 C 51.523438 81.703125 54.894531 80.382812 57.601562 78.121094 C 60.53125 75.703125 64.164062 74.300781 67.960938 74.121094 C 71.515625 74.304688 74.894531 75.71875 77.519531 78.121094 C 80.347656 80.757812 84.09375 82.195312 87.960938 82.121094 L 87.960938 86.121094 Z M 88 86.160156 "/>
</g>
</svg>
