<?xml version="1.0" encoding="UTF-8"?>
<svg xmlns="http://www.w3.org/2000/svg" xmlns:xlink="http://www.w3.org/1999/xlink" width="96px" height="px" viewBox="0 0 96 96" version="1.1">
<g id="surface1">
<path style=" stroke:none;fill-rule:nonzero;fill:rgb(54.901961%,54.901961%,54.901961%);fill-opacity:1;" d="M 47 81.558594 C 46.082031 81.777344 45.144531 81.882812 44.199219 81.878906 C 40.894531 81.769531 37.738281 80.492188 35.28125 78.28125 C 32.578125 75.847656 29.113281 74.433594 25.480469 74.28125 C 22.25 74.464844 19.164062 75.6875 16.679688 77.761719 C 13.070312 80.601562 8.59375 82.113281 4 82.039062 L 4 86.039062 L 4.320312 86.039062 C 9.550781 86.039062 14.632812 84.292969 18.761719 81.078125 C 20.597656 79.480469 22.894531 78.5 25.320312 78.28125 C 28.097656 78.453125 30.726562 79.582031 32.761719 81.480469 C 35.867188 84.230469 39.851562 85.792969 44 85.878906 C 45.644531 85.875 47.28125 85.605469 48.839844 85.078125 C 48.128906 83.960938 47.515625 82.78125 47 81.558594 Z M 47 81.558594 "/>
<path style=" stroke:none;fill-rule:nonzero;fill:rgb(100%,80.392157%,1.960784%);fill-opacity:1;" d="M 70.28125 92 C 61.382812 92 53.359375 86.640625 49.953125 78.417969 C 46.550781 70.199219 48.433594 60.734375 54.722656 54.445312 C 61.015625 48.152344 70.476562 46.269531 78.699219 49.675781 C 86.917969 53.078125 92.28125 61.101562 92.28125 70 C 92.171875 82.105469 82.386719 91.890625 70.28125 92 Z M 70.28125 92 "/>
<path style=" stroke:none;fill-rule:nonzero;fill:rgb(30.196078%,30.196078%,30.196078%);fill-opacity:1;" d="M 68.28125 56 L 72.28125 56 L 72.28125 76.359375 L 68.28125 76.359375 Z M 68.28125 78.921875 L 72.28125 78.921875 L 72.28125 84 L 68.28125 84 Z M 68.28125 78.921875 "/>
<path style=" stroke:none;fill-rule:nonzero;fill:rgb(54.901961%,54.901961%,54.901961%);fill-opacity:1;" d="M 64 45.160156 C 62.441406 33.839844 46.078125 10.800781 45.359375 9.800781 L 44 8 L 42.71875 9.761719 C 41.960938 10.800781 24 35.28125 24 46.800781 C 23.773438 52.28125 25.769531 57.625 29.53125 61.613281 C 33.296875 65.605469 38.515625 67.90625 44 68 L 44.480469 68 C 45.449219 57.003906 53.289062 47.832031 64 45.160156 Z M 64 45.160156 "/>
</g>
</svg>
