<?xml version="1.0" encoding="UTF-8"?>
<svg xmlns="http://www.w3.org/2000/svg" xmlns:xlink="http://www.w3.org/1999/xlink" width="96pt" height="96pt" viewBox="0 0 96 96" version="1.1">
<g id="surface1">
<path style=" stroke:none;fill-rule:nonzero;fill:rgb(54.901961%,54.901961%,54.901961%);fill-opacity:1;" d="M 53.316406 53.613281 C 53.316406 53.613281 54.371094 42.75 56.9375 41.820312 C 59.507812 40.894531 70.578125 47.589844 73.273438 61.191406 C 74 62.472656 74.363281 63.929688 74.328125 65.402344 C 74.707031 66.671875 74.90625 67.992188 74.917969 69.316406 C 74.628906 72.03125 74.628906 74.769531 74.917969 77.484375 C 75.507812 80.515625 76.265625 85.527344 72.8125 84.601562 C 69.902344 83.199219 66.691406 82.535156 63.464844 82.664062 C 58.074219 82.957031 53.863281 83.421875 53.273438 76.601562 C 52.636719 73.660156 52.636719 70.617188 53.273438 67.675781 C 52.691406 63.003906 52.707031 58.277344 53.316406 53.613281 Z M 45.527344 48.8125 L 45.527344 24.601562 C 45.347656 23.074219 44.054688 21.925781 42.515625 21.925781 C 40.980469 21.925781 39.6875 23.074219 39.507812 24.601562 L 39.507812 49.234375 C 38.558594 51.035156 36.941406 52.398438 35 53.023438 C 35.5 55.058594 35.699219 57.160156 35.589844 59.253906 C 38.328125 58.53125 40.816406 57.074219 42.789062 55.042969 C 44.757812 57.101562 47.269531 58.5625 50.03125 59.253906 C 49.992188 57.148438 50.261719 55.046875 50.832031 53.023438 C 48.496094 52.542969 46.523438 50.980469 45.527344 48.8125 Z M 32.011719 53.613281 C 32.011719 53.613281 30.957031 42.75 28.390625 41.820312 C 25.820312 40.894531 14.75 47.589844 12.054688 61.191406 C 11.328125 62.472656 10.964844 63.929688 11 65.402344 C 10.597656 66.667969 10.382812 67.988281 10.371094 69.316406 C 10.574219 72.042969 10.472656 74.78125 10.074219 77.484375 C 9.484375 80.304688 8.726562 85.402344 12.179688 84.515625 C 15.140625 83.136719 18.394531 82.515625 21.652344 82.707031 C 27.042969 83 31.253906 83.464844 31.84375 76.644531 C 32.5 73.703125 32.5 70.65625 31.84375 67.714844 C 32.597656 63.050781 32.65625 58.296875 32.011719 53.613281 Z M 32.011719 53.613281 "/>
<path style=" stroke:none;fill-rule:nonzero;fill:rgb(54.901961%,54.901961%,54.901961%);fill-opacity:1;" d="M 85.121094 4.410156 L 74.808594 4.410156 C 73.398438 4.203125 71.976562 4.691406 70.980469 5.726562 C 69.984375 6.765625 69.542969 8.222656 69.785156 9.648438 L 69.851562 21.816406 C 69.855469 26.945312 74.265625 31.238281 79.296875 31.683594 C 79.296875 33.445312 78.496094 37.191406 75.871094 37.191406 C 73.914062 37.191406 73.203125 36.109375 72.09375 34.121094 C 71.429688 32.621094 70.347656 31.347656 68.980469 30.464844 C 67.355469 30.039062 65.671875 29.898438 64 30.058594 L 64 32.316406 C 65.269531 32.160156 66.554688 32.160156 67.824219 32.316406 C 68.832031 32.984375 69.621094 33.941406 70.089844 35.070312 C 71.03125 37.667969 73.503906 39.359375 76.226562 39.269531 C 80.363281 39.269531 81.695312 34.753906 81.875 31.457031 C 86.628906 30.703125 90.136719 26.546875 90.144531 21.660156 L 90.144531 9.46875 C 90.324219 8.070312 89.851562 6.667969 88.867188 5.675781 C 87.878906 4.683594 86.496094 4.214844 85.121094 4.410156 Z M 87.230469 21.195312 C 87.4375 23.941406 86.105469 26.574219 83.78125 28.011719 C 81.453125 29.449219 78.523438 29.449219 76.199219 28.011719 C 73.871094 26.574219 72.539062 23.941406 72.75 21.195312 L 72.75 20.632812 C 74.683594 20.445312 76.574219 19.933594 78.34375 19.121094 L 80.609375 18.171875 C 82.730469 17.214844 85.152344 17.214844 87.273438 18.171875 Z M 87.230469 21.195312 "/>
</g>
</svg>
