<?xml version="1.0" encoding="UTF-8"?>
<svg xmlns="http://www.w3.org/2000/svg" xmlns:xlink="http://www.w3.org/1999/xlink" width="96pt" height="96pt" viewBox="0 0 96 96" version="1.1">
<g id="surface1">
<path style=" stroke:none;fill-rule:nonzero;fill:rgb(54.901961%,54.901961%,54.901961%);fill-opacity:1;" d="M 62.304688 47.976562 C 62.304688 47.976562 63.707031 33.789062 67.105469 32.605469 C 70.507812 31.421875 85.3125 40.09375 88.914062 57.832031 C 88.914062 57.832031 90.3125 60 90.3125 63.152344 C 90.3125 63.152344 91.113281 65.515625 91.113281 68.277344 C 91.113281 71.035156 90.515625 74.976562 91.316406 78.917969 C 92.113281 82.859375 93.113281 89.363281 88.511719 88.179688 C 83.914062 87 83.113281 85.421875 75.910156 85.816406 C 68.707031 86.210938 63.105469 86.800781 62.304688 77.933594 C 62.304688 77.933594 60.703125 70.445312 62.304688 66.304688 C 62.304688 66.304688 60.703125 50.738281 62.304688 47.976562 Z M 51.902344 41.671875 L 51.902344 10.136719 C 51.902344 10.136719 51.902344 10.136719 51.902344 9.941406 C 51.902344 7.773438 50.101562 6 47.898438 6 C 45.699219 6 43.898438 7.773438 43.898438 9.941406 C 43.898438 9.941406 43.898438 10.136719 43.898438 10.136719 L 43.898438 42.261719 C 43.296875 43.445312 41.496094 46.007812 37.898438 47.1875 C 38.496094 48.960938 38.695312 51.722656 38.695312 55.269531 C 43.097656 54.085938 46.097656 51.917969 48.300781 49.75 C 50.300781 51.917969 53.5 54.085938 57.902344 55.269531 C 57.902344 51.722656 58.101562 48.960938 58.703125 47.1875 C 53.902344 45.808594 52.300781 42.65625 51.902344 41.671875 Z M 33.894531 47.976562 C 33.894531 47.976562 32.496094 33.789062 29.09375 32.605469 C 25.691406 31.421875 10.886719 40.09375 7.285156 57.832031 C 7.285156 57.832031 5.886719 60 5.886719 63.152344 C 5.886719 63.152344 5.085938 65.515625 5.085938 68.277344 C 5.085938 71.035156 5.484375 74.976562 4.683594 78.917969 C 3.886719 82.859375 2.886719 89.363281 7.488281 88.179688 C 12.085938 87 12.886719 85.421875 20.089844 85.816406 C 27.292969 86.210938 32.894531 86.800781 33.695312 77.933594 C 33.695312 77.933594 35.296875 70.445312 33.695312 66.304688 C 33.894531 66.304688 35.496094 50.738281 33.894531 47.976562 Z M 33.894531 47.976562 "/>
</g>
</svg>
