<?xml version="1.0" encoding="UTF-8"?>
<svg xmlns="http://www.w3.org/2000/svg" xmlns:xlink="http://www.w3.org/1999/xlink" width="96pt" height="96pt" viewBox="0 0 96 96" version="1.1">
<g id="surface1">
<path style=" stroke:none;fill-rule:evenodd;fill:rgb(54.901961%,54.901961%,54.901961%);fill-opacity:1;" d="M 48 8 L 48 46.09375 L 34.65625 66.875 L 38 66.875 L 38 73.8125 L 31.34375 73.8125 L 31.34375 80.71875 L 24.65625 80.71875 L 24.65625 73.8125 L 18 73.8125 L 18 66.875 L 21.34375 66.875 L 8 46.09375 L 8 8 Z M 44.65625 21.84375 L 11.34375 21.84375 L 11.34375 45.03125 L 23.125 63.40625 L 32.875 63.40625 L 44.65625 45.03125 Z M 44.65625 21.84375 "/>
<path style=" stroke:none;fill-rule:evenodd;fill:rgb(54.901961%,54.901961%,54.901961%);fill-opacity:1;" d="M 87.28125 55 L 68.75 83.5625 C 64.5625 90 55.90625 91.84375 49.4375 87.65625 C 42.96875 83.46875 41.125 74.78125 45.3125 68.3125 L 63.84375 39.78125 C 68.0625 33.3125 76.71875 31.46875 83.1875 35.6875 C 89.65625 39.875 91.5 48.5625 87.28125 55 Z M 80.65625 39.59375 C 75.8125 36.46875 69.34375 37.84375 66.21875 42.65625 L 56.5625 57.5 L 74.0625 68.875 L 83.71875 54.03125 C 86.84375 49.1875 85.46875 42.71875 80.65625 39.59375 Z M 80.65625 39.59375 "/>
</g>
</svg>
