<?xml version="1.0" encoding="UTF-8"?>
<svg xmlns="http://www.w3.org/2000/svg" xmlns:xlink="http://www.w3.org/1999/xlink" width="96pt" height="96pt" viewBox="0 0 96 96" version="1.1">
<g id="surface1">
<path style=" stroke:none;fill-rule:evenodd;fill:rgb(54.901961%,54.901961%,54.901961%);fill-opacity:1;" d="M 40 4 L 40 16 L 34 16 L 52 28 L 52 51.25 C 47.0625 55.96875 44 62.625 44 70 C 44 73.53125 44.71875 76.9375 46 80 L 4 80 L 4 28 L 22 16 L 16 16 L 16 4 Z M 40 4 "/>
<path style=" stroke:none;fill-rule:evenodd;fill:rgb(100%,100%,100%);fill-opacity:1;" d="M 44 40 L 44 60 L 12 60 L 12 40 Z M 44 40 "/>
<path style=" stroke:none;fill-rule:nonzero;fill:rgb(30.196078%,30.196078%,30.196078%);fill-opacity:1;" d="M 70 92 C 57.84375 92 48 82.15625 48 70 C 48 57.84375 57.84375 48 70 48 C 82.15625 48 92 57.84375 92 70 C 92 82.15625 82.15625 92 70 92 Z M 70 92 "/>
<path style=" stroke:none;fill-rule:nonzero;fill:rgb(100%,100%,100%);fill-opacity:1;" d="M 72 72 L 72 56 L 68 56 L 68 68 L 60 68 L 60 72 Z M 72 72 "/>
</g>
</svg>
