<?xml version="1.0" encoding="UTF-8"?>
<svg xmlns="http://www.w3.org/2000/svg" xmlns:xlink="http://www.w3.org/1999/xlink" width="96pt" height="96pt" viewBox="0 0 96 96" version="1.1">
<g id="surface1">
<path style=" stroke:none;fill-rule:nonzero;fill:rgb(54.901961%,54.901961%,54.901961%);fill-opacity:1;" d="M 65.71875 23.5625 L 61.0625 18.9375 L 68.03125 12 L 72.71875 16.625 Z M 69.40625 74.1875 L 64.53125 74.1875 C 71.46875 69.46875 76 61.5625 76 52.59375 C 76 43.1875 71 35 63.5 30.375 L 68.03125 25.875 L 58.71875 16.625 L 33.125 42.0625 L 35.4375 44.375 L 33.125 46.6875 L 37.78125 51.3125 L 40.09375 49 L 42.40625 51.3125 L 58.6875 35.15625 C 65.0625 38.40625 69.40625 44.96875 69.40625 52.5625 C 69.40625 63.40625 60.5625 72.1875 49.65625 72.1875 C 43.96875 72.1875 38.84375 69.78125 35.25 65.96875 L 41.40625 65.96875 L 41.40625 59.4375 L 20 59.4375 L 20 65.96875 L 27.03125 65.96875 C 29 69.25 31.65625 72.03125 34.78125 74.15625 L 29.875 74.15625 L 29.875 77.4375 L 23.28125 77.4375 L 23.28125 83.96875 L 76 83.96875 L 76 77.4375 L 69.40625 77.4375 Z M 69.40625 74.1875 "/>
</g>
</svg>
