<?xml version="1.0" encoding="UTF-8"?>
<svg xmlns="http://www.w3.org/2000/svg" xmlns:xlink="http://www.w3.org/1999/xlink" width="96pt" height="96pt" viewBox="0 0 96 96" version="1.1">
<g id="surface1">
<path style=" stroke:none;fill-rule:evenodd;fill:rgb(54.901961%,54.901961%,54.901961%);fill-opacity:1;" d="M 47.886719 68.539062 L 56.480469 74.675781 C 56.941406 74.910156 57.285156 75.148438 57.742188 75.382812 C 58.316406 75.621094 58.886719 75.621094 59.347656 75.621094 C 61.066406 75.621094 62.671875 74.792969 63.703125 73.257812 C 65.304688 70.78125 64.734375 67.476562 62.328125 65.703125 L 38.945312 48.945312 C 38.027344 48.355469 36.996094 48 35.964844 48 L 8 48 L 8 66.058594 L 28.972656 66.058594 L 52.585938 83.054688 C 53.5 83.644531 54.53125 84 55.566406 84 L 82.726562 84 C 85.59375 84 88 81.519531 88 78.570312 C 88 75.621094 85.59375 73.140625 82.726562 73.140625 L 66.339844 73.140625 C 66.109375 73.613281 65.878906 73.96875 65.652344 74.4375 C 64.273438 76.5625 61.984375 77.863281 59.460938 77.863281 C 57.972656 77.863281 56.480469 77.390625 55.21875 76.5625 L 45.824219 69.601562 L 42.382812 67.121094 L 42.039062 66.886719 C 41.582031 66.648438 41.46875 66.058594 41.8125 65.585938 C 42.039062 65.113281 42.613281 64.996094 43.070312 65.351562 "/>
<path style=" stroke:none;fill-rule:evenodd;fill:rgb(30.196078%,30.196078%,30.196078%);fill-opacity:1;" d="M 76.007812 12 C 68.523438 12 66 19.015625 66 19.015625 C 66 19.015625 63.480469 12 55.992188 12 C 48.507812 12 44 19.53125 44 25.738281 C 44 36.144531 66 52 66 52 C 66 52 88 36.148438 88 25.742188 C 88 19.53125 83.496094 12 76.007812 12 Z M 76.007812 12 "/>
</g>
</svg>
