<?xml version="1.0" encoding="UTF-8"?>
<svg xmlns="http://www.w3.org/2000/svg" xmlns:xlink="http://www.w3.org/1999/xlink" width="96pt" height="96pt" viewBox="0 0 96 96" version="1.1">
<g id="surface1">
<path style=" stroke:none;fill-rule:nonzero;fill:rgb(54.901961%,54.901961%,54.901961%);fill-opacity:1;" d="M 55.003906 72.816406 C 57.4375 77.230469 61.214844 79.601562 66.332031 79.933594 C 65.449219 85.464844 59.746094 86.457031 59.769531 86.457031 C 52.09375 88.378906 46.976562 84.058594 44.894531 82.023438 C 43.109375 80.691406 42.332031 80.605469 41.179688 81.234375 C 40.03125 81.863281 38.628906 88 33.929688 88 C 30.960938 88 28.832031 86.882812 27.539062 84.652344 L 27.332031 84.269531 L 38.628906 72.816406 Z M 32.359375 37.515625 C 35.761719 40.070312 39.921875 41.632812 44.472656 41.632812 C 48.765625 41.632812 52.714844 40.238281 56.011719 37.929688 L 56.585938 37.515625 L 56.707031 37.515625 C 63.925781 38.710938 68.941406 46.371094 68.941406 53.992188 C 62.964844 53.085938 58.523438 53.71875 55.617188 55.894531 C 52.714844 58.074219 51.21875 61.890625 51.132812 67.347656 C 47.921875 67.355469 45.226562 67.359375 43.035156 67.363281 L 42.0625 67.367188 C 41.90625 67.367188 41.753906 67.367188 41.601562 67.367188 L 38.136719 67.367188 L 37.5 67.363281 C 36.488281 67.359375 35.984375 67.355469 35.992188 67.347656 C 36.019531 67.316406 32.371094 71.15625 25.046875 78.859375 L 24.53125 79.402344 L 20 79.402344 L 20 53.992188 C 20 46.542969 24.796875 39.050781 31.757812 37.605469 L 32.234375 37.515625 Z M 65.25 57.628906 C 70.632812 57.628906 75 62 75 67.390625 C 75 72.78125 70.632812 77.152344 65.25 77.152344 C 59.863281 77.152344 55.5 72.78125 55.5 67.390625 C 55.5 62 59.863281 57.628906 65.25 57.628906 Z M 44.128906 8 C 52.460938 8 59.210938 14.605469 59.210938 22.757812 C 59.210938 30.910156 52.460938 37.515625 44.128906 37.515625 C 35.796875 37.515625 29.046875 30.910156 29.046875 22.757812 C 29.046875 14.605469 35.796875 8 44.128906 8 Z M 44.128906 8 "/>
</g>
</svg>
