<?xml version="1.0" encoding="UTF-8"?>
<svg xmlns="http://www.w3.org/2000/svg" xmlns:xlink="http://www.w3.org/1999/xlink" width="96pt" height="96pt" viewBox="0 0 96 96" version="1.1">
<g id="surface1">
<path style=" stroke:none;fill-rule:evenodd;fill:rgb(54.901961%,54.901961%,54.901961%);fill-opacity:1;" d="M 14.34375 67.96875 C 17.5 71.09375 22.59375 71.09375 25.75 67.96875 C 28.875 64.8125 28.875 59.71875 25.75 56.59375 C 22.59375 53.4375 17.5 53.4375 14.34375 56.59375 C 11.21875 59.71875 11.21875 64.8125 14.34375 67.96875 Z M 41.90625 57.46875 L 23.4375 75.9375 C 23.4375 75.9375 28.84375 90.1875 39.09375 87.71875 C 41.96875 87.1875 45.34375 85.3125 48.3125 82.34375 C 53.40625 77.25 55.3125 70.875 52.5625 68.125 C 49.96875 65.5 44.03125 67.125 39.0625 71.75 L 36.53125 69.21875 L 44.75 60.3125 Z M 56.84375 63.875 C 59.46875 66.5 60.34375 70.28125 59.5625 74.34375 L 84 74.34375 L 84 53.21875 C 84 45.75 78.53125 39.53125 71.375 38.375 C 67.5625 41.96875 62.46875 44.1875 56.84375 44.1875 C 51.21875 44.1875 46.125 41.96875 42.34375 38.375 C 35.53125 39.46875 30.28125 45.125 29.75 52.09375 C 29.84375 52.1875 29.9375 52.25 30 52.3125 C 31.5 53.8125 32.625 55.59375 33.3125 57.53125 L 41.90625 48.9375 C 41.90625 48.9375 55.53125 62.5625 56.84375 63.875 Z M 71.9375 23.0625 C 71.9375 14.75 65.1875 8 56.84375 8 C 48.53125 8 41.78125 14.75 41.78125 23.0625 C 41.78125 31.40625 48.53125 38.15625 56.84375 38.15625 C 65.1875 38.15625 71.9375 31.40625 71.9375 23.0625 Z M 71.9375 23.0625 "/>
</g>
</svg>
