<?xml version="1.0" encoding="UTF-8"?>
<svg xmlns="http://www.w3.org/2000/svg" xmlns:xlink="http://www.w3.org/1999/xlink" width="96pt" height="96pt" viewBox="0 0 96 96" version="1.1">
<g id="surface1">
<path style=" stroke:none;fill-rule:evenodd;fill:rgb(54.901961%,54.901961%,54.901961%);fill-opacity:1;" d="M 36 48 C 40.90625 48 45.46875 46.53125 49.28125 44 L 52 44 C 54.875 44 57.53125 44.75 59.84375 46.0625 C 50.53125 50 44 59.25 44 70 C 44 72.0625 44.25 74.0625 44.6875 76 L 4 76 L 4 60 C 4 51.15625 11.15625 44 20 44 L 22.71875 44 C 26.53125 46.53125 31.09375 48 36 48 Z M 36 4 C 47.03125 4 56 12.96875 56 24 C 56 35.03125 47.03125 44 36 44 C 24.96875 44 16 35.03125 16 24 C 16 12.96875 24.96875 4 36 4 Z M 36 4 "/>
<path style=" stroke:none;fill-rule:evenodd;fill:rgb(0%,67.058824%,35.686275%);fill-opacity:1;" d="M 92 70 C 92 82.15625 82.15625 92 70 92 C 57.84375 92 48 82.15625 48 70 C 48 57.84375 57.84375 48 70 48 C 82.15625 48 92 57.84375 92 70 Z M 92 70 "/>
<path style=" stroke:none;fill-rule:nonzero;fill:rgb(100%,100%,100%);fill-opacity:1;" d="M 84 69.3125 L 80.5625 72.5625 L 72.46875 64.875 L 72.46875 84 L 67.53125 84 L 67.53125 64.875 L 59.4375 72.5625 L 56 69.3125 L 70 56 Z M 84 69.3125 "/>
</g>
</svg>
