<?xml version="1.0" encoding="UTF-8"?>
<svg xmlns="http://www.w3.org/2000/svg" xmlns:xlink="http://www.w3.org/1999/xlink" width="96pt" height="96pt" viewBox="0 0 96 96" version="1.1">
<g id="surface1">
<path style=" stroke:none;fill-rule:evenodd;fill:rgb(54.901961%,54.901961%,54.901961%);fill-opacity:1;" d="M 36 48 C 40.90625 48 45.464844 46.527344 49.265625 44.003906 L 52.015625 44 C 54.863281 44 57.535156 44.746094 59.847656 46.054688 C 50.53125 50.011719 44 59.242188 44 70 C 44 72.066406 44.242188 74.078125 44.695312 76.003906 L 4 76 L 4 60 C 4 51.164062 11.15625 44 19.984375 44 L 22.734375 44.003906 C 26.535156 46.527344 31.09375 48 36 48 Z M 36 4 C 47.046875 4 56 12.953125 56 24 C 56 35.046875 47.046875 44 36 44 C 24.953125 44 16 35.046875 16 24 C 16 12.953125 24.953125 4 36 4 Z M 36 4 "/>
<path style=" stroke:none;fill-rule:evenodd;fill:rgb(0%,67.058824%,35.686275%);fill-opacity:1;" d="M 92 70 C 92 82.148438 82.148438 92 70 92 C 57.851562 92 48 82.148438 48 70 C 48 57.851562 57.851562 48 70 48 C 82.148438 48 92 57.851562 92 70 Z M 92 70 "/>
</g>
</svg>
