<?xml version="1.0" encoding="UTF-8"?>
<svg xmlns="http://www.w3.org/2000/svg" xmlns:xlink="http://www.w3.org/1999/xlink" width="96pt" height="96pt" viewBox="0 0 96 96" version="1.1">
<g id="surface1">
<path style=" stroke:none;fill-rule:evenodd;fill:rgb(54.901961%,54.901961%,54.901961%);fill-opacity:1;" d="M 70.3125 30.4375 C 70.3125 42.8125 60.28125 52.84375 47.875 52.84375 C 35.5 52.84375 25.46875 42.8125 25.46875 30.4375 C 25.46875 18.03125 35.5 8 47.875 8 C 60.28125 8 70.3125 18.03125 70.3125 30.4375 Z M 70.3125 30.4375 "/>
<path style=" stroke:none;fill-rule:evenodd;fill:rgb(54.901961%,54.901961%,54.901961%);fill-opacity:1;" d="M 65.84375 52.84375 C 75.75 52.84375 83.75 60.90625 83.75 70.78125 L 83.75 88.75 L 12 88.75 L 12 70.78125 C 12 60.875 20.03125 52.84375 29.9375 52.84375 L 33 52.84375 C 37.28125 55.6875 42.375 57.34375 47.875 57.34375 C 53.375 57.34375 58.5 55.6875 62.75 52.84375 Z M 65.84375 52.84375 "/>
<path style=" stroke:none;fill-rule:evenodd;fill:rgb(100%,100%,100%);fill-opacity:1;" d="M 16.5 84.25 L 79.28125 84.25 L 79.28125 70.78125 C 79.28125 63.375 73.25 57.34375 65.84375 57.34375 L 29.9375 57.34375 C 22.5 57.34375 16.5 63.375 16.5 70.78125 Z M 16.5 84.25 "/>
<path style=" stroke:none;fill-rule:evenodd;fill:rgb(54.901961%,54.901961%,54.901961%);fill-opacity:1;" d="M 38.90625 57.34375 L 56.84375 57.34375 L 47.875 88.75 Z M 38.90625 57.34375 "/>
<path style=" stroke:none;fill-rule:evenodd;fill:rgb(54.901961%,54.901961%,54.901961%);fill-opacity:1;" d="M 25.46875 70.78125 L 29.9375 70.78125 L 29.9375 79.75 L 25.46875 79.75 Z M 25.46875 70.78125 "/>
<path style=" stroke:none;fill-rule:evenodd;fill:rgb(54.901961%,54.901961%,54.901961%);fill-opacity:1;" d="M 34.4375 70.78125 L 38.90625 70.78125 L 38.90625 79.75 L 34.4375 79.75 Z M 34.4375 70.78125 "/>
<path style=" stroke:none;fill-rule:evenodd;fill:rgb(54.901961%,54.901961%,54.901961%);fill-opacity:1;" d="M 29.9375 57.34375 L 34.4375 57.34375 L 34.4375 70.78125 L 29.9375 70.78125 Z M 29.9375 57.34375 "/>
<path style=" stroke:none;fill-rule:evenodd;fill:rgb(54.901961%,54.901961%,54.901961%);fill-opacity:1;" d="M 65.8125 57.34375 L 65.8125 66.6875 C 68.25 67.53125 70.0625 69.75 70.28125 72.4375 L 70.3125 73.03125 C 70.3125 76.5625 67.625 79.4375 64.15625 79.75 L 63.59375 79.75 C 59.875 79.75 56.84375 76.78125 56.84375 73.03125 C 56.84375 70.09375 58.71875 67.59375 61.34375 66.6875 L 61.34375 57.34375 Z M 65.8125 57.34375 "/>
</g>
</svg>
