<?xml version="1.0" encoding="UTF-8"?>
<svg xmlns="http://www.w3.org/2000/svg" xmlns:xlink="http://www.w3.org/1999/xlink" width="96pt" height="96pt" viewBox="0 0 96 96" version="1.1">
<g id="surface1">
<path style=" stroke:none;fill-rule:evenodd;fill:rgb(54.901961%,54.901961%,54.901961%);fill-opacity:1;" d="M 52 16 C 54.210938 16 56 17.789062 56 20 L 56 48.089844 C 48.785156 52.707031 44 60.796875 44 70 C 44 75.15625 45.5 79.960938 48.089844 84.003906 L 12 84 C 9.789062 84 8 82.210938 8 80 L 8 20 C 8 17.789062 9.789062 16 12 16 Z M 52 16 "/>
<path style=" stroke:none;fill-rule:evenodd;fill:rgb(54.901961%,54.901961%,54.901961%);fill-opacity:1;" d="M 44 4 C 46.210938 4 48 5.789062 48 8 L 48 16 C 48 18.210938 46.210938 20 44 20 L 20 20 C 17.789062 20 16 18.210938 16 16 L 16 8 C 16 5.789062 17.789062 4 20 4 Z M 40 8 L 24 8 C 21.789062 8 20 9.789062 20 12 L 20 16 L 44 16 L 44 12 C 44 9.789062 42.210938 8 40 8 Z M 40 8 "/>
<path style="fill-rule:evenodd;fill:rgb(30.196078%,30.196078%,30.196078%);fill-opacity:1;stroke-width:1;stroke-linecap:butt;stroke-linejoin:miter;stroke:rgb(100%,100%,100%);stroke-opacity:1;stroke-miterlimit:4;" d="M 2.5 5.5 L 9.5 5.5 L 9.5 10.5 L 2.5 10.5 Z M 2.5 5.5 " transform="matrix(4,0,0,4,8,4)"/>
<path style=" stroke:none;fill-rule:evenodd;fill:rgb(100%,100%,100%);fill-opacity:1;" d="M 16 52 L 24 52 L 24 60 L 16 60 Z M 16 52 "/>
<path style=" stroke:none;fill-rule:evenodd;fill:rgb(100%,100%,100%);fill-opacity:1;" d="M 16 64 L 24 64 L 24 72 L 16 72 Z M 16 64 "/>
<path style=" stroke:none;fill-rule:evenodd;fill:rgb(100%,100%,100%);fill-opacity:1;" d="M 28 52 L 36 52 L 36 60 L 28 60 Z M 28 52 "/>
<path style=" stroke:none;fill-rule:evenodd;fill:rgb(100%,100%,100%);fill-opacity:1;" d="M 40 52 L 48 52 L 48 56.140625 C 47.53125 56.988281 47.183594 57.636719 46.953125 58.078125 C 46.722656 58.519531 46.398438 59.160156 45.984375 60 L 40 60 Z M 40 52 "/>
<path style=" stroke:none;fill-rule:evenodd;fill:rgb(100%,100%,100%);fill-opacity:1;" d="M 28 64 L 36 64 L 36 72 L 28 72 Z M 28 64 "/>
<path style=" stroke:none;fill-rule:evenodd;fill:rgb(100%,100%,100%);fill-opacity:1;" d="M 40 64 L 44.75 64 C 44.425781 65.820312 44.21875 67.230469 44.125 68.230469 C 44.03125 69.230469 44.03125 70.488281 44.125 72 L 40 72 Z M 40 64 "/>
<path style=" stroke:none;fill-rule:evenodd;fill:rgb(100%,51.372549%,5.882353%);fill-opacity:1;" d="M 70 48 C 82.152344 48 92 57.847656 92 70 C 92 82.152344 82.152344 92 70 92 C 57.847656 92 48 82.152344 48 70 C 48 57.847656 57.847656 48 70 48 "/>
<path style=" stroke:none;fill-rule:evenodd;fill:rgb(100%,100%,100%);fill-opacity:1;" d="M 56 69.199219 L 59.601562 72.398438 L 67.601562 64.800781 L 67.601562 84 L 72.398438 84 L 72.398438 64.800781 L 80.398438 72.398438 L 84 69.199219 L 70 56 Z M 56 69.199219 "/>
</g>
</svg>
