<?xml version="1.0" encoding="UTF-8"?>
<svg xmlns="http://www.w3.org/2000/svg" xmlns:xlink="http://www.w3.org/1999/xlink" width="96pt" height="96pt" viewBox="0 0 96 96" version="1.1">
<g id="surface1">
<path style=" stroke:none;fill-rule:evenodd;fill:rgb(54.901961%,54.901961%,54.901961%);fill-opacity:1;" d="M 48 36.3125 C 52.34375 36.3125 55.84375 39.84375 55.84375 44.15625 C 55.84375 48.5 52.34375 52 48 52 C 43.65625 52 40.15625 48.5 40.15625 44.15625 C 40.15625 39.84375 43.65625 36.3125 48 36.3125 "/>
<path style=" stroke:none;fill-rule:evenodd;fill:rgb(54.901961%,54.901961%,54.901961%);fill-opacity:1;" d="M 42.15625 32.5 L 32 12 C 20.21875 17.90625 12 29.90625 12 44 L 34.90625 44 C 34.90625 38.875 37.875 34.65625 42.15625 32.5 "/>
<path style=" stroke:none;fill-rule:evenodd;fill:rgb(54.901961%,54.901961%,54.901961%);fill-opacity:1;" d="M 64 12 L 53.84375 32.5 C 58.125 34.65625 61.09375 38.875 61.09375 44 L 84 44 C 84 29.90625 75.78125 17.90625 64 12 "/>
<path style=" stroke:none;fill-rule:evenodd;fill:rgb(54.901961%,54.901961%,54.901961%);fill-opacity:1;" d="M 55 55.1875 C 52.96875 56.46875 50.59375 57.25 48 57.25 C 45.40625 57.25 43 56.46875 41 55.1875 L 28.6875 74.5 C 34.28125 78.0625 40.875 80 48 80 C 55.125 80 61.71875 78.0625 67.3125 74.5 Z M 55 55.1875 "/>
</g>
</svg>
