<?xml version="1.0" encoding="UTF-8"?>
<svg xmlns="http://www.w3.org/2000/svg" xmlns:xlink="http://www.w3.org/1999/xlink" width="96pt" height="96pt" viewBox="0 0 96 96" version="1.1">
<g id="surface1">
<path style=" stroke:none;fill-rule:evenodd;fill:rgb(54.901961%,54.901961%,54.901961%);fill-opacity:1;" d="M 54.59375 8.65625 L 55 8.6875 C 55.9375 8.84375 56.75 9.46875 57.09375 10.375 L 60 17.96875 C 62.4375 17.59375 64.9375 17.90625 67.21875 18.875 L 70.46875 14.21875 C 71.34375 13 73 12.6875 74.21875 13.53125 C 75.4375 14.375 75.71875 16.0625 74.84375 17.28125 L 71.625 21.875 C 73.125 23.3125 74.21875 25.15625 74.78125 27.15625 L 83.0625 25.59375 C 84.53125 25.3125 85.90625 26.28125 86.15625 27.75 C 86.40625 29.21875 85.40625 30.625 83.9375 30.90625 L 75.03125 32.5625 C 74.78125 33.84375 74.4375 35.09375 73.9375 36.3125 L 82.90625 39.53125 C 83.875 39.78125 84.59375 40.59375 84.78125 41.59375 C 84.96875 42.59375 84.59375 43.59375 83.78125 44.25 C 83 44.875 81.90625 45 81 44.5625 L 71.625 41.21875 C 70.90625 42.65625 70.0625 44.5 69.125 46.5625 L 76.03125 49.5625 C 77.40625 50.15625 78 51.78125 77.375 53.1875 C 76.75 54.5625 75.15625 55.1875 73.78125 54.59375 L 66.71875 51.53125 C 66.09375 52.84375 65.40625 54.1875 64.78125 55.4375 L 71.53125 58.15625 C 72.46875 58.5 73.09375 59.3125 73.25 60.28125 C 73.375 61.25 72.96875 62.25 72.1875 62.84375 C 71.40625 63.4375 70.375 63.5625 69.46875 63.1875 L 62.34375 60.21875 C 61.65625 61.40625 61.0625 62.53125 60.40625 63.46875 L 66.96875 68.03125 C 68.1875 68.875 68.46875 70.5625 67.59375 71.78125 C 66.75 73.03125 65.0625 73.34375 63.875 72.5 L 57 67.6875 C 56 68.65625 54.875 69.5625 53.71875 70.34375 L 57.84375 78.59375 C 58.28125 79.46875 58.21875 80.46875 57.6875 81.28125 C 57.15625 82.09375 56.25 82.5625 55.28125 82.53125 C 54.3125 82.5 53.46875 81.9375 53.0625 81.0625 L 48.875 72.6875 C 47.34375 73.21875 45.75 73.59375 44.125 73.75 L 43.9375 81.53125 C 43.84375 82.96875 42.65625 84.09375 41.21875 84.09375 C 39.78125 84.0625 38.625 82.90625 38.59375 81.46875 L 38.78125 73.65625 C 36.40625 73.3125 34.125 72.59375 32.03125 71.46875 L 28.78125 76.0625 C 27.9375 77.3125 26.25 77.625 25.0625 76.78125 C 23.84375 75.90625 23.5625 74.25 24.4375 73 L 27.65625 68.40625 C 25.90625 66.84375 24.46875 65 23.34375 62.9375 L 15.40625 66.6875 C 14.0625 67.25 12.53125 66.65625 11.9375 65.375 C 11.34375 64.0625 11.90625 62.5 13.1875 61.8125 L 21.34375 58.03125 C 20.96875 56.59375 20.78125 55.09375 20.71875 53.625 L 10.78125 53.125 C 9.3125 53.0625 8.1875 51.78125 8.28125 50.3125 C 8.375 48.8125 9.625 47.65625 11.125 47.75 L 21.1875 48.15625 C 21.625 46.15625 22.3125 44.21875 23.28125 42.4375 L 16.59375 37.71875 C 15.375 36.875 15.09375 35.1875 15.96875 33.96875 C 16.8125 32.75 18.5 32.4375 19.6875 33.28125 L 26.25 37.875 L 26.53125 38.09375 C 28.15625 36.75 30 35.6875 31.96875 34.96875 L 31.84375 34.875 L 27.625 26.96875 C 26.9375 25.65625 27.4375 24 28.75 23.28125 C 30.03125 22.5625 31.65625 23.03125 32.375 24.34375 L 36.59375 32.28125 C 36.71875 32.5625 36.84375 32.875 36.875 33.1875 C 39.6875 32.28125 42.375 31 44.90625 29.4375 C 44.71875 29.28125 44.53125 29.0625 44.375 28.84375 L 39.0625 20.15625 C 38.28125 18.875 38.6875 17.21875 39.96875 16.4375 C 41.21875 15.625 42.875 16 43.65625 17.28125 L 48.96875 25.96875 C 49.65625 25.21875 50.28125 24.46875 50.84375 23.65625 C 51.9375 22.125 53.34375 20.84375 54.9375 19.875 L 52.0625 12.375 C 51.71875 11.46875 51.875 10.46875 52.5 9.6875 C 53.09375 8.9375 54.0625 8.5625 55 8.6875 Z M 34 44 C 30.6875 44 28 46.6875 28 50 C 28 53.3125 30.6875 56 34 56 C 37.3125 56 40 53.3125 40 50 C 40 46.6875 37.3125 44 34 44 Z M 48 44 C 45.78125 44 44 45.78125 44 48 C 44 50.21875 45.78125 52 48 52 C 50.21875 52 52 50.21875 52 48 C 52 45.78125 50.21875 44 48 44 Z M 48 44 "/>
</g>
</svg>
