<?xml version="1.0" encoding="UTF-8"?>
<svg xmlns="http://www.w3.org/2000/svg" xmlns:xlink="http://www.w3.org/1999/xlink" width="96pt" height="96pt" viewBox="0 0 96 96" version="1.1">
<g id="surface1">
<path style=" stroke:none;fill-rule:evenodd;fill:rgb(30.196078%,30.196078%,30.196078%);fill-opacity:1;" d="M 51.074219 8 C 53.507812 8 55.503906 10.046875 55.503906 12.539062 L 55.503906 45.996094 C 55.503906 46.355469 55.851562 46.710938 56.199219 46.710938 C 56.546875 46.710938 56.894531 46.355469 56.894531 45.996094 L 56.894531 16.097656 C 56.894531 13.605469 58.890625 11.558594 61.324219 11.558594 C 63.753906 11.558594 65.753906 13.605469 65.753906 16.097656 L 65.753906 45.996094 C 65.753906 46.355469 66.101562 46.710938 66.445312 46.710938 C 66.792969 46.710938 67.140625 46.355469 67.140625 45.996094 L 67.140625 27.667969 C 67.140625 25.175781 69.140625 23.128906 71.570312 23.128906 C 74.003906 23.128906 76 25.175781 76 27.667969 L 76 78.390625 L 75.9375 79.050781 C 75.574219 81.871094 74.089844 84.34375 71.960938 85.972656 L 72.433594 85.570312 L 61.652344 69.8125 L 57.867188 75.363281 L 66.460938 87.984375 L 66.011719 88 L 47.304688 88 C 50.195312 83.816406 56.597656 74.554688 66.503906 60.214844 C 67.410156 58.890625 67.414062 57.304688 66.519531 55.980469 L 65.019531 53.765625 L 64.75 53.417969 C 64.457031 53.089844 64.097656 52.808594 63.695312 52.585938 C 63.714844 53 63.601562 53.410156 63.355469 53.773438 C 53.34375 68.238281 45.835938 79.082031 40.828125 86.316406 C 40.828125 86.316406 42.144531 87.308594 43.992188 87.726562 C 44.621094 87.867188 45.203125 87.945312 45.703125 87.984375 C 43.285156 87.855469 41.054688 86.8125 39.351562 85.152344 C 39.265625 85.0625 39.265625 85.0625 39.175781 84.972656 L 28.496094 73.851562 L 21.289062 66.375 C 19.464844 64.507812 19.550781 61.304688 21.722656 59.789062 C 23.457031 58.277344 26.152344 58.546875 27.800781 60.148438 L 28.929688 61.304688 L 35.269531 67.800781 L 35.355469 67.800781 L 35.53125 67.925781 C 35.644531 67.976562 35.761719 67.976562 35.878906 67.976562 C 36.226562 67.976562 36.3125 67.355469 36.3125 67 L 36.3125 23.929688 C 36.3125 23.304688 36.398438 22.683594 36.660156 22.148438 C 37.355469 20.457031 39.003906 19.300781 40.828125 19.300781 C 43.257812 19.300781 45.257812 21.347656 45.257812 23.839844 L 45.257812 45.996094 C 45.257812 46.355469 45.605469 46.710938 45.953125 46.710938 C 46.300781 46.710938 46.644531 46.355469 46.644531 45.996094 L 46.644531 12.539062 C 46.644531 10.046875 48.644531 8 51.074219 8 Z M 50.351562 52.578125 C 49.808594 52.875 49.351562 53.28125 49.027344 53.757812 L 47.519531 55.980469 L 47.253906 56.429688 C 46.632812 57.65625 46.722656 59.039062 47.527344 60.222656 L 52.386719 67.335938 L 56.171875 61.792969 L 50.691406 53.765625 L 50.53125 53.484375 C 50.394531 53.195312 50.335938 52.882812 50.351562 52.578125 Z M 61.363281 52 L 52.675781 52 L 52.414062 52.027344 C 52.09375 52.09375 51.886719 52.28125 51.800781 52.449219 C 51.703125 52.621094 51.71875 52.804688 51.835938 52.976562 L 54.863281 57.40625 L 59.167969 57.40625 L 62.195312 52.976562 L 62.277344 52.804688 C 62.308594 52.6875 62.292969 52.570312 62.230469 52.449219 C 62.128906 52.238281 61.832031 52 61.363281 52 Z M 61.363281 52 "/>
</g>
</svg>
