<?xml version="1.0" encoding="UTF-8"?>
<svg xmlns="http://www.w3.org/2000/svg" xmlns:xlink="http://www.w3.org/1999/xlink" width="96pt" height="96pt" viewBox="0 0 96 96" version="1.1">
<g id="surface1">
<path style=" stroke:none;fill-rule:evenodd;fill:rgb(54.901961%,54.901961%,54.901961%);fill-opacity:1;" d="M 8 8 L 88 8 L 88 88 L 8 88 Z M 8 8 "/>
<path style=" stroke:none;fill-rule:evenodd;fill:rgb(100%,100%,100%);fill-opacity:1;" d="M 62.75 59.59375 L 71.90625 61.0625 L 72.71875 64.90625 Z M 62.75 59.59375 "/>
<path style=" stroke:none;fill-rule:evenodd;fill:rgb(100%,100%,100%);fill-opacity:1;" d="M 51.3125 58.96875 L 56.90625 64.84375 L 52.875 70.1875 Z M 51.3125 58.96875 "/>
<path style=" stroke:none;fill-rule:nonzero;fill:rgb(100%,100%,100%);fill-opacity:1;" d="M 46.4375 43.875 L 42.125 49.03125 L 45.125 52.59375 L 45 57.4375 L 44.71875 57.71875 C 43.875 58.5625 42.6875 59.8125 41.125 61.40625 C 39.375 63.1875 37.5625 65.03125 35.78125 66.8125 C 35.0625 67.53125 34.53125 68.3125 34.15625 69.15625 C 33.78125 70.0625 33.59375 70.96875 33.625 71.875 C 33.65625 74.25 33.28125 76.34375 32.53125 78.09375 L 32.0625 79.125 C 31.6875 79.9375 31.40625 79.65625 30.59375 79.84375 C 29.1875 80.15625 27.5625 79.375 24.96875 77.15625 C 24.75 76.96875 24.53125 76.75 24.34375 76.5 C 23.875 75.84375 23.53125 75 23.34375 74 C 23.03125 72.46875 22.34375 71 21.3125 69.8125 L 18.96875 67.125 C 18.84375 66.96875 18.71875 66.84375 18.59375 66.6875 C 17.71875 65.8125 15.65625 63.75 16.09375 60.9375 C 16.40625 58.75 18.125 57.09375 21.28125 55.8125 C 27.46875 53.34375 33.09375 50.53125 38.4375 46.0625 C 39.3125 45.3125 40.21875 44.90625 40.375 44.8125 C 40.71875 44.625 41.5625 44.46875 42.875 44.28125 C 43.5 44.1875 44.6875 44.0625 46.4375 43.875 Z M 46.4375 43.875 "/>
<path style=" stroke:none;fill-rule:nonzero;fill:rgb(100%,100%,100%);fill-opacity:1;" d="M 52.09375 50 C 53.1875 48.90625 54.3125 47.65625 55.40625 46.25 C 58.34375 42.65625 62.75 39.15625 68.625 35.78125 C 69.3125 35.375 70.28125 35.25 71.375 35.40625 L 71.90625 35.5 C 73.9375 35.8125 75.84375 35.5625 77.40625 34.84375 C 78.78125 34.1875 79.65625 33.0625 79.9375 31.65625 C 80.25 29.875 79.53125 27.875 77.96875 26.1875 C 74.40625 22.34375 71.40625 19.59375 68.5625 17.5 C 66.03125 15.65625 62.84375 15.5 61 17.125 C 59.3125 18.625 58.15625 21.25 58.4375 22.875 C 58.5625 23.625 58.3125 25.9375 53 31.53125 C 50.59375 34.03125 48.3125 36.4375 46.125 38.75 L 51.34375 38.625 L 47.5 42.125 L 52.09375 45.625 C 52.0625 48.5625 52.0625 50.03125 52.09375 50 Z M 52.09375 50 "/>
</g>
</svg>
