<?xml version="1.0" encoding="UTF-8"?>
<svg xmlns="http://www.w3.org/2000/svg" xmlns:xlink="http://www.w3.org/1999/xlink" width="96pt" height="96pt" viewBox="0 0 96 96" version="1.1">
<g id="surface1">
<path style="fill:none;stroke-width:1;stroke-linecap:butt;stroke-linejoin:miter;stroke:rgb(54.901961%,54.901961%,54.901961%);stroke-opacity:1;stroke-miterlimit:4;" d="M 2.031159 -0.710494 L 5.288972 2.641068 C 6.710847 3.508256 7.765534 3.734818 8.710847 3.937943 C 9.812409 4.180131 10.781159 4.406693 11.976472 5.367631 C 13.273347 6.422318 13.554597 7.586381 13.867097 8.984818 C 14.085847 10.000443 14.335847 11.148881 15.156159 12.484818 L 18.632721 16.031693 L 15.937409 18.758256 L 12.632722 15.383256 C 11.163972 14.453568 9.953034 14.148881 8.898347 13.883256 C 7.656159 13.570756 6.617097 13.289506 5.624909 12.297318 C 4.593659 11.273881 4.351472 10.219193 4.085847 8.984818 C 3.882722 8.016068 3.648347 6.922318 2.867097 5.633256 L -0.703216 1.969193 Z M 2.031159 -0.710494 " transform="matrix(4,0,0,4,12.187864,11.966976)"/>
<path style="fill:none;stroke-width:1;stroke-linecap:butt;stroke-linejoin:miter;stroke:rgb(54.901961%,54.901961%,54.901961%);stroke-opacity:1;stroke-miterlimit:4;" d="M 2.034175 -0.712786 L 5.190425 2.638776 C 6.659175 3.498152 7.729488 3.732527 8.682613 3.935652 C 9.807613 4.177839 10.784175 4.404402 11.971675 5.373152 C 13.276363 6.427839 13.557613 7.584089 13.8623 8.990339 C 14.088863 9.998152 14.338863 11.146589 15.151363 12.490339 L 18.635738 16.037214 L 15.932613 18.763777 L 12.666988 15.365339 C 11.190425 14.443464 9.971675 14.146589 8.9248 13.888777 C 7.666988 13.576277 6.620113 13.295027 5.620113 12.295027 C 4.596675 11.271589 4.346675 10.216902 4.088863 8.982527 C 3.877925 8.005964 3.64355 6.896589 2.838863 5.584089 L -0.708012 1.966901 Z M 2.034175 -0.712786 " transform="matrix(-4,0.000000000000000488,-0.000000000000000488,-4,83.917952,84.148856)"/>
<path style=" stroke:none;fill-rule:evenodd;fill:rgb(30.196078%,30.196078%,30.196078%);fill-opacity:1;" d="M 48.03125 61.21875 C 52.71875 62.1875 55.15625 65.8125 57.09375 63.3125 C 59 60.78125 62.96875 62.21875 63.78125 60.1875 C 64.90625 57.28125 62.625 55.125 61.375 48.0625 C 60.90625 41.25 56.5625 35.96875 46.15625 33 C 45.84375 32.90625 38.9375 32.46875 36.125 30.96875 C 32.4375 29 26.125 23.65625 17.15625 14.9375 L 14.84375 17.28125 C 24.09375 27.03125 29.03125 32.46875 29.59375 33.65625 C 29.8125 34.09375 33.71875 40.59375 34.5625 48 C 35.40625 55.40625 41.5625 59.90625 48.03125 61.21875 Z M 48.03125 61.21875 "/>
</g>
</svg>
