<?xml version="1.0" encoding="UTF-8"?>
<svg xmlns="http://www.w3.org/2000/svg" xmlns:xlink="http://www.w3.org/1999/xlink" width="96pt" height="96pt" viewBox="0 0 96 96" version="1.1">
<g id="surface1">
<path style="fill:none;stroke-width:1;stroke-linecap:butt;stroke-linejoin:miter;stroke:rgb(59.215686%,59.215686%,59.215686%);stroke-opacity:1;stroke-miterlimit:4;" d="M 2.028228 -0.708542 L -0.706147 1.969193 L 2.864166 5.632278 C 3.651275 6.923294 3.879791 8.014114 4.086822 8.985794 C 4.350494 10.219193 4.595611 11.271927 5.621002 12.296341 C 6.615142 13.288528 7.654205 13.570755 8.901275 13.885208 C 9.953033 14.149857 11.162017 14.450638 12.633697 15.385208 L 15.938385 18.758255 L 18.634674 16.034622 L 15.153228 12.487747 C 14.336822 11.150833 14.087799 10.000443 13.865142 8.987747 C 13.556549 7.584427 13.274322 6.425247 11.975494 5.37056 C 10.784088 4.402786 9.812408 4.181107 8.706939 3.939896 C 7.76358 3.732864 6.712799 3.506302 5.28897 2.643997 Z M 2.028228 -0.708542 " transform="matrix(4,0,0,4,12.187868,11.96698)"/>
<path style="fill:none;stroke-width:1;stroke-linecap:butt;stroke-linejoin:miter;stroke:rgb(54.901961%,54.901961%,54.901961%);stroke-opacity:1;stroke-miterlimit:4;" d="M 2.034175 -0.713764 L -0.707036 1.96983 L 2.835932 5.586041 C 3.646479 6.896588 3.876948 8.003033 4.086909 8.985455 C 4.350581 10.218854 4.595698 11.272565 5.621089 12.296002 C 6.620112 13.294049 7.665034 13.573346 8.923823 13.886822 C 9.975581 14.147565 11.186518 14.445416 12.665034 15.363385 L 15.935542 18.760846 L 18.63476 16.034283 L 15.153315 12.488385 C 14.335932 11.150494 14.087885 10.00108 13.865229 8.988385 C 13.556635 7.584088 13.274409 6.425885 11.975581 5.370221 C 10.782221 4.400494 9.808589 4.179791 8.685542 3.936627 C 7.730464 3.729596 6.657221 3.499127 5.190425 2.635846 Z M 2.034175 -0.713764 " transform="matrix(-4,0.00000000000000049,-0.00000000000000049,-4,83.917948,84.148852)"/>
<path style=" stroke:none;fill-rule:evenodd;fill:rgb(30.196078%,30.196078%,30.196078%);fill-opacity:1;" d="M 48.019531 61.226562 C 52.722656 62.1875 55.171875 65.816406 57.085938 63.300781 C 59 60.789062 62.960938 62.226562 63.765625 60.171875 C 64.898438 57.285156 62.636719 55.136719 61.378906 48.070312 C 60.90625 41.265625 56.554688 35.960938 46.171875 33 C 45.84375 32.90625 38.925781 32.46875 36.128906 30.96875 C 32.449219 29 26.128906 23.65625 17.167969 14.945312 L 14.828125 17.292969 C 24.09375 27.023438 29.019531 32.480469 29.597656 33.65625 C 29.816406 34.105469 33.722656 40.601562 34.566406 48 C 35.410156 55.398438 41.558594 59.910156 48.019531 61.226562 Z M 48.019531 61.226562 "/>
</g>
</svg>
